<?xml version="1.0" encoding="utf-8"?>
<!-- Generator: Adobe Illustrator 26.0.3, SVG Export Plug-In . SVG Version: 6.00 Build 0)  -->
<svg version="1.1" id="Layer_1" xmlns="http://www.w3.org/2000/svg" xmlns:xlink="http://www.w3.org/1999/xlink" x="0px" y="0px"
	 viewBox="0 0 232.53 82.21" style="enable-background:new 0 0 232.53 82.21;" xml:space="preserve">
<style type="text/css">
	.st0{fill-rule:evenodd;clip-rule:evenodd;fill:#E40065;}
	.st1{fill-rule:evenodd;clip-rule:evenodd;fill:#FFFFFF;}
</style>
<g>
	<path class="st0" d="M119.95,26.27C119.95,9.81,111.26,0,93.66,0H26.3C8.71,0,0,9.81,0,26.27v29.67c0,16.44,8.71,26.28,26.3,26.28
		h67.36c17.6,0,26.29-9.84,26.29-26.28V26.27L119.95,26.27z"/>
	<path class="st1" d="M59.92,73.98c-3.76,0-6.99-0.95-9.81-2.81c-3.14-2.09-5.44-5.02-6.58-8.98L32.48,27.81
		c-0.72-2.1-1.66-3.12-3.01-3.12c-1.45,0-2.29,1.02-2.29,3.12v33.92H13.53V24.55c0-4.17,1.66-7.51,4.89-10.1
		C21.45,12.17,25.08,11,29.37,11c3.56,0,6.68,0.83,9.39,2.51c2.92,1.78,4.89,4.28,5.92,7.51l12.3,38.46
		c0.44,1.35,1.6,2.08,2.86,2.08H60c1.27,0,2.4-0.72,2.81-2.08l12.31-38.46c1.04-3.23,3.02-5.73,5.95-7.51
		c2.7-1.67,5.82-2.51,9.38-2.51c4.28,0,7.92,1.17,10.93,3.45c3.23,2.59,4.89,5.93,4.89,10.1v37.17H92.65V27.81
		c0-2.1-0.84-3.12-2.3-3.12c-1.36,0-2.29,1.02-3.01,3.12L76.26,62.19c-1.13,3.96-3.44,6.9-6.56,8.98c-2.81,1.86-6.05,2.81-9.8,2.81
		H59.92L59.92,73.98z"/>
	<path class="st0" d="M218.9,30c1.03,0,13.64,0,13.64,0v-9.85c0,0-12.62,0-13.64,0c-0.01-0.93-0.01-6.77-0.01-6.77h-0.55h-10.93
		V48.2c0,8.87,5.36,14.61,13.64,14.61h11.27V52.04h-9.45c-3.16-0.17-3.93-2.01-3.97-4.28V30L218.9,30z"/>
	<path class="st0" d="M145.92,24.15c-3.2,0-3.92,2.01-3.94,4.28l-0.02,34.29h-11.47V28c0-8.88,5.35-14.62,13.63-14.62h5.26
		c8.3,0,13.64,5.74,13.64,14.62v34.72h-11.49V28.43c-0.04-2.27-0.76-4.28-3.96-4.28H145.92L145.92,24.15z"/>
	<path class="st0" d="M189.37,34.26c-0.88,0-7.26,0-8.14,0l0.03-5.83c0.01-2.27,0.77-4.28,3.94-4.28h0.27
		c3.19,0,3.92,2.01,3.96,4.28L189.37,34.26L189.37,34.26z M200.93,28c0-8.88-5.36-14.62-13.63-14.62h-3.89
		c-8.32,0-13.65,5.74-13.65,14.62V48.2c0,8.87,5.34,14.61,13.63,14.61h15.64V52.04H185.2c-3.22-0.17-3.94-2.08-3.94-4.41v-2.41
		l14.88-0.01c1.38,0,4.77-0.26,4.77-3.81L200.93,28L200.93,28z"/>
</g>
</svg>
