<?xml version="1.0" encoding="utf-8"?>
<!-- Generator: Adobe Illustrator 26.0.3, SVG Export Plug-In . SVG Version: 6.00 Build 0)  -->
<svg version="1.1" id="Layer_1" xmlns="http://www.w3.org/2000/svg" xmlns:xlink="http://www.w3.org/1999/xlink" x="0px" y="0px"
	 viewBox="0 0 457.88 150.41" style="enable-background:new 0 0 457.88 150.41;" xml:space="preserve">
<style type="text/css">
	.st0{fill:#F6BE00;}
</style>
<path class="st0" d="M107.56,0.27H41.79C15.99,0.27,0,17.08,0,44.15v62.35c0,27.04,15.99,43.87,41.79,43.87h65.76
	c25.76,0,41.76-16.83,41.76-43.87V44.15C149.32,17.08,133.32,0.27,107.56,0.27z M131.77,106.5c0,17.4-8.14,26.28-24.21,26.28H41.79
	c-16.09,0-24.25-8.88-24.25-26.28V44.15c0-17.4,8.16-26.25,24.25-26.25h65.76c16.07,0,24.21,8.85,24.21,26.25V106.5z M101.87,23.88
	H47.66c-17.66,0-24.67,6.28-24.67,24.85v51.96c0,18.59,7.01,26.01,24.67,26.01h53c17.65,0,24.7-6.25,24.7-24.82V48.74
	C125.36,30.16,119.5,23.88,101.87,23.88z M107.78,99.47c0,9.68-1.29,9.68-8.3,9.68H48.84c-7.05,0-8.34,0-8.34-9.68V51.11
	c0-9.59,1.29-9.59,8.34-9.59h50.64c7.01,0,8.3,0,8.3,9.59V99.47z M408.42,24.02h-50.46c-18.47,0-25.92,5.87-25.92,23.58v102.81
	h17.55V49.97c0-7.07,0-8.35,9.58-8.35h48.08c9.59,0,9.59,1.28,9.59,8.35v100.44h17.58V47.59C434.42,29.89,426.96,24.02,408.42,24.02
	z M414.23,0H352.2c-26.95,0-43.67,16.09-43.67,42.02v108.39h17.57V42.02c0-16.17,8.77-24.4,26.09-24.4h62.04
	c17.3,0,26.08,8.22,26.08,24.4v108.39h17.56V42.02C457.88,16.09,441.16,0,414.23,0z M181.62,51.06v50.75
	c0,18.57,7.01,24.83,24.69,24.83h92.51v-17.6H207.5c-7.07,0-8.34,0-8.34-9.61V51.06c0-9.64,1.27-9.64,8.34-9.64h91.32V23.82H205.1
	C187.44,23.82,181.62,29.29,181.62,51.06z M158.64,44.04v62.35c0,27.07,16.01,43.9,41.83,43.9h98.35v-17.62h-98.35
	c-16.1,0-24.27-8.82-24.27-26.28V44.04c0-17.4,8.17-26.23,24.27-26.23h98.35V0.17h-98.35C174.65,0.17,158.64,17,158.64,44.04z"/>
</svg>
