<?xml version="1.0" encoding="utf-8"?>
<!-- Generator: Adobe Illustrator 26.0.3, SVG Export Plug-In . SVG Version: 6.00 Build 0)  -->
<svg version="1.1" id="Layer_1" xmlns="http://www.w3.org/2000/svg" xmlns:xlink="http://www.w3.org/1999/xlink" x="0px" y="0px"
	 viewBox="0 0 367.27 55.25" style="enable-background:new 0 0 367.27 55.25;" xml:space="preserve">
<style type="text/css">
	.st0{fill:#1FA2DC;}
</style>
<path class="st0" d="M129.03,18.66c3-2.67,6.47-4.39,10.47-5.04c5.17-0.83,9.87,0.31,14.18,3.18c3.93,2.61,6.61,6.19,7.84,10.74
	c0.54,2.01,0.84,4.14,0.88,6.23c0.12,5.84,0.04,11.68,0.04,17.52c0,1.88-0.42,2.29-2.34,2.3c-2.6,0.01-5.2,0.01-7.8,0.03
	c-1.74,0.01-2.3-0.54-2.31-2.27c-0.01-6.28-0.1-12.56,0.03-18.84c0.07-3.67-3.41-7.35-7.59-7.3c-3.98,0.05-7.34,3.3-7.36,7.3
	c-0.03,6.32-0.01,12.64-0.01,18.96c0,1.62-0.48,2.11-2.13,2.11c-2.72,0.01-5.44,0-8.16-0.01c-1.71,0-2.15-0.45-2.15-2.23
	c0-7.08-0.05-14.16,0.03-21.24c0.02-2.08-0.8-3.35-2.63-4.23c-0.47-0.22-0.91-1.05-0.92-1.61c-0.09-3-0.05-6-0.02-9
	c0.01-1.4,0.82-2.03,2.19-1.79C124.61,14.05,127.16,15.79,129.03,18.66z"/>
<path class="st0" d="M317.77,27.28c-1.24,0-2.48,0-3.72,0c-0.92,0-1.48-0.43-1.67-1.37c-0.56-2.69-1.24-3.38-3.95-3.55
	c-1.53-0.1-3.1,0.05-4.63,0.26c-1.39,0.19-2.32,1.27-2.38,2.44c-0.06,1.29,0.69,2.29,2.24,2.68c2.35,0.59,4.75,0.97,7.08,1.59
	c2.4,0.63,4.83,1.24,7.1,2.21c2.8,1.2,4.42,3.55,5.34,6.48c0.98,3.1,0.73,6.01-0.57,8.94c-1.53,3.43-4.33,5.41-7.66,6.73
	c-4.75,1.87-9.61,2.09-14.51,0.58c-4.22-1.3-7.73-3.53-9.59-7.75c-0.9-2.05-1.1-4.24-0.86-6.42c0.05-0.45,0.87-1.15,1.37-1.17
	c2.63-0.13,5.27-0.1,7.91-0.08c0.97,0.01,1.55,0.63,1.65,1.56c0.34,2.96,0.74,3.53,3.73,4.13c2.25,0.45,4.52,0.41,6.61-0.78
	c1.33-0.75,1.77-1.52,1.43-2.93c-0.28-1.14-1.21-1.64-2.33-1.92c-4.26-1.06-8.62-1.88-12.74-3.35c-6.42-2.3-9.09-10.09-5.92-16.2
	c1.76-3.39,4.69-5.29,8.21-6.42c5.8-1.85,11.44-1.52,16.9,1.25c4.24,2.15,6.83,6.78,6.45,11.48c-0.08,1.03-0.6,1.62-1.67,1.63
	C320.33,27.28,319.05,27.27,317.77,27.28C317.77,27.28,317.77,27.28,317.77,27.28z"/>
<path class="st0" d="M201.61,36.58c1.02-2.92,1.94-5.56,2.86-8.19c1.53-4.38,3.06-8.75,4.59-13.13c0.59-1.68,0.98-1.95,2.8-1.94
	c2.56,0.01,5.12-0.02,7.68-0.01c1.89,0,2.57,0.85,1.96,2.63c-1.53,4.45-3.14,8.88-4.71,13.32c-1.72,4.85-3.4,9.71-5.14,14.56
	c-0.82,2.28-1.61,4.58-2.6,6.78c-0.83,1.84-2.44,2.84-4.46,2.94c-2.07,0.1-4.16,0.11-6.23-0.02c-2.22-0.14-3.86-1.41-4.64-3.43
	c-1.68-4.36-3.19-8.79-4.76-13.2c-1.42-3.99-2.82-8-4.24-11.99c-1.09-3.07-2.19-6.13-3.27-9.19c-0.46-1.3,0.16-2.34,1.56-2.38
	c3-0.07,6-0.06,9-0.02c1.06,0.01,1.57,0.78,1.89,1.72c1.32,3.86,2.67,7.71,4.01,11.56c1,2.88,2,5.75,3.02,8.62
	C201.06,35.6,201.29,35.95,201.61,36.58z"/>
<path class="st0" d="M34.27,0.01c4.36,0,8.72,0,13.07,0c1.5,0,2.01,0.51,2.01,2c0.01,3.12,0.01,6.24,0,9.36
	c0,1.71-0.55,2.26-2.31,2.27c-7.92,0.01-15.83,0.09-23.75-0.01c-4.71-0.06-7.85,1.97-9.65,6.28c-0.19,0.45-0.93,0.93-1.42,0.94
	c-3.52,0.08-7.04,0.06-10.55,0.04c-1.18-0.01-1.86-0.82-1.63-1.97c1.53-7.67,5.74-13.29,12.8-16.73C16.09,0.59,19.52-0.04,23.12,0
	C26.84,0.04,30.55,0.01,34.27,0.01z"/>
<path class="st0" d="M266.13,39.38c0-4.4-0.27-8.81,0.07-13.19c0.45-5.86,4.78-10.72,10.45-12.29c3.11-0.86,6.26-0.59,9.41-0.6
	c1.15-0.01,1.77,0.8,1.77,1.97c0,2.68,0,5.36-0.01,8.04c-0.01,1.36-0.52,1.88-1.88,1.9c-1.12,0.01-2.24-0.01-3.36,0.01
	c-2.51,0.03-4.18,1.69-4.18,4.21c-0.01,7.32,0,14.64,0,21.96c0,1.79-0.35,2.17-2.17,2.19c-2.76,0.03-5.52,0.02-8.28,0
	c-1.45-0.01-1.97-0.58-1.97-2.07c0-4.04,0-8.08,0-12.12C266.03,39.38,266.08,39.38,266.13,39.38z"/>
<path class="st0" d="M21.7,35.42c0-5.32,0-10.64,0-15.96c0-1.59,0.55-2.14,2.14-2.15c3.12-0.01,6.24-0.01,9.36,0
	c1.45,0,2.04,0.58,2.04,2.01c0.01,10.76,0,21.52,0,32.28c0,1.48-0.44,1.96-1.91,1.97c-3.24,0.02-6.48,0.01-9.72,0
	c-1.48-0.01-1.88-0.41-1.89-1.95c-0.01-5.2,0-10.4-0.01-15.6c0-0.2,0-0.4,0-0.6C21.71,35.42,21.71,35.42,21.7,35.42z"/>
<path class="st0" d="M166.33,26.17c0-3.52,0-7.03,0-10.55c0-1.71,0.58-2.32,2.27-2.34c2.68-0.02,5.35-0.03,8.03-0.02
	c1.4,0.01,2.09,0.64,2.1,2.04c0.02,7.19,0.02,14.39-0.01,21.58c-0.01,1.73-0.52,2.16-2.27,2.17c-2.6,0.01-5.19,0.03-7.79,0.02
	c-1.84,0-2.33-0.5-2.33-2.35C166.32,33.21,166.33,29.69,166.33,26.17z"/>
<path class="st0" d="M179.13,47.7c-0.26,3.64-2.72,6.48-6.61,6.49c-3.7,0.01-6.6-2.8-6.48-6.75c0.11-3.71,2.85-6.35,6.56-6.29
	C176.74,41.22,178.96,44.34,179.13,47.7z"/>
<path class="st0" d="M363.12,21c-5.09-6.42-11.83-9.26-19.92-7.93c-8.39,1.38-14.62,7.19-16.77,15.65
	c-1.08,4.23-0.71,8.47,0.96,12.53c1.83,4.45,4.8,7.95,9.04,10.28c3.93,2.16,8.11,3.1,12.63,2.5c7.21-0.96,12.43-4.75,15.93-11.03
	c0.82-1.46,0.06-2.63-1.62-2.64c-2.64-0.02-5.28-0.04-7.92,0.02c-0.55,0.01-1.23,0.21-1.62,0.56c-3.19,2.91-6.83,3.62-10.85,2.26
	c-2.48-0.84-4.32-2.52-5.63-5c0.55-0.03,0.94-0.07,1.32-0.07c8.68-0.02,17.35-0.02,26.03-0.05c1.86,0,2.33-0.4,2.48-2.26
	C367.61,30.4,366.54,25.32,363.12,21z M337.42,28.89c1.36-3.45,5.67-6.08,9.96-5.84c3.35,0.18,7.63,3.15,8.25,5.84
	C349.57,28.89,343.52,28.89,337.42,28.89z"/>
<path class="st0" d="M258.69,22.12c-4.73-6.84-11.32-10.09-19.7-9.13c-7.15,0.82-12.45,4.56-15.86,10.84
	c-4.07,7.5-3.08,16.52,2.35,22.89c5.36,6.3,12.37,8.73,20.48,6.97c6.21-1.34,10.88-5.03,13.82-10.75c0.77-1.51,0.09-2.57-1.64-2.58
	c-2.64-0.01-5.28-0.03-7.92,0.02c-0.52,0.01-1.15,0.19-1.52,0.52c-2.57,2.37-5.54,3.37-8.99,2.8c-3.33-0.55-5.79-2.36-7.58-5.51
	c0.56-0.03,0.87-0.07,1.18-0.07c8.8-0.01,17.59-0.01,26.39-0.01c1.44,0,1.98-0.35,2.18-1.79C262.62,31.2,261.63,26.35,258.69,22.12z
	 M232.45,28.87c0.29-2.35,3.73-5.16,7.67-5.76c3.89-0.59,8.78,1.72,10.45,5.76C244.49,28.87,238.47,28.87,232.45,28.87z"/>
<path class="st0" d="M98.01,12.75c-11.31-0.04-20.76,9.41-20.66,20.78C77.46,45.1,86.53,54.16,98,54.2
	c11.63,0.05,20.66-9.21,20.78-20.63C118.75,21.77,109.36,12.79,98.01,12.75z M97.95,41.66c-4.49-0.13-8.15-3.69-7.99-8.52
	c0.14-4.31,3.78-7.7,8.21-7.76c4.36-0.06,8.15,3.82,8,8.04C106.28,38.26,102.24,41.79,97.95,41.66z"/>
<path class="st0" d="M76.43,45.19c-1.59-2.93-2.53-6.02-2.85-9.36c-0.47-4.94,0.43-9.54,2.78-13.9c0.15-0.28,0.07-0.87-0.13-1.14
	c-0.58-0.75-1.27-1.42-1.95-2.09c-3.97-3.97-8.85-5.78-14.34-5.98c-4.72,0.14-8.93,1.51-12.68,4.37c-3.5,2.67-5.88,6.11-7.18,10.25
	c-1.58,5.01-1.25,9.99,0.96,14.78c1.83,3.97,4.65,7.1,8.45,9.27c3.98,2.28,8.23,3.22,12.83,2.64c5.75-0.73,10.32-3.44,13.91-7.91
	C76.43,45.9,76.55,45.41,76.43,45.19z M59.64,41.63c-4.54-0.22-7.96-3.6-7.89-8.34c0.07-4.6,3.81-8.11,8.5-7.9
	c4.38,0.19,7.8,3.78,7.68,8.22C68.08,38.24,63.86,41.84,59.64,41.63z"/>
</svg>
