<?xml version="1.0" encoding="utf-8"?>
<!-- Generator: Adobe Illustrator 26.3.1, SVG Export Plug-In . SVG Version: 6.00 Build 0)  -->
<svg version="1.1" id="Layer_1" xmlns="http://www.w3.org/2000/svg" xmlns:xlink="http://www.w3.org/1999/xlink" x="0px" y="0px"
	 viewBox="0 0 164.6 40.2" style="enable-background:new 0 0 164.6 40.2;" xml:space="preserve">
<style type="text/css">
	.st0{fill:#FFFFFF;}
</style>
<g>
	<g>
		<path class="st0" d="M161.1,36.9c2.4,0,3.5-1.8,3.5-2.8V5.9c0,0-1.1-3.1-3.5-3.1c-1.1,0-2.4,1.8-2.4,3.1v28.3
			C158.7,35.2,160.1,36.9,161.1,36.9z"/>
		<path class="st0" d="M134.6,31.7c7,0,10.5,0.7,13.3-1.7c1.8-1,1.1-3.8-1.7-3.5c-1.8,1.4-4.5,1.4-8.7,1.4v-8.7h7
			c1.8,0,2.8-2.4,2.8-3.5v-7c0-1.1-1.1-2.8-2.8-2.8c-2.8,0-7,0-10.5,0c-0.7,0-2.4,1.1-2.4,2.8c0,1.1,1.8,1.8,2.4,1.8h7.7v4.2h-7.7
			c-1.8,0-2.4,1.1-2.4,2.1v10.5v1C132.1,31.4,133.2,31.7,134.6,31.7z"/>
		<path class="st0" d="M143.6,21.9c0,1.8,1.4,2.4,2.4,2.4h3.8v8.7c0,1,1.4,2.1,3.1,2.1s3.5-1,3.5-2.1V7.6c0-1.4-1.8-3.1-3.5-3.1
			c-1.7,0-3.1,1.4-3.1,3.1v12.6h-3.8C145,20.2,143.6,20.9,143.6,21.9z"/>
	</g>
	<g>
		<path class="st0" d="M96.9,11.3h20.3l-4.3,9.3c-0.7,1.3,0,3,1.7,3.3c1,1.3,2.7,0.7,4-1l5.3-11.6c0.7-1.7,0-2-1-3.3
			c0-0.3-1-1-2.3-1H96.9c-1,0-2.3,1-2.3,2.3C94.6,10.3,95.9,11.3,96.9,11.3z"/>
		<path class="st0" d="M108.6,30.6c8.6,0,15.3,0,18.3-2.7c2.7-2.3,0.3-4.3-1.3-4c-3.3,2.3-9.3,2.3-17,2.3c-6,0-11-0.7-14.3-2.3
			c-3.3-1.7-4,2.3-2.3,4C95.3,29.6,101.3,30.6,108.6,30.6z"/>
	</g>
	<g>
		<path class="st0" d="M73,23c-8.2,0-14.6,3.2-14.6,7.1c0,4.3,6.4,7.8,14.6,7.8c7.8,0,13.6-3.6,13.6-7.9C86.6,26.2,80.9,23,73,23z
			 M73,34.4c-4.6,0-8.2-1.8-8.2-4.3c0-2.1,3.6-3.9,8.2-3.9c4.3,0,7.8,1.8,7.8,3.9C80.9,32.6,77.3,34.4,73,34.4z"/>
		<path class="st0" d="M83.7,23c1.8,0,2.8-1.8,2.8-3.2V5.5c0-1.4-1.1-3.2-2.8-3.2s-2.8,1.8-2.8,3.2v14.3C80.9,21.2,81.9,23,83.7,23z
			"/>
		<path class="st0" d="M64.8,23c6.1,0,11.1-2.9,11.1-5.7v-0.7V7.3c0-1.4-0.4-3.2-3.2-3.2c-1.4,0-3.2,1.4-3.2,3.2v1.8h-9.3V7.3
			c-0.7-1.4-0.7-3.2-3.6-3.2c-1.4,0-3.2,1.4-3.2,3.2v9.3C53.4,21.2,62,23,64.8,23z M60.2,13.7h9.3v2.8c-1.1,0.7-2.8,1.8-4.6,1.8
			c-2.5,0-4.3-1.1-4.6-1.8L60.2,13.7C60.2,13.7,60.2,13.7,60.2,13.7z"/>
	</g>
</g>
<path class="st0" d="M33.3,33c3.5-2.2,4.6-3.7,7.2-6.7c2.1-4.6,0.2-7.5-3.5-9.5c4.8-2.1,10.1-6.4,8.5-12.8C42-2.5,27.2-0.9,14.9,7.3
	C2.6,15.7-3.1,28.8,1.7,35.8C6.8,42.5,21,41.5,33.3,33z M15.1,20.3c3.4-7.1,10-17.2,15.8-16.5c2.2,0.6,2.9,3.6,1.4,8.3
	c-3.7,3.8-4.4,4.4-7.8,6c1.3,3.1,3.5,4.3,2.4,8.4c-0.9,5.4-6.6,13.3-11.9,10.8C10,34.4,12.3,24.9,15.1,20.3z"/>
</svg>
