<?xml version="1.0" encoding="utf-8"?>
<!-- Generator: Adobe Illustrator 26.0.3, SVG Export Plug-In . SVG Version: 6.00 Build 0)  -->
<svg version="1.1" id="Layer_1" xmlns="http://www.w3.org/2000/svg" xmlns:xlink="http://www.w3.org/1999/xlink" x="0px" y="0px"
	 viewBox="0 0 76.85 67.44" style="enable-background:new 0 0 76.85 67.44;" xml:space="preserve">
<style type="text/css">
	.st0{fill:#D7261C;}
</style>
<path class="st0" d="M55.81,55.41c5.87-3.73,7.78-6.26,12.15-11.25c3.58-7.81,0.26-12.54-5.92-15.94
	c8.03-3.5,17.01-10.73,14.34-21.4c-5.91-11.02-30.81-8.25-51.41,5.37C4.3,26.33-5.18,48.26,2.83,60.06
	C11.45,71.38,35.14,69.57,55.81,55.41z M25.32,34.07C30.99,22.12,42.1,5.28,51.83,6.34c3.73,0.95,4.82,5.99,2.32,13.92
	c-6.16,6.43-7.36,7.4-13.12,10.06c2.18,5.15,5.78,7.19,3.94,14.09c-1.53,9.13-11.16,22.3-19.99,18.06
	C16.75,57.74,20.66,41.77,25.32,34.07z"/>
</svg>
