<?xml version="1.0" encoding="utf-8"?>
<!-- Generator: Adobe Illustrator 26.0.3, SVG Export Plug-In . SVG Version: 6.00 Build 0)  -->
<svg version="1.1" id="Layer_1" xmlns="http://www.w3.org/2000/svg" xmlns:xlink="http://www.w3.org/1999/xlink" x="0px" y="0px"
	 viewBox="0 0 164.61 40.2" style="enable-background:new 0 0 164.61 40.2;" xml:space="preserve">
<style type="text/css">
	.st0{fill:#E7211A;}
</style>
<g>
	<g>
		<g>
			<path d="M161.11,36.94c2.44,0,3.5-1.75,3.5-2.79V5.86c0,0-1.05-3.14-3.5-3.14c-1.05,0-2.44,1.75-2.44,3.14v28.29
				C158.67,35.19,160.07,36.94,161.11,36.94z"/>
			<path d="M134.57,31.7c6.99,0,10.48,0.7,13.27-1.74c1.75-1.05,1.05-3.84-1.74-3.49c-1.75,1.4-4.54,1.4-8.74,1.4v-8.73h6.99
				c1.75,0,2.79-2.44,2.79-3.49V8.66c0-1.05-1.05-2.79-2.79-2.79c-2.8,0-6.99,0-10.48,0c-0.7,0-2.44,1.05-2.44,2.79
				c0,1.05,1.75,1.75,2.44,1.75h7.68v4.19h-7.68c-1.75,0-2.44,1.05-2.44,2.1v10.48v1.05C132.12,31.35,133.17,31.7,134.57,31.7z"/>
			<path d="M143.65,21.92c0,1.75,1.39,2.44,2.44,2.44h3.84v8.73c0,1.05,1.4,2.1,3.15,2.1s3.5-1.05,3.5-2.1V7.6
				c0-1.4-1.75-3.14-3.5-3.14c-1.74,0-3.15,1.4-3.15,3.14v12.57h-3.84C145.04,20.17,143.65,20.87,143.65,21.92z"/>
		</g>
		<g>
			<path d="M96.95,11.34h20.29l-4.32,9.31c-0.67,1.33,0,2.99,1.66,3.33c1,1.33,2.66,0.66,3.99-1l5.32-11.64c0.66-1.66,0-1.99-1-3.33
				c0-0.33-1-1-2.33-1H96.94c-1,0-2.33,1-2.33,2.33C94.62,10.34,95.95,11.34,96.95,11.34z"/>
			<path d="M108.59,30.63c8.64,0,15.3,0,18.29-2.66c2.66-2.33,0.33-4.32-1.33-3.99c-3.33,2.33-9.32,2.33-16.96,2.33
				c-5.99,0-10.98-0.67-14.31-2.33c-3.32-1.67-3.99,2.33-2.33,3.99C95.28,29.63,101.27,30.63,108.59,30.63z"/>
		</g>
		<g>
			<path d="M73.03,22.96c-8.2,0-14.62,3.21-14.62,7.13c0,4.28,6.42,7.85,14.62,7.85c7.85,0,13.55-3.57,13.55-7.85
				C86.58,26.17,80.88,22.96,73.03,22.96z M73.03,34.37c-4.64,0-8.2-1.78-8.2-4.28c0-2.14,3.57-3.92,8.2-3.92
				c4.28,0,7.85,1.78,7.85,3.92C80.88,32.59,77.31,34.37,73.03,34.37z"/>
			<path d="M83.73,22.96c1.78,0,2.85-1.78,2.85-3.21V5.49c0-1.43-1.07-3.21-2.85-3.21s-2.85,1.78-2.85,3.21v14.26
				C80.88,21.18,81.95,22.96,83.73,22.96z"/>
			<path d="M64.83,22.96c6.06,0,11.06-2.85,11.06-5.71v-0.71V7.27c0-1.43-0.36-3.21-3.21-3.21c-1.42,0-3.21,1.43-3.21,3.21v1.78
				H60.2V7.27c-0.71-1.43-0.71-3.21-3.56-3.21c-1.43,0-3.21,1.43-3.21,3.21v9.27C53.42,21.18,61.98,22.96,64.83,22.96z M60.19,13.69
				h9.27v2.85c-1.07,0.71-2.85,1.78-4.64,1.78c-2.5,0-4.28-1.07-4.64-1.78v-2.85H60.19z"/>
		</g>
	</g>
	<path class="st0" d="M33.27,33.03c3.5-2.23,4.64-3.73,7.24-6.71c2.13-4.65,0.16-7.48-3.53-9.5c4.79-2.09,10.14-6.39,8.55-12.76
		c-3.52-6.57-18.36-4.92-30.65,3.2C2.56,15.7-3.08,28.77,1.69,35.8C6.83,42.55,20.95,41.48,33.27,33.03z M15.1,20.32
		c3.38-7.13,10-17.16,15.8-16.53c2.22,0.57,2.87,3.57,1.38,8.3c-3.67,3.84-4.39,4.41-7.82,5.99c1.3,3.07,3.45,4.28,2.35,8.4
		c-0.91,5.44-6.65,13.29-11.92,10.76C9.99,34.42,12.32,24.9,15.1,20.32z"/>
</g>
</svg>
