<?xml version="1.0" encoding="utf-8"?>
<!-- Generator: Adobe Illustrator 26.3.1, SVG Export Plug-In . SVG Version: 6.00 Build 0)  -->
<svg version="1.1" id="Layer_1" xmlns="http://www.w3.org/2000/svg" xmlns:xlink="http://www.w3.org/1999/xlink" x="0px" y="0px"
	 viewBox="0 0 105 105" style="enable-background:new 0 0 105 105;" xml:space="preserve">
<style type="text/css">
	.st0{fill:#F9C7AA;stroke:#FFFFFF;stroke-width:3;stroke-linecap:round;stroke-linejoin:round;stroke-miterlimit:10;}
	.st1{fill:#FF0000;}
	.st2{fill:#FFFFFF;}
</style>
<g>
	<path class="st0" d="M25.2,72.4l-10.7-11c0,0-3.5-6.1,1.4-8.6s9.3,3.5,9.3,3.5s7.5,7.5,11.9,7.5s12.4,1.9,12.6,8.6
		c0.2,6.8,0,26.4,0,26.4H28.9V87.6c0,0-19.6-7-22.9-19.8S4.9,35.6,4.9,35.6s0.7-7.7,6.3-7.7c8.1,0,6.8,7.7,6.8,7.7L17.5,51"/>
	<path class="st0" d="M80.2,72.4l10.7-11c0,0,3.5-6.1-1.4-8.6c-4.9-2.6-9.3,3.5-9.3,3.5s-7.5,7.5-11.9,7.5s-12.4,1.9-12.6,8.6
		c-0.2,6.8,0,26.4,0,26.4h20.8V87.6c0,0,19.6-7,22.9-19.8s1.2-32.2,1.2-32.2s-0.7-7.7-6.3-7.7c-8.1,0-6.8,7.7-6.8,7.7L87.9,51"/>
</g>
<g>
	<path class="st1" d="M52.3,58.9c-15-4.4-26.8-20.2-28.4-32.2c-0.9-6.6,1.4-11.9,6.2-14.9c3.5-2.1,6.9-3.2,10.1-3.2
		c6.4,0,10.5,4.2,12.5,6.8c1.9-2.6,6-6.8,12.5-6.8c3.2,0,6.6,1.1,10.1,3.2c4.9,3,7.1,8.2,6.2,14.9c-1.6,12-13.3,27.8-28.4,32.2
		l-0.4,0.1L52.3,58.9z"/>
	<path class="st2" d="M65.2,10.1c2.7,0,5.8,0.8,9.3,3c14.7,8.9-1.4,38.4-21.8,44.4c-20.4-6-36.5-35.5-21.8-44.4c3.5-2.1,6.6-3,9.3-3
		c8.4,0,12.5,8.1,12.5,8.1S56.8,10.1,65.2,10.1 M65.2,7.1c-5.9,0-10.1,3.2-12.5,5.9c-2.4-2.7-6.5-5.9-12.5-5.9
		c-3.5,0-7.2,1.1-10.9,3.4c-5.4,3.3-7.9,9.1-6.9,16.4C24,39.4,36.2,55.8,51.9,60.4l0.8,0.2l0.8-0.2c15.6-4.6,27.8-21,29.4-33.5
		c0.9-7.3-1.5-13.1-6.9-16.4C72.3,8.3,68.7,7.1,65.2,7.1L65.2,7.1z"/>
</g>
</svg>
