<?xml version="1.0" encoding="utf-8"?>
<!-- Generator: Adobe Illustrator 26.3.1, SVG Export Plug-In . SVG Version: 6.00 Build 0)  -->
<svg version="1.1" id="Layer_1" xmlns="http://www.w3.org/2000/svg" xmlns:xlink="http://www.w3.org/1999/xlink" x="0px" y="0px"
	 viewBox="0 0 105 105" style="enable-background:new 0 0 105 105;" xml:space="preserve">
<style type="text/css">
	.st0{fill:#00A0E9;}
	.st1{fill:#FFFFFF;}
	.st2{fill:none;stroke:#FFFFFF;stroke-width:1.5;stroke-linecap:round;stroke-linejoin:round;stroke-miterlimit:10;}
	.st3{fill:#8FC31F;}
</style>
<g>
	<path class="st0" d="M46.2,93.8c-4,0-7.4-1.5-9.2-4.2c-1.3-1.8-2.4-4.9-0.6-9.7c1.9-5.3,5.3-6.4,7.8-6.4c4.2,0,8.7,3.2,11,5.1
		c4.8-12,3-28.5,2.3-33.5c-2.1,0.3-4.1,0.5-6,0.5c-7.3,0-11.7-2.2-14.2-4.3c-0.8,14-9,35.4-19.1,38.4c-0.8,0.2-1.6,0.4-2.5,0.4
		c-6.1,0-12.6-6-14.8-11.7c-1.7-4.3-1-8.3,1.8-10.9c1.7-1.6,3.8-2.5,6.2-2.5c5.5,0,11.1,4.7,13.8,7.3c7.3-19,3.8-31.6,2.2-37.7
		c-0.4-1.4-0.7-2.6-0.8-3.5c-0.2-1.9,0-3,0.6-3.7c0.3-0.4,0.9-0.8,1.8-0.8c1,0,2.1,0.5,3.5,1.1c0.7,0.3,1.5,0.7,2.3,1
		c5.6,2.2,23.1,9,24.2,9.4c0.9,0.3,10.2,3.4,10.6,10.9l0.1,1.2c0.8,12,2.4,37-7.2,47.2C56.3,91.5,51.1,93.8,46.2,93.8z"/>
	<path class="st1" d="M26.5,18.3c1.1,0,3,1.1,5.3,2c5.8,2.3,24.2,9.4,24.2,9.4s9.2,2.8,9.6,9.6c0.7,11.2,2.7,37.2-6.7,47.2
		c-3.7,4-8.6,5.8-12.7,5.8c-6.4,0-11.2-4.3-8.5-11.8c1.5-4,3.9-5.4,6.4-5.4c5.4,0,11.6,6.1,11.6,6.1c7.1-14.8,3-37.7,3-37.7
		c-2.7,0.5-5.1,0.7-7.3,0.7c-12.3,0-15.7-6.7-15.7-6.7c0.9,13.4-8.2,37.9-18,40.9c-0.7,0.2-1.3,0.3-2,0.3c-8.3,0-19-13.4-12-20
		c1.6-1.5,3.3-2.1,5.1-2.1c6.9,0,14.4,8.6,14.4,8.6c10.3-24.9,2.9-39.3,2.3-44.1C25.2,19,25.6,18.3,26.5,18.3 M26.5,15.3
		c-1.2,0-2.2,0.5-3,1.3c-1.2,1.4-1.2,3.4-1,4.9c0.1,1,0.4,2.2,0.9,3.7c1.7,6.2,4.7,17.4-1.3,34.7c-3.2-2.8-8.1-6.2-13.2-6.2
		c-2.7,0-5.1,1-7.2,2.9c-3.3,3.1-4.1,7.7-2.2,12.6c2.4,6.1,9.3,12.6,16.2,12.6c1,0,2-0.1,2.9-0.4C25.9,79,31.1,68.9,33.5,63
		c2.6-6.3,4.4-13,5-18.9c2.9,1.7,7,3.1,12.9,3.1c1.5,0,3.1-0.1,4.7-0.3c0.7,5.7,1.7,18.9-1.7,29.4c-2.6-1.9-6.5-4.1-10.3-4.1
		c-2.4,0-6.9,1-9.2,7.3c-2,5.3-0.6,8.9,0.8,11c2.1,3.1,5.9,4.8,10.5,4.8c5.5,0,10.9-2.5,14.9-6.8c10-10.6,8.4-36,7.6-48.3l-0.1-1.2
		C68.1,30.7,58.3,27.3,57,26.9c-1.4-0.5-18.6-7.2-24.1-9.4c-0.8-0.3-1.5-0.6-2.3-1C29.1,15.8,27.8,15.3,26.5,15.3L26.5,15.3z"/>
</g>
<path class="st2" d="M58.8,35.7c0,0,3,1.6,3.1,5.4"/>
<circle class="st1" cx="56.9" cy="34.3" r="0.9"/>
<g>
	<path class="st3" d="M86.7,67.9c-3.7,0-8.7-0.6-11.5-3.7c-1.6-1.7-2.3-4-2.1-6.7c0.6-7.2,5.2-8.3,7.9-8.3c2.2,0,4.4,0.7,6.2,1.4
		l-10.9-32c-0.9-2.4-0.3-4.1,0.3-5c1-1.4,2.6-2,3.8-2c1.4,0,2.5,0.6,2.9,1.7c0.4,1.1,1.3,3,2.6,3c0.5,0,0.8-0.2,0.8-0.3
		c0.3-0.2,6.8-4.7,12-4.7c3.5,0,5.8,2.1,6.4,5.8c0.1,0.5,0.5,2.4-0.5,4.2c-0.8,1.3-2.1,2.1-3.9,2.5c-4.6,0.9-11.7,1.1-12,1.1
		c-0.4,0-0.5,0.1-0.5,0.1c0,0.1,0.1,0.5,0.2,0.8l0,0.1c0.4,0.9,8.8,22.7,11.1,30c2.4,7.5-0.9,9.7-3.6,10.8l-0.2,0.1
		C94.6,67.1,90.9,67.9,86.7,67.9C86.7,67.9,86.7,67.9,86.7,67.9z"/>
	<path class="st1" d="M98.6,12.7c2.4,0,4.4,1.1,4.9,4.6c0,0,1.2,4-3.3,4.9c-4.5,0.9-11.7,1.1-11.7,1.1c-3,0.2-1.6,3.1-1.6,3.1
		S95.7,49,98,56.3c2.3,7.3-1.4,8.4-2.9,9c-0.9,0.4-4.5,1.1-8.4,1.1c-6,0-12.7-1.7-12.1-8.8c0.4-5.4,3.3-6.9,6.4-6.9
		c4.1,0,8.7,2.7,8.7,2.7L77.6,18c-1.3-3.5,1-5,2.7-5c0.7,0,1.3,0.3,1.5,0.7c1.2,3.2,2.8,3.9,4,3.9c1,0,1.7-0.5,1.7-0.5
		S93.9,12.7,98.6,12.7 M98.6,9.7c-5.4,0-11.9,4.3-12.8,4.9c0,0,0,0,0,0c-0.1-0.1-0.6-0.5-1.2-2C84,11,82.3,10,80.3,10
		c-2,0-4,1-5.1,2.6c-0.7,1-1.7,3.2-0.5,6.4l10,29.1c-1.2-0.3-2.5-0.5-3.8-0.5c-2.6,0-8.7,0.9-9.4,9.7c-0.3,3.1,0.6,5.8,2.4,7.8
		c2.5,2.8,6.8,4.2,12.6,4.2c4.2,0,8.2-0.8,9.5-1.3l0.2-0.1c5-2,6.5-6.2,4.5-12.6c-2.1-6.5-9.1-24.8-10.8-29.2
		c2.4-0.1,7.3-0.4,10.7-1.1c2.8-0.6,4.2-2.1,4.9-3.2c1.3-2.2,0.9-4.4,0.7-5.2C105.7,12.3,102.9,9.7,98.6,9.7L98.6,9.7z"/>
</g>
</svg>
