<?xml version="1.0" encoding="utf-8"?>
<!-- Generator: Adobe Illustrator 26.3.1, SVG Export Plug-In . SVG Version: 6.00 Build 0)  -->
<svg version="1.1" id="Layer_1" xmlns="http://www.w3.org/2000/svg" xmlns:xlink="http://www.w3.org/1999/xlink" x="0px" y="0px"
	 viewBox="0 0 120.5 121.2" style="enable-background:new 0 0 120.5 121.2;" xml:space="preserve">
<style type="text/css">
	.st0{fill:#E61F19;}
	.st1{fill:#FFFFFF;}
</style>
<circle class="st0" cx="60.3" cy="60.4" r="59.6"/>
<g>
	<path class="st1" d="M63.1,40.8v1.7c6.5,1.3,11.3,7,11.3,13.9V58c0,4.2,1.5,8.2,4.3,11.3l0.7,0.7c0.7,0.8,0.9,2,0.5,3
		c-0.5,1-1.5,1.7-2.6,1.7h-34c-1.1,0-2.1-0.7-2.6-1.7c-0.5-1-0.3-2.2,0.5-3l0.7-0.7c2.8-3.1,4.3-7.1,4.3-11.3v-1.7
		c0-6.8,4.8-12.6,11.3-13.9v-1.7c0-1.6,1.3-2.8,2.8-2.8C61.8,37.9,63.1,39.2,63.1,40.8L63.1,40.8z M60.2,83.2c-1.5,0-2.9-0.6-4-1.7
		c-1.1-1.1-1.7-2.6-1.7-4h11.3c0,1.4-0.6,2.9-1.7,4C63.2,82.6,61.7,83.2,60.2,83.2z"/>
</g>
</svg>
