<?xml version="1.0" encoding="utf-8"?>
<!-- Generator: Adobe Illustrator 26.3.1, SVG Export Plug-In . SVG Version: 6.00 Build 0)  -->
<svg version="1.1" id="Layer_1" xmlns="http://www.w3.org/2000/svg" xmlns:xlink="http://www.w3.org/1999/xlink" x="0px" y="0px"
	 viewBox="0 0 105 105" style="enable-background:new 0 0 105 105;" xml:space="preserve">
<style type="text/css">
	.st0{fill:#E4007F;}
	.st1{fill:#FFFFFF;}
	.st2{fill:#00A0E9;}
	.st3{fill:none;stroke:#FFFFFF;stroke-width:3;stroke-linecap:round;stroke-linejoin:round;stroke-miterlimit:10;}
	.st4{fill:#601986;}
</style>
<g>
	<path class="st0" d="M38.3,62.7c-0.2,0-0.4,0-0.6,0c-3.9-0.3-10.7-0.9-11.3-1c-0.6,0-2.1-0.2-3.2-1.5c-0.9-1.1-1.2-2.7-0.8-4.6
		c0.9-4.3,1.8-14.8,1.8-14.9l0-0.1l0-0.1c0.1-0.4,0.1-1.6-0.4-2.3c-0.3-0.4-0.9-0.7-1.6-0.7C17,36.8,4.9,36.2,4,36.2l-0.1,0
		c-0.6,0-2-0.1-3-1.3c-0.8-0.9-1-2.1-0.7-3.6l2.3-11.7c0.1-1.1,0.9-3,3.8-3c0.3,0,0.6,0,1,0.1c0,0,33.9,2.7,33.9,2.7
		c0.1,0,3.4,0.1,5.4,2.5c1.2,1.5,1.6,3.4,1.2,5.7c-1.2,7.4-4.4,30.5-4.4,30.7C43.2,59.7,41.9,62.7,38.3,62.7z"/>
	<path class="st1" d="M6.2,18c0.2,0,0.5,0,0.8,0.1l34,2.7c0,0,6.3,0.1,5.2,6.4C45,34.7,41.8,58,41.8,58s-0.3,3.2-3.5,3.2
		c-0.1,0-0.3,0-0.4,0c-4.1-0.3-11.3-1-11.3-1s0,0,0,0c-0.3,0-3.4-0.1-2.6-4.3c0.9-4.4,1.8-15.1,1.8-15.1s0.8-4.4-3.4-4.8
		C16.9,35.3,4,34.7,4,34.7s0,0-0.1,0c-0.5,0-2.8-0.2-2.3-3.2l2.3-11.8C3.9,19.6,3.9,18,6.2,18 M6.2,15L6.2,15
		c-3.3,0-5.1,2.1-5.3,4.3l-2.3,11.6l0,0l0,0c-0.4,2.5,0.3,4,1.1,4.9c1.4,1.7,3.4,1.9,4.2,1.9c0,0,0,0,0.1,0C5.2,37.8,17,38.3,22,39
		l0,0l0,0c0.4,0,0.5,0.1,0.6,0.2c0.1,0.2,0.2,0.8,0.1,1.2l0,0.2l0,0.1c0,0.1-0.9,10.6-1.7,14.8c-0.6,3,0.3,4.8,1.1,5.8
		c1.5,1.8,3.5,2,4.3,2.1c1,0.1,7.4,0.7,11.2,1c0.2,0,0.4,0,0.6,0c4.3,0,6.2-3.5,6.5-5.9C45,57,48,34.9,49.2,27.7
		c0.6-3.4-0.5-5.6-1.5-6.9c-2.2-2.7-5.7-3-6.5-3L7.3,15.1C6.9,15.1,6.5,15,6.2,15L6.2,15z"/>
</g>
<g>
	<path class="st2" d="M65.9,50.9c-3.5,0-5.9-2.2-6.5-5.9c-1.2-7.2-5.4-29.4-5.6-30.5c-0.1-0.4-0.4-2.2,0.5-3.8
		c0.5-0.8,1.4-1.8,3.3-2.3c3.8-0.9,10.2-2.4,11-2.6c0.2-0.1,0.7-0.2,1.4-0.2c0.9,0,3.8,0.3,4.3,4.7c0.5,4.3,3,14.6,3.1,14.7l0,0.1
		l0,0.1c0,0.2,0.4,2.3,2.2,2.3c0.2,0,0.5,0,0.8-0.1c5.2-1.1,16.8-4.3,17.8-4.6c0.2-0.1,0.8-0.2,1.4-0.2c0.8,0,3.3,0.3,3.8,3.8
		l1.6,11.9c0.1,0.8,0,1.5-0.3,2.1c-0.6,1.1-1.7,1.8-3.4,2.1l-33,8.2C68.2,50.6,67.2,50.9,65.9,50.9z"/>
	<path class="st1" d="M70,7.1c1,0,2.5,0.5,2.8,3.3c0.5,4.4,3.1,14.9,3.1,14.9s0.5,3.6,3.7,3.6c0.3,0,0.7,0,1.1-0.1
		c5.5-1.2,17.9-4.6,17.9-4.6s0.4-0.2,1-0.2c0.9,0,2,0.4,2.3,2.5l1.6,11.9c0,0.1,0.6,1.9-2.5,2.5l-33.1,8.2c0,0-0.8,0.3-2,0.3
		c-1.8,0-4.4-0.7-5-4.7c-1.2-7.4-5.6-30.6-5.6-30.6s-0.9-3.4,2.7-4.3c4-1,11-2.6,11-2.6S69.4,7.1,70,7.1 M70,4.1
		c-0.8,0-1.4,0.1-1.8,0.3C67.3,4.5,61,6,57.3,6.9c-2.4,0.6-3.6,1.9-4.2,3c-1.2,2.1-0.9,4.2-0.7,4.9c0.3,1.4,4.4,23.4,5.6,30.5
		c0.7,4.5,3.7,7.2,8,7.2c1.3,0,2.4-0.3,2.8-0.4l33-8.2c2.1-0.4,3.6-1.4,4.3-2.8c0.4-0.7,0.7-1.7,0.5-3.1l-1.6-11.8
		c-0.6-3.7-3.1-5.1-5.3-5.1c-0.8,0-1.5,0.2-1.9,0.3c-1.2,0.3-12.5,3.4-17.6,4.5c-0.2,0-0.3,0.1-0.4,0.1c-0.6,0-0.7-1-0.7-1l0-0.2
		l0-0.2c0-0.1-2.6-10.4-3-14.5C75.3,5.6,72.4,4.1,70,4.1L70,4.1z"/>
</g>
<circle class="st1" cx="73.7" cy="43" r="1.5"/>
<path class="st3" d="M70.1,44.1c0,0-4.3,2.1-5.2-2.9"/>
<circle class="st1" cx="34.4" cy="24.8" r="1.5"/>
<path class="st3" d="M38,25.4c0,0,4.8,0.1,3.3,5"/>
<g>
	<path class="st4" d="M49.7,99.3c-1.9,0-3.4-0.6-4.5-1.7c-1.8-1.9-1.7-4.5-1.7-4.8c0-0.2,1.3-19,1-27c-0.1-3.1,0.6-5.5,2.2-7.2
		c1.9-1.9,4.3-2.1,5-2.1c0.2,0,0.2,0,0.2,0l33.7,0.7l0.1,0c1.9,0,3,0.8,3.6,1.4c1.3,1.3,1.2,3.1,1.2,3.3c0,0.1,0,4.9-0.3,7.7
		c-0.2,2.4-2,4-4.7,4l0,0c-0.2,0-0.4,0-0.5,0c-0.9,0-11.3-0.2-15.1-0.3l-0.2,0c-2.1,0-2.3,1-2.3,1.2c0,0.1-0.1,2-0.1,5.6
		c0,0.8,0.3,1.1,0.6,1.3c0.4,0.2,0.9,0.3,1.5,0.3c0.2,0,0.3,0,0.3,0l0.1,0c0.1,0,11.5-0.3,16.3-0.3c0.6,0,1.1,0,1.5,0
		c1,0,1.9,0.4,2.6,1.2c1.3,1.4,1.3,3.6,1.3,4c0,0.5,0.1,4.2,0.3,7.1c0.1,1.2-0.3,2.2-1,3c-1.3,1.3-3.3,1.5-4.3,1.5
		c-0.2,0-0.4,0-0.5,0c-1.6,0-29.4,0.6-35.7,1.1C50.2,99.3,49.9,99.3,49.7,99.3z"/>
	<path class="st1" d="M51.8,58.1c0.1,0,0.1,0,0.1,0l33.8,0.7c0.1,0,0.1,0,0.2,0c3.5,0,3.3,3.1,3.3,3.1s0,4.9-0.3,7.6
		c-0.2,2.4-2.3,2.6-3.2,2.6c-0.2,0-0.4,0-0.4,0s-11.2-0.2-15.2-0.3c-0.1,0-0.1,0-0.2,0c-3.8,0-3.8,2.7-3.8,2.7s-0.1,2-0.1,5.6
		c0,2.8,2.5,3.1,3.6,3.1c0.3,0,0.5,0,0.5,0s11.5-0.3,16.3-0.3c0.6,0,1.1,0,1.4,0c2.6,0.1,2.4,3.7,2.4,3.7s0.1,4,0.3,7.2
		c0.2,2.7-2.7,2.9-3.9,2.9c-0.3,0-0.4,0-0.4,0s-29.3,0.6-35.9,1.1c-0.2,0-0.4,0-0.6,0c-4.9,0-4.6-4.9-4.6-4.9s1.3-19,1-27.1
		C45.8,58.4,50.9,58.1,51.8,58.1 M51.8,55.1C51.8,55.1,51.8,55.1,51.8,55.1c-0.8,0-3.8,0.2-6,2.5c-1.9,1.9-2.8,4.7-2.6,8.3
		c0.3,7.8-1,26.6-1,26.8c0,0.4-0.1,3.6,2.1,5.9c1,1,2.7,2.2,5.5,2.2c0.3,0,0.5,0,0.8,0c6.2-0.5,33.5-1,35.6-1.1c0.1,0,0.3,0,0.5,0
		c1.3,0,3.8-0.3,5.4-2c0.7-0.8,1.5-2.1,1.4-4.1c-0.2-2.8-0.3-6.4-0.3-7c0-0.8,0-3.3-1.6-5.1c-0.9-1-2.2-1.6-3.6-1.7
		c-0.4,0-0.9,0-1.6,0c-4.8,0-15.9,0.3-16.3,0.3l-0.1,0l-0.1,0c0,0,0,0,0,0c0,0-0.1,0-0.1,0c-0.3,0-0.5,0-0.6-0.1c0,0,0,0,0-0.1
		c0-2.8,0.1-4.6,0.1-5.2c0.1,0,0.4-0.1,0.8-0.1l0.1,0c3.8,0.1,14,0.3,15.1,0.3c0.1,0,0.3,0,0.5,0c3.4,0,5.9-2.1,6.2-5.3
		c0.3-2.7,0.3-7.2,0.3-7.8c0-0.6-0.1-2.7-1.6-4.3c-0.8-0.9-2.3-1.9-4.7-1.9c-0.1,0-0.1,0-0.2,0L52,55.1C52,55.1,51.9,55.1,51.8,55.1
		L51.8,55.1L51.8,55.1z"/>
</g>
<path class="st3" d="M66.3,86.9c0,0-4.5-0.3-4.7-5.7"/>
<circle class="st1" cx="69.5" cy="88.5" r="1.3"/>
</svg>
