<?xml version="1.0" encoding="utf-8"?>
<!-- Generator: Adobe Illustrator 26.3.1, SVG Export Plug-In . SVG Version: 6.00 Build 0)  -->
<svg version="1.1" id="Layer_1" xmlns="http://www.w3.org/2000/svg" xmlns:xlink="http://www.w3.org/1999/xlink" x="0px" y="0px"
	 viewBox="0 0 115 115" style="enable-background:new 0 0 115 115;" xml:space="preserve">
<style type="text/css">
	.st0{fill:#FFE525;}
	.st1{fill:#FFFFFF;}
	.st2{fill:#F0F0F0;}
	.st3{fill:#6FBA2C;}
	.st4{fill:none;stroke:#FFFFFF;stroke-width:3;stroke-linecap:round;stroke-linejoin:round;stroke-miterlimit:10;}
	.st5{fill:#FFA500;stroke:#FFFFFF;stroke-width:3;stroke-miterlimit:10;}
	.st6{fill:none;stroke:#FFFFFF;stroke-width:2;stroke-linecap:round;stroke-linejoin:round;stroke-miterlimit:10;}
	.st7{fill:#E61673;}
	.st8{fill:#00A0E9;}
	.st9{fill:#FF0000;}
</style>
<g>
	<path class="st0" d="M57.5,112c-28,0-50.7-17.8-50.7-39.6c0-21.8,22.7-39.6,50.7-39.6s50.7,17.8,50.7,39.6
		C108.2,94.2,85.5,112,57.5,112z"/>
	<path class="st1" d="M57.5,34.3c27.2,0,49.2,17.1,49.2,38.1s-22,38.1-49.2,38.1S8.3,93.4,8.3,72.4S30.3,34.3,57.5,34.3 M57.5,31.3
		c-28.8,0-52.2,18.4-52.2,41.1s23.4,41.1,52.2,41.1s52.2-18.4,52.2-41.1S86.3,31.3,57.5,31.3L57.5,31.3z"/>
</g>
<ellipse class="st2" cx="42.2" cy="70.5" rx="25.7" ry="20"/>
<path class="st3" d="M57.1,64.2c0,0-7.7,16.2-27.1,6.1L28.7,67l4.2-1.7l3-15.3l3.6,1.7l3.5,5.8l2.5,6.3L57.1,64.2z"/>
<path class="st4" d="M47.4,46.3c0,0-11.8-3-12.2,6.4S35,67.7,26,66.9c0,0,11.8,12,24.5,4.3S57,54.9,57,54.9L47.4,46.3z"/>
<path class="st4" d="M35.6,50.8c0,0,3.7-1,5.9,2.4s0.9,10,5.3,10.6c4.4,0.8,8.3-1.1,9.3,1.3"/>
<path class="st5" d="M92.2,3.7c0,0-47.1,13.7-44.8,42.5l9.5,9.1c0,0,28.9-7.3,39.2-46.8C95.9,8.6,98.1,2.7,92.2,3.7z"/>
<path class="st6" d="M54.2,34.2c0,0-1.8,2.6-2.1,5.9"/>
<ellipse class="st1" cx="51.6" cy="43.6" rx="1.2" ry="1.2"/>
<circle class="st3" cx="86.2" cy="61.8" r="10.1"/>
<circle class="st7" cx="82.4" cy="86.7" r="8.3"/>
<circle class="st8" cx="63.4" cy="98.3" r="6.4"/>
<circle class="st9" cx="45.5" cy="100.4" r="4.2"/>
</svg>
