<?xml version="1.0" encoding="utf-8"?>
<!-- Generator: Adobe Illustrator 26.3.1, SVG Export Plug-In . SVG Version: 6.00 Build 0)  -->
<svg version="1.1" id="Layer_1" xmlns="http://www.w3.org/2000/svg" xmlns:xlink="http://www.w3.org/1999/xlink" x="0px" y="0px"
	 viewBox="0 0 105 105" style="enable-background:new 0 0 105 105;" xml:space="preserve">
<style type="text/css">
	.st0{fill:none;stroke:#FF5F00;stroke-width:3;stroke-linecap:round;stroke-linejoin:round;stroke-miterlimit:10;}
	.st1{fill:none;stroke:#FF5F00;stroke-width:1.5;stroke-linecap:round;stroke-linejoin:round;stroke-miterlimit:10;}
	.st2{fill:#FF711C;}
</style>
<g>
	<path class="st0" d="M23.2,65.2c0,0-11.9-13.6-19.5-6.5s5.6,22.3,14,19.7c9.8-3,18.9-27.5,18-40.9c0,0,4.7,9.2,23,6
		c0,0,4.1,22.9-3,37.7c0,0-13.4-13.2-18-0.7s11.8,16,21.2,6s7.4-36,6.7-47.2c-0.4-6.8-9.6-9.6-9.6-9.6s-18.4-7.1-24.2-9.4
		c-4.2-1.6-6.9-4-6.3,0.8C26.1,25.9,33.5,40.3,23.2,65.2z"/>
	<path class="st1" d="M58.8,35.7c0,0,3,1.6,3.1,5.4"/>
	<circle class="st2" cx="56.9" cy="34.3" r="0.9"/>
	<path class="st0" d="M103.5,17.3c-1.5-10.2-16-0.2-16-0.2s-3.4,2.5-5.7-3.4c-0.6-1.6-6.1-0.7-4.2,4.3l12.1,35.4
		c0,0-14.1-8.4-15.1,4.2c-1,11.8,18.2,8.6,20.5,7.7c1.5-0.6,5.2-1.7,2.9-9S86.9,26.4,86.9,26.4s-1.4-2.9,1.6-3.1
		c0,0,7.2-0.2,11.7-1.1C104.7,21.3,103.5,17.3,103.5,17.3z"/>
</g>
</svg>
