<?xml version="1.0" encoding="utf-8"?>
<!-- Generator: Adobe Illustrator 26.3.1, SVG Export Plug-In . SVG Version: 6.00 Build 0)  -->
<svg version="1.1" id="Layer_1" xmlns="http://www.w3.org/2000/svg" xmlns:xlink="http://www.w3.org/1999/xlink" x="0px" y="0px"
	 viewBox="0 0 120.5 121.2" style="enable-background:new 0 0 120.5 121.2;" xml:space="preserve">
<style type="text/css">
	.st0{fill:#E61F19;}
	.st1{fill:#FFFFFF;}
</style>
<circle class="st0" cx="60.2" cy="60.6" r="59.6"/>
<path class="st1" d="M66,37.4V49h11.6L66,37.4z M63.1,49V37.4H47.2c-2.4,0-4.3,1.9-4.3,4.3v37.6c0,2.4,1.9,4.3,4.3,4.3h26
	c2.4,0,4.3-1.9,4.3-4.3V51.9H66.1C64.4,51.9,63.1,50.6,63.1,49z M67.5,75H53c-0.8,0-1.4-0.7-1.4-1.4c0-0.8,0.7-1.4,1.4-1.4h14.5
	c0.8,0,1.4,0.6,1.4,1.4C68.9,74.4,68.3,75,67.5,75z M67.5,69.2H53c-0.8,0-1.4-0.7-1.4-1.4s0.7-1.4,1.4-1.4h14.5
	c0.8,0,1.4,0.6,1.4,1.4C68.9,68.6,68.3,69.2,67.5,69.2z M68.9,62c0,0.8-0.7,1.4-1.4,1.4H53c-0.8,0-1.4-0.7-1.4-1.4
	c0-0.8,0.7-1.4,1.4-1.4h14.5C68.3,60.6,68.9,61.2,68.9,62z"/>
</svg>
