<?xml version="1.0" encoding="utf-8"?>
<!-- Generator: Adobe Illustrator 26.3.1, SVG Export Plug-In . SVG Version: 6.00 Build 0)  -->
<svg version="1.1" id="Layer_1" xmlns="http://www.w3.org/2000/svg" xmlns:xlink="http://www.w3.org/1999/xlink" x="0px" y="0px"
	 viewBox="0 0 105 105" style="enable-background:new 0 0 105 105;" xml:space="preserve">
<style type="text/css">
	.st0{fill:#2BC9E7;}
	.st1{fill:#2BC9E7;stroke:#FFFFFF;stroke-width:4;stroke-miterlimit:10;}
	.st2{fill:#FFFFFF;}
	.st3{fill:none;stroke:#FFFFFF;stroke-width:3;stroke-linecap:round;stroke-linejoin:round;stroke-miterlimit:10;}
	.st4{fill:#FADC00;}
	.st5{fill:none;stroke:#FADC00;stroke-width:2;stroke-linecap:round;stroke-linejoin:round;stroke-miterlimit:10;}
</style>
<polygon class="st0" points="12.1,55.1 12.1,98 92.9,98 92.9,55.1 52.4,22.8 "/>
<path class="st1" d="M12.1,101.4c-1.9,0-3.4-1.5-3.4-3.4V55.1c0-1,0.5-2,1.3-2.6l40.3-32.3c0.7-0.5,1.4-0.7,2.1-0.7
	c0.7,0,1.4,0.2,2,0.7l40.7,32.4l0.1,0.1c0.7,0.7,1.1,1.6,1.1,2.5v42.9c0,1.9-1.5,3.4-3.4,3.4H12.1V101.4z"/>
<path class="st2" d="M61.1,43c0,0,10.9,9.1,7.7,26.5C65.5,87,52,90.2,41.6,85.4s-7.9-17.3-7.9-17.3s0.7-9.2,13.8-14.2
	S61.1,43,61.1,43z"/>
<path class="st3" d="M31,88.7c0,0,25.6-17.7,28.5-31.2"/>
<circle class="st4" cx="43.7" cy="62.3" r="1.5"/>
<path class="st5" d="M41.3,65c0,0-3.5,2.8-2.6,7.6"/>
<path class="st4" d="M99.8,52.7c-0.4,0-0.8-0.1-1.2-0.4L52.4,15.5L6.3,52.3c-0.8,0.6-2,0.5-2.6-0.3S3.2,50,4,49.4l47.3-37.8
	c0.7-0.5,1.6-0.5,2.3,0L101,49.4c0.8,0.6,0.9,1.8,0.3,2.6C100.9,52.5,100.4,52.7,99.8,52.7z"/>
<path class="st4" d="M99.8,55.7c-1.1,0-2.1-0.3-3-1L52.4,19.3L8.2,54.6c-0.9,0.7-2,1-3,1c-0.2,0-0.4,0-0.5,0
	c-1.3-0.1-2.5-0.8-3.3-1.9c-1.6-2.1-1.2-5.2,0.9-6.8L49.4,9.3c1-0.7,2-1,3-1s2,0.3,2.9,0.9l47.5,37.9c1,0.7,1.6,1.9,1.8,3.3
	c0.1,1.3-0.2,2.5-1,3.5C102.7,55.1,101.4,55.7,99.8,55.7z"/>
<path class="st2" d="M52.5,9.7c0.7,0,1.4,0.2,2,0.7L102,48.2c0.7,0.5,1.1,1.3,1.2,2.2s-0.1,1.7-0.7,2.4c-0.7,0.9-1.6,1.3-2.7,1.3
	c-0.8,0-1.5-0.2-2.1-0.7l-45.3-36L7.2,53.5c-0.6,0.5-1.4,0.7-2.1,0.7c-0.1,0-0.2,0-0.4,0c-0.9-0.1-1.7-0.5-2.3-1.3
	c-1.1-1.5-0.8-3.6,0.6-4.7l47.4-37.8C51,10,51.8,9.7,52.5,9.7 M52.5,6.7c-1.4,0-2.7,0.4-3.9,1.3h-0.1h-0.1L1.3,45.8
	c-2.7,2.1-3.3,6.1-1.2,8.9c1,1.4,2.6,2.3,4.4,2.5c0.2,0,0.5,0,0.7,0c1.4,0,2.8-0.5,3.9-1.3l0,0l0,0l43.3-34.6l43.4,34.6l0,0l0,0
	c1.1,0.8,2.5,1.3,3.9,1.3c2,0,3.8-0.9,5-2.4l0,0l0,0c1-1.3,1.4-2.9,1.2-4.5c-0.2-1.7-1-3.3-2.4-4.3L56.3,8h-0.1h-0.1
	C55.1,7.1,53.8,6.7,52.5,6.7L52.5,6.7z"/>
</svg>
