<?xml version="1.0" encoding="utf-8"?>
<!-- Generator: Adobe Illustrator 26.3.1, SVG Export Plug-In . SVG Version: 6.00 Build 0)  -->
<svg version="1.1" id="Layer_1" xmlns="http://www.w3.org/2000/svg" xmlns:xlink="http://www.w3.org/1999/xlink" x="0px" y="0px"
	 viewBox="0 0 105 105" style="enable-background:new 0 0 105 105;" xml:space="preserve">
<style type="text/css">
	.st0{fill:none;stroke:#FF5F00;stroke-width:3;stroke-linecap:round;stroke-linejoin:round;stroke-miterlimit:10;}
	.st1{fill:#FF5F00;}
	.st2{fill:none;stroke:#FF5F00;stroke-width:3;stroke-miterlimit:10;}
</style>
<g>
	<path class="st0" d="M62.3,36.8c0,0,12.2,10.2,8.6,29.8c-3.6,19.6-18.8,23.2-30.5,17.8S31.5,65,31.5,65S32.3,54.7,47,49
		S62.3,36.8,62.3,36.8z"/>
	<path class="st0" d="M28.5,88.1c0,0,28.8-19.9,32-35"/>
	<circle class="st1" cx="42.8" cy="58.4" r="1.7"/>
	<path class="st0" d="M40.1,61.5c0,0-3.9,3.1-2.9,8.5"/>
	<path class="st2" d="M101.8,48.2L54.3,7.9c-1-0.9-2.6-0.9-3.6,0L3.2,48.2c-2,1.7-0.8,4.9,1.8,4.9h10.3v38.3c0,3.5,2.9,6.4,6.4,6.4
		h61.6c3.5,0,6.4-2.9,6.4-6.4V53.1H100C102.6,53.1,103.8,49.9,101.8,48.2z"/>
</g>
</svg>
