<?xml version="1.0" encoding="utf-8"?>
<!-- Generator: Adobe Illustrator 26.3.1, SVG Export Plug-In . SVG Version: 6.00 Build 0)  -->
<svg version="1.1" id="Layer_1" xmlns="http://www.w3.org/2000/svg" xmlns:xlink="http://www.w3.org/1999/xlink" x="0px" y="0px"
	 viewBox="0 0 105 105" style="enable-background:new 0 0 105 105;" xml:space="preserve">
<style type="text/css">
	.st0{fill:none;stroke:#FF5F00;stroke-width:3;stroke-linecap:round;stroke-linejoin:round;stroke-miterlimit:10;}
	.st1{fill:#FF5F00;}
</style>
<path class="st0" d="M4.9,102.7c0,0,12.1-31.5,21-36.6s30.6-11.2,34.7-6.3S43.2,70.6,43.2,70.6s-6.5,3.2-6,4.7
	c0.5,1.5,29.3,0,35.1-3.5s21.4-19.3,26.5-18.1c5.1,1.2-5.8,20-21.4,27.8S41.8,82.1,31,103.2"/>
<path class="st0" d="M64.2,1.8c0,0,11.3,9.4,8,27.7C68.9,47.7,54.8,51,43.9,46s-8.3-18-8.3-18s0.8-9.6,14.3-14.9S64.2,1.8,64.2,1.8z
	"/>
<path class="st0" d="M32.9,49.4c0,0,26.7-18.5,29.7-32.5"/>
<circle class="st1" cx="46.4" cy="21.6" r="1.6"/>
<path class="st0" d="M43.6,24.7c0,0-3.7,2.9-2.7,7.9"/>
</svg>
