<?xml version="1.0" encoding="utf-8"?>
<!-- Generator: Adobe Illustrator 26.3.1, SVG Export Plug-In . SVG Version: 6.00 Build 0)  -->
<svg version="1.1" id="Layer_1" xmlns="http://www.w3.org/2000/svg" xmlns:xlink="http://www.w3.org/1999/xlink" x="0px" y="0px"
	 viewBox="0 0 105 105" style="enable-background:new 0 0 105 105;" xml:space="preserve">
<style type="text/css">
	.st0{fill:#1D2088;}
	.st1{fill:#FFFFFF;}
	.st2{fill:none;stroke:#FFF100;stroke-width:3;stroke-linecap:round;stroke-linejoin:round;stroke-miterlimit:10;}
	.st3{fill:none;stroke:#FFFFFF;stroke-width:3;stroke-linecap:round;stroke-linejoin:round;stroke-miterlimit:10;}
</style>
<g>
	<path class="st0" d="M52.9,94.6c-4.7,0-8.5-1.4-9.1-1.6c-1.3-0.4-18.7-6-27.3-10.1c-6.2-2.9-4.3-13-4.2-13.4l3.1-23.4l1.9,0.9
		c0.2,0.1,21,10.2,32,10.2c0.1,0,0.3,0,0.4,0c18.2-0.5,37.5-10.7,37.7-10.8l2-1.1l0.2,2.2c0,0.1,1.1,10.9,3.3,20.9
		C95,78.9,88.4,82,87.5,82.4v0c-0.2,0.1-19,8.1-27.8,11.1C57.6,94.3,55.3,94.6,52.9,94.6z"/>
	<path class="st1" d="M88,47.7c0,0,1.1,10.9,3.3,21.1c2.1,10-4.4,12.2-4.4,12.2S68,89,59.2,92.1c-2.2,0.8-4.3,1-6.3,1
		c-4.8,0-8.6-1.5-8.6-1.5s-18.4-5.9-27.2-10c-5.2-2.4-3.4-11.8-3.4-11.8l2.8-21.4c0,0,21.2,10.3,32.6,10.3c0.2,0,0.3,0,0.5,0
		C68.4,58.2,88,47.7,88,47.7 M90.5,42.9l-4,2.1c-0.3,0.1-19.2,10.2-37.1,10.6c-0.1,0-0.3,0-0.4,0c-10.6,0-31.1-9.9-31.3-10l-3.7-1.8
		L13.5,48l-2.8,21.3c-0.3,1.6-1.9,11.8,5.1,15c8.6,4,25.9,9.6,27.5,10.1c0.8,0.3,4.7,1.7,9.6,1.7c2.6,0,5.1-0.4,7.4-1.2
		c8.6-3,26.2-10.5,27.8-11.1c3.1-1.1,8.3-5.8,6.3-15.6C92.1,58.2,91,47.5,91,47.4L90.5,42.9L90.5,42.9z"/>
</g>
<circle class="st2" cx="30.1" cy="68.3" r="4.2"/>
<g>
	<path class="st0" d="M48.7,57.2c-3.7,0-7.1-0.5-10.2-1.5C29,52.3,4.9,41.7,3.9,41.3c-1.1-0.4-4.7-2-4.7-4.7c0-1.5,1.1-2.8,3.5-3.8
		l39.2-16.5c0.6-0.3,4.4-2.1,10.2-2.1c2.9,0,5.8,0.4,8.7,1.3c10.6,3.1,40,15.9,41.3,16.5c0.7,0.3,3.9,2,3.9,4.6
		c0,1.7-1.2,3.1-3.6,4.3C93.1,45.4,63.3,54.6,62,55C61.9,55.1,56,57.2,48.7,57.2z"/>
	<path class="st1" d="M52,15.8c2.4,0,5.2,0.3,8.3,1.2c10.6,3.1,41.1,16.4,41.1,16.4s6.6,3.1,0.3,6.2c-9.3,4.5-40.1,14-40.1,14
		s-5.7,2.1-12.9,2.1c-3.1,0-6.4-0.4-9.7-1.5C29.4,50.9,4.5,39.9,4.5,39.9s-7.7-3-1.3-5.7l39.2-16.5C42.4,17.7,46.1,15.8,52,15.8
		 M52,12.8L52,12.8c-6,0-10.1,1.8-10.9,2.2L2,31.4c-2.9,1.2-4.4,3-4.4,5.2c0,3.4,3.9,5.3,5.7,6C5,43.4,28.6,53.8,38,57
		c3.3,1.1,6.8,1.6,10.7,1.6c7.3,0,13.1-1.9,13.9-2.2c1.9-0.6,31.2-9.7,40.5-14.1c3-1.5,4.4-3.4,4.4-5.6c0-3.6-4-5.6-4.7-6l0,0l0,0
		c-1.3-0.5-30.8-13.4-41.5-16.5C58.1,13.2,55,12.8,52,12.8L52,12.8z"/>
</g>
<path class="st3" d="M42.3,22.5c0,0,5.4-4,12.6-2.6"/>
<path class="st2" d="M51.6,32.4c0,0-24.6,5.8-22,31.4"/>
<circle class="st1" cx="59.3" cy="20.3" r="1.7"/>
</svg>
