<?xml version="1.0" encoding="utf-8"?>
<!-- Generator: Adobe Illustrator 26.3.1, SVG Export Plug-In . SVG Version: 6.00 Build 0)  -->
<svg version="1.1" id="Layer_1" xmlns="http://www.w3.org/2000/svg" xmlns:xlink="http://www.w3.org/1999/xlink" x="0px" y="0px"
	 viewBox="0 0 112.9 109" style="enable-background:new 0 0 112.9 109;" xml:space="preserve">
<style type="text/css">
	.st0{fill:none;stroke:#FF5F00;stroke-width:3;stroke-linecap:round;stroke-linejoin:round;stroke-miterlimit:10;}
	.st1{fill:none;stroke:#FF5F00;stroke-width:2;stroke-linecap:round;stroke-linejoin:round;stroke-miterlimit:10;}
	.st2{fill:#FF5F00;}
</style>
<ellipse class="st0" cx="53.3" cy="56.9" rx="7.4" ry="7.3"/>
<ellipse class="st0" cx="57.3" cy="21.3" rx="7.4" ry="7.3"/>
<ellipse class="st0" cx="32.4" cy="29.1" rx="7.4" ry="7.3"/>
<ellipse class="st0" cx="19.2" cy="52.4" rx="7.4" ry="7.3"/>
<ellipse class="st0" cx="27.2" cy="76.9" rx="7.4" ry="7.3"/>
<ellipse class="st0" cx="49.2" cy="90.8" rx="7.4" ry="7.3"/>
<path class="st0" d="M89,50c0,0,8.3-5.6,2.7-11s-9.1-8.4-3.7-13.5c0,0-13.8,0.7-16,12.8s6.5,13,6.5,13L89,50z"/>
<path class="st0" d="M92.6,40.2c0,0-1.4,2.8-4.7,2.4c-3.3-0.5-6.6-5-9.4-2.6c-2.9,2.3-3.9,5.7-5.9,5"/>
<path class="st0" d="M90.7,101.2c0,0,17.3-36.8-1.7-51.2l-10.9,1c0,0-11.3,22,7.4,50C85.6,100.9,88.1,105.5,90.7,101.2z"/>
<path class="st1" d="M92.7,60.9c0,0-0.6-2.6-2.5-4.5"/>
<ellipse class="st2" cx="88.4" cy="54.2" rx="1" ry="1"/>
<path class="st0" d="M79.3,91.5c0,0-8.9,13-23.2,14.8c-35.2,3.2-71.1-43.2-42-79.6c0,0,35-46.6,78.5-11.3
	c33.3,32.8,6.1,52.8,6.1,52.8"/>
</svg>
