<?xml version="1.0" encoding="utf-8"?>
<!-- Generator: Adobe Illustrator 26.3.1, SVG Export Plug-In . SVG Version: 6.00 Build 0)  -->
<svg version="1.1" id="Layer_1" xmlns="http://www.w3.org/2000/svg" xmlns:xlink="http://www.w3.org/1999/xlink" x="0px" y="0px"
	 viewBox="0 0 105 105" style="enable-background:new 0 0 105 105;" xml:space="preserve">
<style type="text/css">
	.st0{fill:none;stroke:#FF5F00;stroke-width:3;stroke-linecap:round;stroke-linejoin:round;stroke-miterlimit:10;}
	.st1{fill:#FF5F00;}
</style>
<g>
	<path class="st0" d="M19,45.6l-2.7,20.5c0,0-1.7,9,3.3,11.3C28,81.3,45.7,87,45.7,87s7.3,3,14.3,0.5c8.4-3.1,26.5-10.8,26.5-10.8
		s6.2-2.1,4.2-11.7c-2.1-9.8-3.2-20.2-3.2-20.2"/>
	<circle class="st0" cx="31.7" cy="66.8" r="4"/>
	<path class="st0" d="M3.8,34.1l38.7-15.8c0,0,7.2-3.6,17.7-0.7s40.6,15.7,40.6,15.7s6.5,3,0.3,5.9c-9.2,4.3-39.6,13.4-39.6,13.4
		S50,56.7,39.2,53.2C29.7,50.1,5.1,39.5,5.1,39.5S-2.5,36.6,3.8,34.1z"/>
	<path class="st0" d="M41.9,24.1c0,0,5.2-3.8,12.1-2.5"/>
	<path class="st0" d="M52.3,32.5c0,0-23.6,5.6-21.1,30.1"/>
	<circle class="st1" cx="58.1" cy="22" r="1.6"/>
</g>
</svg>
