<?xml version="1.0" encoding="utf-8"?>
<!-- Generator: Adobe Illustrator 26.3.1, SVG Export Plug-In . SVG Version: 6.00 Build 0)  -->
<svg version="1.1" id="Layer_1" xmlns="http://www.w3.org/2000/svg" xmlns:xlink="http://www.w3.org/1999/xlink" x="0px" y="0px"
	 viewBox="0 0 10 10" style="enable-background:new 0 0 10 10;" xml:space="preserve">
<style type="text/css">
	.st0{fill:#FFFFFF;}
</style>
<g>
	<path class="st0" d="M7.1,0H2.9C1.3,0,0,1.3,0,2.9v4.2C0,8.7,1.3,10,2.9,10h4.2C8.7,10,10,8.7,10,7.1V2.9C10,1.3,8.7,0,7.1,0
		 M9.1,7.2c0,1.1-0.8,1.9-1.9,1.9H2.8c-1.1,0-1.9-0.8-1.9-1.9V2.8c0-1.1,0.9-1.9,1.9-1.9h4.3c1.1,0,1.9,0.8,1.9,1.9V7.2z"/>
	<path class="st0" d="M5,2.5c-1.4,0-2.6,1.2-2.6,2.6S3.5,7.7,5,7.7c1.4,0,2.6-1.2,2.6-2.6S6.4,2.5,5,2.5 M5,6.7C4,6.7,3.3,6,3.3,5
		S4,3.3,5,3.3S6.7,4.1,6.7,5S5.9,6.7,5,6.7"/>
	<path class="st0" d="M7.7,1.7C7.4,1.7,7.1,2,7.1,2.3s0.3,0.6,0.6,0.6c0.3,0,0.6-0.3,0.6-0.6S8,1.7,7.7,1.7"/>
</g>
</svg>
