<?xml version="1.0" encoding="utf-8"?>
<!-- Generator: Adobe Illustrator 26.0.3, SVG Export Plug-In . SVG Version: 6.00 Build 0)  -->
<svg version="1.1" id="Layer_1" xmlns="http://www.w3.org/2000/svg" xmlns:xlink="http://www.w3.org/1999/xlink" x="0px" y="0px"
	 viewBox="0 0 1920 1200" style="enable-background:new 0 0 1920 1200;" xml:space="preserve">
<style type="text/css">
	.st0{fill:none;}
	.st1{fill:#DBDCDC;}
	.st2{opacity:0.2;fill:url(#New_Pattern_Swatch_3);}
</style>
<pattern  y="1200" width="660" height="502.5" patternUnits="userSpaceOnUse" id="New_Pattern_Swatch_3" viewBox="0 -529.1 660 502.5" style="overflow:visible;">
	<g>
		<rect y="-529.1" class="st0" width="660" height="502.5"/>
		<g>
			<g>
				<path class="st1" d="M463.2-28c1.3,0.6,2.7,1.1,4.3,1.6c1.3,0.4,2.7,0.6,4,0.8c1.3,0.1,2.8,0,4.3-0.2c0.4-0.1,0.9-0.3,1.4-0.6
					c0.5-0.3,0.7-0.8,0.7-1.4s-0.4-1-0.8-1.1s-1-0.2-1.6-0.1c-0.9,0.2-2,0.2-3.2,0.1c-1.2-0.1-2.5-0.3-3.8-0.7
					c-1.5-0.4-2.9-0.9-4.2-1.5c-1.3-0.6-2.3-1.2-2.9-1.8c-0.3-0.3-0.7-0.5-1.1-0.6c-0.4-0.1-0.8,0.1-1.1,0.4
					c-0.3,0.3-0.4,0.8-0.3,1.3c0.1,0.5,0.4,1,0.9,1.5C460.7-29.4,461.9-28.6,463.2-28z"/>
				<path class="st1" d="M481.8-26.5c-0.5,2-1.1,3.6-1.7,4.8s-1.1,2.2-1.8,3.2c-0.5,0.8-1.1,1.6-1.8,2.2c-0.6,0.6-1.3,1.3-2.1,1.9
					c-0.4,0.3-0.9,0.5-1.5,0.8c-0.6,0.3-1.4,0.5-2.3,0.6c-0.9,0.1-1.9,0.2-2.9,0.2c-1.1,0-2.2-0.2-3.3-0.5c-2.9-0.8-5-1.7-6.5-2.8
					c-1.4-1.1-2.5-2.4-3.2-3.9c-0.6-1.2-1-2.6-1.3-4.1c-0.3-1.5-0.2-3.4,0.1-5.5c0.2-1.1,0.4-2.1,0.8-3.1c0.3-1,0.7-1.9,1.1-2.8
					c0.2-0.4,0.4-0.9,0.8-1.5c0.4-0.6,0.7-1.2,1.2-1.8c0.4-0.6,0.9-1.1,1.3-1.7s0.8-1,1.1-1.3c0.7-0.9,1.4-1.6,2-2.2
					c0.6-0.6,1.4-1.2,2.2-1.7c1-0.6,2.2-1,3.5-1.1c1.3-0.1,2.7-0.1,4.4,0c0.7-0.8,1.4-1.7,2-2.7c0.6-1,1.3-1.9,2-2.8
					c0.5-0.6,0.9-0.9,1.3-0.9c0.4,0,0.8,0.1,1.3,0.4c0.2,0.1,0.4,0.3,0.4,0.6c0,0.2,0,0.5-0.1,0.8c-0.1,0.3-0.2,0.6-0.4,0.9
					c-0.2,0.3-0.3,0.5-0.4,0.8c-0.4,0.7-0.9,1.3-1.4,2c-0.5,0.7-0.9,1.4-1.4,2c1.1,0.3,2.1,0.7,3,1.2c0.9,0.5,1.6,1,2,1.5
					c0.3,0.3,0.6,0.7,0.9,1.2c0.3,0.5,0.6,1,0.6,1.4c0.3,1.1,0.5,2.3,0.6,3.5c0.1,1.2,0.2,2.5,0.2,3.7c0,1.3-0.1,2.5-0.2,3.6
					C482.3-28.6,482.1-27.5,481.8-26.5z M465.8-43c0.3,0.3,0.7,0.6,1.2,0.9c0.7,0.4,1.4,0.7,2.2,1s1.6,0.5,2.4,0.6
					c0.4,0.1,0.9,0.2,1.5,0.3c0.5,0.1,1.1,0.1,1.6,0.2c0.5,0.1,1,0.1,1.5,0.1c0.5,0,0.9,0,1.2-0.1c0.7-0.1,1-0.4,0.9-0.9
					c-0.1-0.5-0.4-0.9-0.9-1.3c-0.2-0.1-0.4-0.3-0.8-0.4c-0.3-0.2-0.7-0.3-1.1-0.5c-0.4-0.2-0.7-0.3-1-0.4c-0.3-0.1-0.6-0.2-0.7-0.2
					c-0.5,0.6-1,1.1-1.5,1.4c-0.5,0.3-1,0.3-1.4,0c-0.5-0.2-0.7-0.6-0.7-1s0.1-0.9,0.4-1.4c-0.3-0.1-0.8-0.1-1.3-0.1
					c-0.5,0-1.1,0-1.6,0c-0.5,0.1-1,0.2-1.4,0.3c-0.4,0.1-0.7,0.3-0.8,0.6C465.4-43.6,465.5-43.3,465.8-43z M478.5-27
					c0.2-0.8,0.4-1.7,0.5-2.7c0.1-1,0.1-2,0.1-3c0-1,0-1.9-0.1-2.7c-0.1-0.8-0.2-1.4-0.4-1.8c-1.2,0.3-2.5,0.4-3.9,0.3
					c-1.4-0.1-2.7-0.3-3.9-0.5c-1.3-0.3-2.7-0.7-4-1.2c-1.3-0.5-2.4-1.2-3.3-2.1c-1.2,1.3-2.4,2.6-3.4,4c-1.1,1.4-1.9,2.9-2.4,4.6
					c-0.3,0.9-0.5,1.6-0.6,2.4c-0.2,1-0.3,1.9-0.3,2.9c0,0.9,0,1.9,0.2,2.9c0,0.6,0.2,1.1,0.3,1.5c0.2,0.5,0.4,0.9,0.6,1.3
					c0.5,0.9,1.3,1.8,2.2,2.6c1,0.8,2.4,1.5,4.5,2c1.9,0.5,4,0.5,6.1,0c0.8-0.2,1.4-0.6,2-1s1.1-0.9,1.6-1.5c1.1-1.2,2-2.4,2.6-3.7
					C477.6-24.1,478.1-25.5,478.5-27z"/>
			</g>
		</g>
		<g>
			<g>
				<path class="st1" d="M243.2-111.7c1.3,0.6,2.7,1.1,4.3,1.6c1.3,0.4,2.7,0.6,4,0.8c1.3,0.1,2.8,0,4.3-0.2
					c0.4-0.1,0.9-0.3,1.4-0.6c0.5-0.3,0.7-0.8,0.7-1.4c-0.1-0.6-0.4-1-0.8-1.1c-0.5-0.1-1-0.2-1.6-0.1c-0.9,0.2-2,0.2-3.2,0.1
					c-1.2-0.1-2.5-0.3-3.8-0.7c-1.5-0.4-2.9-0.9-4.2-1.5c-1.3-0.6-2.3-1.2-2.9-1.8c-0.3-0.3-0.7-0.5-1.1-0.6
					c-0.4-0.1-0.8,0.1-1.1,0.4c-0.3,0.3-0.4,0.8-0.3,1.3c0.1,0.5,0.4,1,0.9,1.5C240.7-113.1,241.9-112.3,243.2-111.7z"/>
				<path class="st1" d="M261.8-110.3c-0.5,2-1.1,3.6-1.7,4.8s-1.1,2.2-1.8,3.2c-0.5,0.8-1.1,1.6-1.8,2.2c-0.6,0.6-1.3,1.3-2.1,1.9
					c-0.4,0.3-0.9,0.5-1.5,0.8c-0.6,0.3-1.4,0.5-2.3,0.6c-0.9,0.1-1.9,0.2-2.9,0.2c-1.1,0-2.2-0.2-3.3-0.5c-2.9-0.8-5-1.7-6.5-2.8
					c-1.4-1.1-2.5-2.4-3.2-3.9c-0.6-1.2-1-2.6-1.3-4.1c-0.3-1.5-0.2-3.4,0.1-5.5c0.2-1.1,0.4-2.1,0.8-3.1s0.7-1.9,1.1-2.8
					c0.2-0.4,0.4-0.9,0.8-1.5c0.4-0.6,0.7-1.2,1.2-1.8s0.9-1.1,1.3-1.7c0.4-0.6,0.8-1,1.1-1.3c0.7-0.9,1.4-1.6,2-2.2
					c0.6-0.6,1.4-1.2,2.2-1.7c1-0.6,2.2-1,3.5-1.1c1.3-0.1,2.7-0.1,4.4,0c0.7-0.8,1.4-1.7,2-2.7c0.6-1,1.3-1.9,2-2.8
					c0.5-0.6,0.9-0.9,1.3-0.9c0.4,0,0.8,0.1,1.3,0.4c0.2,0.1,0.4,0.3,0.4,0.6c0,0.2,0,0.5-0.1,0.8c-0.1,0.3-0.2,0.6-0.4,0.9
					c-0.2,0.3-0.3,0.5-0.4,0.8c-0.4,0.7-0.9,1.3-1.4,2s-0.9,1.4-1.4,2c1.1,0.3,2.1,0.7,3,1.2c0.9,0.5,1.6,1,2,1.5
					c0.3,0.3,0.6,0.7,0.9,1.2c0.3,0.5,0.6,1,0.6,1.4c0.3,1.1,0.5,2.3,0.6,3.5c0.1,1.2,0.2,2.5,0.2,3.7c0,1.3-0.1,2.5-0.2,3.6
					C262.3-112.3,262.1-111.3,261.8-110.3z M245.8-126.7c0.3,0.3,0.7,0.6,1.2,0.9c0.7,0.4,1.4,0.7,2.2,1s1.6,0.5,2.4,0.6
					c0.4,0.1,0.9,0.2,1.5,0.3c0.5,0.1,1.1,0.1,1.6,0.2c0.5,0.1,1,0.1,1.5,0.1c0.5,0,0.9,0,1.2-0.1c0.7-0.1,1-0.4,0.9-0.9
					c-0.1-0.5-0.4-0.9-0.9-1.3c-0.2-0.1-0.4-0.3-0.8-0.4c-0.3-0.2-0.7-0.3-1.1-0.5c-0.4-0.2-0.7-0.3-1-0.4c-0.3-0.1-0.6-0.2-0.7-0.2
					c-0.5,0.6-1,1.1-1.5,1.4c-0.5,0.3-1,0.3-1.4,0c-0.5-0.2-0.7-0.6-0.7-1c0-0.4,0.1-0.9,0.4-1.4c-0.3-0.1-0.8-0.1-1.3-0.1
					c-0.5,0-1.1,0-1.6,0c-0.5,0.1-1,0.2-1.4,0.3c-0.4,0.1-0.7,0.3-0.8,0.6C245.4-127.4,245.5-127,245.8-126.7z M258.5-110.8
					c0.2-0.8,0.4-1.7,0.5-2.7c0.1-1,0.1-2,0.1-3c0-1,0-1.9-0.1-2.7c-0.1-0.8-0.2-1.4-0.4-1.8c-1.2,0.3-2.5,0.4-3.9,0.3
					c-1.4-0.1-2.7-0.3-3.9-0.5c-1.3-0.3-2.7-0.7-4-1.2c-1.3-0.5-2.4-1.2-3.3-2.1c-1.2,1.3-2.4,2.6-3.4,4c-1.1,1.4-1.9,2.9-2.4,4.6
					c-0.3,0.9-0.5,1.6-0.6,2.4c-0.2,1-0.3,1.9-0.3,2.9c0,0.9,0,1.9,0.2,2.9c0,0.6,0.2,1.1,0.3,1.5c0.2,0.5,0.4,0.9,0.6,1.3
					c0.5,0.9,1.3,1.8,2.2,2.6c1,0.8,2.4,1.5,4.5,2c1.9,0.5,4,0.5,6.1,0c0.8-0.2,1.4-0.6,2-1s1.1-0.9,1.6-1.5c1.1-1.2,2-2.4,2.6-3.7
					C257.6-107.8,258.1-109.2,258.5-110.8z"/>
			</g>
			<path class="st1" d="M339.6-28.1c-0.4,1.4-1,2.8-1.6,4.3c-0.5,1.2-1,2.4-1.6,3.7c-0.6,1.2-1.2,2.5-1.7,3.7
				c-0.7,1.6-1.5,2.8-2.5,3.8c-1,0.9-2.2,1.6-3.7,2.1c-0.5,1-0.9,2.1-1.4,3.2c-0.4,1.1-0.9,2.1-1.4,3c-0.4,1.1-0.9,2-1.5,2.7
				c-0.9,0.9-1.9,1.4-3.3,1.4c-0.5-0.1-1.1-0.4-1.6-0.7c-0.6-0.3-1-0.6-1.3-0.9c-0.2-0.1-0.3-0.3-0.5-0.6c-0.2-0.3-0.3-0.5-0.5-0.8
				c-0.1-0.3-0.2-0.6-0.3-0.9c0-0.3,0-0.5,0.1-0.7c0.7-1.7,1.3-3.1,1.9-4.3c0.6-1.2,1.3-2.5,2-4c-0.9-0.6-1.4-1-1.7-1.3
				s-0.6-0.6-0.8-1c-0.3-0.2-0.6-0.7-0.8-1.3c-0.2-0.6-0.1-1.3,0.2-2.1c0.2-0.4,0.5-1.1,0.9-2c0.4-0.9,0.9-2.1,1.6-3.7
				c0.7-1.8,1.4-3.6,1.9-5.4c0.5-1.8,1-3.8,1.4-6c0.1-0.5,0.4-1.2,0.8-1.9c0.7-1,1.6-1.8,2.5-2.4s1.8-1.1,2.5-1.5
				c1-0.6,1.9-0.8,2.7-0.4c0.5,0.2,1.1,0.6,1.7,0.9c0.6,0.4,1.2,0.8,1.8,1.2c0.6,0.4,1.1,0.8,1.6,1.2c0.5,0.4,0.9,0.8,1.2,1.1
				c1,1,1.7,2,1.9,2.9c0.2,0.9,0.3,1.9,0.1,3C340.3-30.8,340-29.5,339.6-28.1z M325.2-10.9l-1.7-1.1c-0.4,0.6-0.9,1.7-1.7,3.2
				c-0.8,1.5-1.6,3.1-2.4,4.9c0.3,0.3,0.6,0.5,0.9,0.7c0.3,0.1,0.6,0.3,0.9,0.5c0.3-0.5,0.6-1.1,1-1.9s0.8-1.6,1.2-2.4
				c0.4-0.8,0.8-1.6,1.1-2.3C324.9-10.1,325.2-10.6,325.2-10.9z M331.1-30.6c-0.2-0.2-0.5-0.5-0.9-0.7c-0.4-0.2-0.8-0.5-1.2-0.8
				c-0.4-0.2-0.8-0.5-1.3-0.7s-0.8-0.4-1.1-0.5c-0.6,2-1.3,4.1-2.1,6.1c-0.8,2-1.5,4-2.3,5.9c-0.3,0.6-0.5,1.2-0.8,1.6
				c-0.2,0.4-0.4,0.9-0.6,1.5c-0.1,0.3-0.1,0.5,0,0.8c0.1,0.3,0.2,0.5,0.4,0.7c0,0.1,0.2,0.2,0.6,0.5c0.4,0.3,0.8,0.6,1.2,0.9
				c0.4,0.3,0.8,0.6,1.1,0.8c0.4,0.2,0.5,0.3,0.6,0.2c0.6-1.5,1.2-2.9,1.7-4.1c0.5-1.2,0.9-2.3,1.4-3.5c0.4-1.2,0.9-2.5,1.4-3.8
				C329.8-26.9,330.4-28.6,331.1-30.6z M332.6-32.6c1.1-0.7,2.1-1.4,2.9-2c0.8-0.7,1.3-1.1,1.6-1.4c-0.7-0.7-1.5-1.3-2.2-1.9
				c-0.8-0.6-1.5-1.1-2.2-1.5c-0.7-0.4-1.2-0.5-1.7-0.4c-0.4,0.1-0.8,0.3-1.2,0.5c-0.5,0.5-1.1,1-1.7,1.4c-0.6,0.4-1.2,1-1.8,1.7
				c1.1,0.8,2.2,1.4,3.4,2C330.8-33.5,331.8-33,332.6-32.6z M338.6-32.8l-3.3,2.2c-1.5,3.5-2.8,6.8-4,9.7c-1.1,2.9-2.6,5.6-3.3,7.6
				c0.5-0.2,1.6-0.6,2-0.8c0.4-0.2,0.8-0.4,1.1-0.6c0.4-0.6,0.8-1.4,1.3-2.5c0.5-1,1.1-2.2,1.6-3.4c0.6-1.2,1.1-2.4,1.6-3.6
				c0.5-1.2,0.9-2.2,1.3-3.1c0.3-0.9,0.6-1.8,0.9-2.7C338.1-30.8,338.3-31.9,338.6-32.8z"/>
		</g>
		<g>
			<g>
				<path class="st1" d="M23.2-195.5c1.3,0.6,2.7,1.1,4.3,1.6c1.3,0.4,2.7,0.6,4,0.8c1.3,0.1,2.8,0,4.3-0.2c0.4-0.1,0.9-0.3,1.4-0.6
					c0.5-0.3,0.7-0.8,0.7-1.4s-0.4-1-0.8-1.1c-0.5-0.1-1-0.2-1.6-0.1c-0.9,0.2-2,0.2-3.2,0.1c-1.2-0.1-2.5-0.3-3.8-0.7
					c-1.5-0.4-2.9-0.9-4.2-1.5c-1.3-0.6-2.3-1.2-2.9-1.8c-0.3-0.3-0.7-0.5-1.1-0.6c-0.4-0.1-0.8,0.1-1.1,0.4
					c-0.3,0.3-0.4,0.8-0.3,1.3c0.1,0.5,0.4,1,0.9,1.5C20.7-196.9,21.9-196.1,23.2-195.5z"/>
				<path class="st1" d="M41.8-194c-0.5,2-1.1,3.6-1.7,4.8c-0.6,1.1-1.1,2.2-1.8,3.2c-0.5,0.8-1.1,1.6-1.8,2.2
					c-0.6,0.6-1.3,1.3-2.1,1.9c-0.4,0.3-0.9,0.5-1.5,0.8c-0.6,0.3-1.4,0.5-2.3,0.6c-0.9,0.1-1.9,0.2-2.9,0.2c-1.1,0-2.2-0.2-3.3-0.5
					c-2.9-0.8-5-1.7-6.5-2.8c-1.4-1.1-2.5-2.4-3.2-3.9c-0.6-1.2-1-2.6-1.3-4.1c-0.3-1.5-0.2-3.4,0.1-5.5c0.2-1.1,0.4-2.1,0.8-3.1
					c0.3-1,0.7-1.9,1.1-2.8c0.2-0.4,0.4-0.9,0.8-1.5c0.4-0.6,0.7-1.2,1.2-1.8c0.4-0.6,0.9-1.1,1.3-1.7c0.4-0.6,0.8-1,1.1-1.3
					c0.7-0.9,1.4-1.6,2-2.2c0.6-0.6,1.4-1.2,2.2-1.7c1-0.6,2.2-1,3.5-1.1c1.3-0.1,2.7-0.1,4.4,0c0.7-0.8,1.4-1.7,2-2.7
					c0.6-1,1.3-1.9,2-2.8c0.5-0.6,0.9-0.9,1.3-0.9c0.4,0,0.8,0.1,1.3,0.4c0.2,0.1,0.4,0.3,0.4,0.6c0,0.2,0,0.5-0.1,0.8
					c-0.1,0.3-0.2,0.6-0.4,0.9c-0.2,0.3-0.3,0.5-0.4,0.8c-0.4,0.7-0.9,1.3-1.4,2s-0.9,1.4-1.4,2c1.1,0.3,2.1,0.7,3,1.2s1.6,1,2,1.5
					c0.3,0.3,0.6,0.7,0.9,1.2c0.3,0.5,0.6,1,0.6,1.4c0.3,1.1,0.5,2.3,0.6,3.5c0.1,1.2,0.2,2.5,0.2,3.7c0,1.3-0.1,2.5-0.2,3.6
					C42.3-196.1,42.1-195,41.8-194z M25.8-210.4c0.3,0.3,0.7,0.6,1.2,0.9c0.7,0.4,1.4,0.7,2.2,1s1.6,0.5,2.4,0.6
					c0.4,0.1,0.9,0.2,1.5,0.3c0.5,0.1,1.1,0.1,1.6,0.2c0.5,0.1,1,0.1,1.5,0.1c0.5,0,0.9,0,1.2-0.1c0.7-0.1,1-0.4,0.9-0.9
					c-0.1-0.5-0.4-0.9-0.9-1.3c-0.2-0.1-0.4-0.3-0.8-0.4s-0.7-0.3-1.1-0.5c-0.4-0.2-0.7-0.3-1-0.4c-0.3-0.1-0.6-0.2-0.7-0.2
					c-0.5,0.6-1,1.1-1.5,1.4c-0.5,0.3-1,0.3-1.4,0c-0.5-0.2-0.7-0.6-0.7-1c0-0.4,0.1-0.9,0.4-1.4c-0.3-0.1-0.8-0.1-1.3-0.1
					c-0.5,0-1.1,0-1.6,0c-0.5,0.1-1,0.2-1.4,0.3c-0.4,0.1-0.7,0.3-0.8,0.6C25.4-211.1,25.5-210.8,25.8-210.4z M38.5-194.5
					c0.2-0.8,0.4-1.7,0.5-2.7c0.1-1,0.1-2,0.1-3s0-1.9-0.1-2.7c-0.1-0.8-0.2-1.4-0.4-1.8c-1.2,0.3-2.5,0.4-3.9,0.3
					c-1.4-0.1-2.7-0.3-3.9-0.5c-1.3-0.3-2.7-0.7-4-1.2c-1.3-0.5-2.4-1.2-3.3-2.1c-1.2,1.3-2.4,2.6-3.4,4c-1.1,1.4-1.9,2.9-2.4,4.6
					c-0.3,0.9-0.5,1.6-0.6,2.4c-0.2,1-0.3,1.9-0.3,2.9c0,0.9,0,1.9,0.2,2.9c0,0.6,0.2,1.1,0.3,1.5c0.2,0.5,0.4,0.9,0.6,1.3
					c0.5,0.9,1.3,1.8,2.2,2.6c1,0.8,2.4,1.5,4.5,2c1.9,0.5,4,0.5,6.1,0c0.8-0.2,1.4-0.6,2-1s1.1-0.9,1.6-1.5c1.1-1.2,2-2.4,2.6-3.7
					C37.6-191.6,38.1-193,38.5-194.5z"/>
			</g>
			<path class="st1" d="M119.6-111.9c-0.4,1.4-1,2.8-1.6,4.3c-0.5,1.2-1,2.4-1.6,3.7c-0.6,1.2-1.2,2.5-1.7,3.7
				c-0.7,1.6-1.5,2.8-2.5,3.8c-1,0.9-2.2,1.6-3.7,2.1c-0.5,1-0.9,2.1-1.4,3.2c-0.4,1.1-0.9,2.1-1.4,3c-0.4,1.1-0.9,2-1.5,2.7
				c-0.9,0.9-1.9,1.4-3.3,1.4c-0.5-0.1-1.1-0.4-1.6-0.7c-0.6-0.3-1-0.6-1.3-0.9c-0.2-0.1-0.3-0.3-0.5-0.6c-0.2-0.3-0.3-0.5-0.5-0.8
				c-0.1-0.3-0.2-0.6-0.3-0.9c0-0.3,0-0.5,0.1-0.7c0.7-1.7,1.3-3.1,1.9-4.3c0.6-1.2,1.3-2.5,2-4c-0.9-0.6-1.4-1-1.7-1.3
				c-0.3-0.3-0.6-0.6-0.8-1c-0.3-0.2-0.6-0.7-0.8-1.3s-0.1-1.3,0.2-2.1c0.2-0.4,0.5-1.1,0.9-2c0.4-0.9,0.9-2.1,1.6-3.7
				c0.7-1.8,1.4-3.6,1.9-5.4c0.5-1.8,1-3.8,1.4-6c0.1-0.5,0.4-1.2,0.8-1.9c0.7-1,1.6-1.8,2.5-2.4c1-0.6,1.8-1.1,2.5-1.5
				c1-0.6,1.9-0.8,2.7-0.4c0.5,0.2,1.1,0.6,1.7,0.9c0.6,0.4,1.2,0.8,1.8,1.2c0.6,0.4,1.1,0.8,1.6,1.2c0.5,0.4,0.9,0.8,1.2,1.1
				c1,1,1.7,2,1.9,2.9c0.2,0.9,0.3,1.9,0.1,3C120.3-114.6,120-113.2,119.6-111.9z M105.2-94.7l-1.7-1.1c-0.4,0.6-0.9,1.7-1.7,3.2
				c-0.8,1.5-1.6,3.1-2.4,4.9c0.3,0.3,0.6,0.5,0.9,0.7c0.3,0.1,0.6,0.3,0.9,0.5c0.3-0.5,0.6-1.1,1-1.9c0.4-0.8,0.8-1.6,1.2-2.4
				c0.4-0.8,0.8-1.6,1.1-2.3C104.9-93.8,105.2-94.4,105.2-94.7z M111.1-114.3c-0.2-0.2-0.5-0.5-0.9-0.7c-0.4-0.2-0.8-0.5-1.2-0.8
				c-0.4-0.2-0.8-0.5-1.3-0.7c-0.4-0.2-0.8-0.4-1.1-0.5c-0.6,2-1.3,4.1-2.1,6.1c-0.8,2-1.5,4-2.3,5.9c-0.3,0.6-0.5,1.2-0.8,1.6
				c-0.2,0.4-0.4,0.9-0.6,1.5c-0.1,0.3-0.1,0.5,0,0.8c0.1,0.3,0.2,0.5,0.4,0.7c0,0.1,0.2,0.2,0.6,0.5c0.4,0.3,0.8,0.6,1.2,0.9
				s0.8,0.6,1.1,0.8c0.4,0.2,0.5,0.3,0.6,0.2c0.6-1.5,1.2-2.9,1.7-4.1s0.9-2.3,1.4-3.5c0.4-1.2,0.9-2.5,1.4-3.8
				C109.8-110.7,110.4-112.3,111.1-114.3z M112.6-116.3c1.1-0.7,2.1-1.4,2.9-2c0.8-0.7,1.3-1.1,1.6-1.4c-0.7-0.7-1.5-1.3-2.2-1.9
				c-0.8-0.6-1.5-1.1-2.2-1.5c-0.7-0.4-1.2-0.5-1.7-0.4c-0.4,0.1-0.8,0.3-1.2,0.5c-0.5,0.5-1.1,1-1.7,1.4c-0.6,0.4-1.2,1-1.8,1.7
				c1.1,0.8,2.2,1.4,3.4,2C110.8-117.3,111.8-116.8,112.6-116.3z M118.6-116.5l-3.3,2.2c-1.5,3.5-2.8,6.8-4,9.7
				c-1.1,2.9-2.6,5.6-3.3,7.6c0.5-0.2,1.6-0.6,2-0.8c0.4-0.2,0.8-0.4,1.1-0.6c0.4-0.6,0.8-1.4,1.3-2.5c0.5-1,1.1-2.2,1.6-3.4
				c0.6-1.2,1.1-2.4,1.6-3.6c0.5-1.2,0.9-2.2,1.3-3.1c0.3-0.9,0.6-1.8,0.9-2.7C118.1-114.6,118.3-115.6,118.6-116.5z"/>
			<g>
				<path class="st1" d="M206.2-20.5c-0.2,0.4-0.4,0.8-0.7,1.3c-0.2,0.5-0.5,0.9-0.8,1.4s-0.6,0.8-1,1.1c-0.3,0.3-0.7,0.5-1.2,0.5
					c-0.3,0.7-0.5,1.3-0.7,1.7c-0.2,0.5-0.4,1-0.7,1.7c-0.7,1.7-1.3,3.2-1.9,4.7c-0.6,1.5-1.2,3-1.9,4.5c-0.4,0.9-0.8,1.6-1.3,2.1
					c-0.5,0.5-1.1,0.8-1.8,1c-1.4,0.4-3,0.5-4.8,0.4c-1.8-0.1-3.5-0.3-5-0.6c-1-0.3-2-0.6-3.1-1s-2.1-0.9-3-1.4s-1.8-1.1-2.6-1.7
					C175-5.4,174.4-6,174-6.6c-0.5-0.8-0.7-1.6-0.8-2.3c0-1,0.1-2,0.4-3c0.2-0.9,0.4-1.9,0.6-2.9c0.2-0.8,0.3-1.6,0.5-2.4
					c0.2-0.8,0.3-1.6,0.4-2.5c0.1-0.6,0.2-1.2,0.3-1.9c0.1-0.7,0.2-1.3,0.3-1.9c-0.2-0.2-0.4-0.5-0.6-0.7c-0.2-0.3-0.3-0.6-0.5-1
					c-0.1-0.4-0.2-1-0.2-1.6s0.1-1.4,0.2-2.4c0.1-0.8,0.4-1.5,0.8-2.1c0.4-0.6,1-1.1,1.7-1.3c1.2-0.5,2.6-0.8,4-0.9s2.8-0.1,4.2,0.1
					c1.4,0.1,2.8,0.4,4.2,0.7c1.4,0.3,2.7,0.6,4,1c1.3,0.3,2.6,0.8,3.8,1.3c1.3,0.5,2.5,1.1,3.6,1.7c1.1,0.6,2.2,1.3,3.1,2.1
					c0.9,0.8,1.6,1.6,2.2,2.4c0.4,0.6,0.5,1.2,0.5,1.9C206.6-21.7,206.5-21.1,206.2-20.5z M179.5-29.6c2.1,1.3,4.1,2.2,5.9,2.7
					c1.8,0.5,3.5,1,5.1,1.5c0.8,0.2,1.8,0.4,2.8,0.7c1,0.2,2.1,0.4,3.2,0.6c1.1,0.2,2.1,0.3,3.1,0.4s1.9,0.1,2.6,0.2
					c0.6,0,0.9-0.1,0.8-0.4s-0.3-0.5-0.6-0.8c-0.7-0.5-1.5-1-2.4-1.5c-0.9-0.5-1.8-0.9-2.7-1.3c-0.9-0.4-1.8-0.8-2.7-1.1
					c-0.9-0.3-1.7-0.6-2.4-0.8c-2.6-0.7-5-1.2-7.1-1.6c-2.1-0.3-3.9-0.3-5.4,0c-0.3,0.1-0.5,0.2-0.8,0.5
					C178.9-30.1,179-29.9,179.5-29.6z M200-16.4c-1.8,0-3.6-0.1-5.4-0.3c-1.7-0.3-3.5-0.6-5.3-1.1c-1.4-0.4-3-0.9-4.7-1.4
					c-1.7-0.6-3.9-1.6-6.5-3c-0.4,2.2-0.8,4.1-1.2,5.9c-0.4,1.8-0.8,3.7-1.1,5.8c0,0.6-0.1,1.1,0,1.5c0,0.4,0.2,0.8,0.6,1.2
					c1.2,1.2,2.6,2.2,4.1,2.9c1.5,0.7,3,1.3,4.4,1.6c1.7,0.5,3.3,0.7,4.6,0.7c1.4,0,2.6-0.1,3.7-0.4c0.5-0.1,0.9-0.4,1.3-0.7
					c0.4-0.3,0.7-0.8,1-1.5c0.6-1.4,1.2-2.6,1.6-3.8c0.5-1.2,0.9-2.4,1.4-3.6L200-16.4z M203.6-21.3c-2.3,0-4.6-0.1-6.9-0.4
					c-2.3-0.3-4.5-0.7-6.6-1.3c-3-0.8-5.6-1.7-7.8-2.7c-2.1-1-4.1-2.1-5.8-3.2c-0.1,0.9-0.1,1.7-0.2,2.2s0.4,1.1,1.1,1.5
					c1.9,1.3,3.9,2.3,5.9,3s4,1.4,5.9,1.8c1.9,0.5,3.8,0.8,5.8,1.2c2,0.3,3.7,0.5,5.3,0.5c1,0,1.8-0.3,2.2-0.8
					C203-20.1,203.3-20.7,203.6-21.3z"/>
			</g>
		</g>
		<g>
			<g>
				<path class="st1" d="M463.2-279.2c1.3,0.6,2.7,1.1,4.3,1.6c1.3,0.4,2.7,0.6,4,0.8c1.3,0.1,2.8,0,4.3-0.2
					c0.4-0.1,0.9-0.3,1.4-0.6c0.5-0.3,0.7-0.8,0.7-1.4s-0.4-1-0.8-1.1s-1-0.2-1.6-0.1c-0.9,0.2-2,0.2-3.2,0.1
					c-1.2-0.1-2.5-0.3-3.8-0.7c-1.5-0.4-2.9-0.9-4.2-1.5c-1.3-0.6-2.3-1.2-2.9-1.8c-0.3-0.3-0.7-0.5-1.1-0.6
					c-0.4-0.1-0.8,0.1-1.1,0.4c-0.3,0.3-0.4,0.8-0.3,1.3s0.4,1,0.9,1.5C460.7-280.6,461.9-279.8,463.2-279.2z"/>
				<path class="st1" d="M481.8-277.8c-0.5,2-1.1,3.6-1.7,4.8c-0.6,1.1-1.1,2.2-1.8,3.2c-0.5,0.8-1.1,1.6-1.8,2.2
					c-0.6,0.6-1.3,1.3-2.1,1.9c-0.4,0.3-0.9,0.5-1.5,0.8c-0.6,0.3-1.4,0.5-2.3,0.6c-0.9,0.1-1.9,0.2-2.9,0.2c-1.1,0-2.2-0.2-3.3-0.5
					c-2.9-0.8-5-1.7-6.5-2.8c-1.4-1.1-2.5-2.4-3.2-3.9c-0.6-1.2-1-2.6-1.3-4.1c-0.3-1.5-0.2-3.4,0.1-5.5c0.2-1.1,0.4-2.1,0.8-3.1
					c0.3-1,0.7-1.9,1.1-2.8c0.2-0.4,0.4-0.9,0.8-1.5c0.4-0.6,0.7-1.2,1.2-1.8c0.4-0.6,0.9-1.1,1.3-1.7c0.4-0.6,0.8-1,1.1-1.3
					c0.7-0.9,1.4-1.6,2-2.2c0.6-0.6,1.4-1.2,2.2-1.7c1-0.6,2.2-1,3.5-1.1c1.3-0.1,2.7-0.1,4.4,0c0.7-0.8,1.4-1.7,2-2.7
					c0.6-1,1.3-1.9,2-2.8c0.5-0.6,0.9-0.9,1.3-0.9c0.4,0,0.8,0.1,1.3,0.4c0.2,0.1,0.4,0.3,0.4,0.6c0,0.2,0,0.5-0.1,0.8
					c-0.1,0.3-0.2,0.6-0.4,0.9c-0.2,0.3-0.3,0.5-0.4,0.8c-0.4,0.7-0.9,1.3-1.4,2c-0.5,0.7-0.9,1.4-1.4,2c1.1,0.3,2.1,0.7,3,1.2
					c0.9,0.5,1.6,1,2,1.5c0.3,0.3,0.6,0.7,0.9,1.2s0.6,1,0.6,1.4c0.3,1.1,0.5,2.3,0.6,3.5c0.1,1.2,0.2,2.5,0.2,3.7
					c0,1.3-0.1,2.5-0.2,3.6C482.3-279.8,482.1-278.8,481.8-277.8z M465.8-294.2c0.3,0.3,0.7,0.6,1.2,0.9c0.7,0.4,1.4,0.7,2.2,1
					c0.8,0.3,1.6,0.5,2.4,0.6c0.4,0.1,0.9,0.2,1.5,0.3c0.5,0.1,1.1,0.1,1.6,0.2c0.5,0.1,1,0.1,1.5,0.1c0.5,0,0.9,0,1.2-0.1
					c0.7-0.1,1-0.4,0.9-0.9c-0.1-0.5-0.4-0.9-0.9-1.3c-0.2-0.1-0.4-0.3-0.8-0.4c-0.3-0.2-0.7-0.3-1.1-0.5c-0.4-0.2-0.7-0.3-1-0.4
					c-0.3-0.1-0.6-0.2-0.7-0.2c-0.5,0.6-1,1.1-1.5,1.4c-0.5,0.3-1,0.3-1.4,0c-0.5-0.2-0.7-0.6-0.7-1s0.1-0.9,0.4-1.4
					c-0.3-0.1-0.8-0.1-1.3-0.1c-0.5,0-1.1,0-1.6,0c-0.5,0.1-1,0.2-1.4,0.3c-0.4,0.1-0.7,0.3-0.8,0.6
					C465.4-294.9,465.5-294.5,465.8-294.2z M478.5-278.2c0.2-0.8,0.4-1.7,0.5-2.7c0.1-1,0.1-2,0.1-3c0-1,0-1.9-0.1-2.7
					c-0.1-0.8-0.2-1.4-0.4-1.8c-1.2,0.3-2.5,0.4-3.9,0.3c-1.4-0.1-2.7-0.3-3.9-0.5c-1.3-0.3-2.7-0.7-4-1.2c-1.3-0.5-2.4-1.2-3.3-2.1
					c-1.2,1.3-2.4,2.6-3.4,4c-1.1,1.4-1.9,2.9-2.4,4.6c-0.3,0.9-0.5,1.6-0.6,2.4c-0.2,1-0.3,1.9-0.3,2.9c0,0.9,0,1.9,0.2,2.9
					c0,0.6,0.2,1.1,0.3,1.5c0.2,0.5,0.4,0.9,0.6,1.3c0.5,0.9,1.3,1.8,2.2,2.6c1,0.8,2.4,1.5,4.5,2c1.9,0.5,4,0.5,6.1,0
					c0.8-0.2,1.4-0.6,2-1s1.1-0.9,1.6-1.5c1.1-1.2,2-2.4,2.6-3.7S478.1-276.7,478.5-278.2z"/>
			</g>
			<path class="st1" d="M559.6-195.6c-0.4,1.4-1,2.8-1.6,4.3c-0.5,1.2-1,2.4-1.6,3.7c-0.6,1.2-1.2,2.5-1.7,3.7
				c-0.7,1.6-1.5,2.8-2.5,3.8c-1,0.9-2.2,1.6-3.7,2.1c-0.5,1-0.9,2.1-1.4,3.2c-0.4,1.1-0.9,2.1-1.4,3c-0.4,1.1-0.9,2-1.5,2.7
				c-0.9,0.9-1.9,1.4-3.3,1.4c-0.5-0.1-1.1-0.4-1.6-0.7s-1-0.6-1.3-0.9c-0.2-0.1-0.3-0.3-0.5-0.6c-0.2-0.3-0.3-0.5-0.5-0.8
				c-0.1-0.3-0.2-0.6-0.3-0.9c0-0.3,0-0.5,0.1-0.7c0.7-1.7,1.3-3.1,1.9-4.3c0.6-1.2,1.3-2.5,2-4c-0.9-0.6-1.4-1-1.7-1.3
				c-0.3-0.3-0.6-0.6-0.8-1c-0.3-0.2-0.6-0.7-0.8-1.3c-0.2-0.6-0.1-1.3,0.2-2.1c0.2-0.4,0.5-1.1,0.9-2c0.4-0.9,0.9-2.1,1.6-3.7
				c0.7-1.8,1.4-3.6,1.9-5.4c0.5-1.8,1-3.8,1.4-6c0.1-0.5,0.4-1.2,0.8-1.9c0.7-1,1.6-1.8,2.5-2.4c1-0.6,1.8-1.1,2.5-1.5
				c1-0.6,1.9-0.8,2.7-0.4c0.5,0.2,1.1,0.6,1.7,0.9c0.6,0.4,1.2,0.8,1.8,1.2c0.6,0.4,1.1,0.8,1.6,1.2c0.5,0.4,0.9,0.8,1.2,1.1
				c1,1,1.7,2,1.9,2.9c0.2,0.9,0.3,1.9,0.1,3C560.3-198.3,560-197,559.6-195.6z M545.2-178.4l-1.7-1.1c-0.4,0.6-0.9,1.7-1.7,3.2
				c-0.8,1.5-1.6,3.1-2.4,4.9c0.3,0.3,0.6,0.5,0.9,0.7c0.3,0.1,0.6,0.3,0.9,0.5c0.3-0.5,0.6-1.1,1-1.9c0.4-0.8,0.8-1.6,1.2-2.4
				c0.4-0.8,0.8-1.6,1.1-2.3C544.9-177.6,545.2-178.1,545.2-178.4z M551.1-198.1c-0.2-0.2-0.5-0.5-0.9-0.7c-0.4-0.2-0.8-0.5-1.2-0.8
				c-0.4-0.2-0.8-0.5-1.3-0.7c-0.4-0.2-0.8-0.4-1.1-0.5c-0.6,2-1.3,4.1-2.1,6.1c-0.8,2-1.5,4-2.3,5.9c-0.3,0.6-0.5,1.2-0.8,1.6
				c-0.2,0.4-0.4,0.9-0.6,1.5c-0.1,0.3-0.1,0.5,0,0.8c0.1,0.3,0.2,0.5,0.4,0.7c0,0.1,0.2,0.2,0.6,0.5c0.4,0.3,0.8,0.6,1.2,0.9
				c0.4,0.3,0.8,0.6,1.1,0.8s0.5,0.3,0.6,0.2c0.6-1.5,1.2-2.9,1.7-4.1c0.5-1.2,0.9-2.3,1.4-3.5c0.4-1.2,0.9-2.5,1.4-3.8
				C549.8-194.4,550.4-196.1,551.1-198.1z M552.6-200.1c1.1-0.7,2.1-1.4,2.9-2c0.8-0.7,1.3-1.1,1.6-1.4c-0.7-0.7-1.5-1.3-2.2-1.9
				c-0.8-0.6-1.5-1.1-2.2-1.5c-0.7-0.4-1.2-0.5-1.7-0.4c-0.4,0.1-0.8,0.3-1.2,0.5c-0.5,0.5-1.1,1-1.7,1.4s-1.2,1-1.8,1.7
				c1.1,0.8,2.2,1.4,3.4,2C550.8-201,551.8-200.5,552.6-200.1z M558.6-200.2l-3.3,2.2c-1.5,3.5-2.8,6.8-4,9.7
				c-1.1,2.9-2.6,5.6-3.3,7.6c0.5-0.2,1.6-0.6,2-0.8c0.4-0.2,0.8-0.4,1.1-0.6c0.4-0.6,0.8-1.4,1.3-2.5c0.5-1,1.1-2.2,1.6-3.4
				c0.6-1.2,1.1-2.4,1.6-3.6c0.5-1.2,0.9-2.2,1.3-3.1c0.3-0.9,0.6-1.8,0.9-2.7C558.1-198.3,558.3-199.4,558.6-200.2z"/>
			<g>
				<path class="st1" d="M646.2-104.3c-0.2,0.4-0.4,0.8-0.7,1.3c-0.2,0.5-0.5,0.9-0.8,1.4s-0.6,0.8-1,1.1c-0.3,0.3-0.7,0.5-1.2,0.5
					c-0.3,0.7-0.5,1.3-0.7,1.7c-0.2,0.5-0.4,1-0.7,1.7c-0.7,1.7-1.3,3.2-1.9,4.7c-0.6,1.5-1.2,3-1.9,4.5c-0.4,0.9-0.8,1.6-1.3,2.1
					c-0.5,0.5-1.1,0.8-1.8,1c-1.4,0.4-3,0.5-4.8,0.4c-1.8-0.1-3.5-0.3-5-0.6c-1-0.3-2-0.6-3.1-1c-1.1-0.4-2.1-0.9-3-1.4
					c-1-0.5-1.8-1.1-2.6-1.7c-0.8-0.6-1.4-1.2-1.9-1.9c-0.5-0.8-0.7-1.6-0.8-2.3c0-1,0.1-2,0.4-3c0.2-0.9,0.4-1.9,0.6-2.9
					c0.2-0.8,0.3-1.6,0.5-2.4c0.2-0.8,0.3-1.6,0.4-2.5c0.1-0.6,0.2-1.2,0.3-1.9c0.1-0.7,0.2-1.3,0.3-1.9c-0.2-0.2-0.4-0.5-0.6-0.7
					s-0.3-0.6-0.5-1c-0.1-0.4-0.2-1-0.2-1.6s0.1-1.4,0.2-2.4c0.1-0.8,0.4-1.5,0.8-2.1c0.4-0.6,1-1.1,1.7-1.3c1.2-0.5,2.6-0.8,4-0.9
					c1.4-0.1,2.8-0.1,4.2,0.1c1.4,0.1,2.8,0.4,4.2,0.7s2.7,0.6,4,1c1.3,0.3,2.6,0.8,3.8,1.3c1.3,0.5,2.5,1.1,3.6,1.7
					c1.1,0.6,2.2,1.3,3.1,2.1c0.9,0.8,1.6,1.6,2.2,2.4c0.4,0.6,0.5,1.2,0.5,1.9C646.6-105.5,646.5-104.8,646.2-104.3z M619.5-113.3
					c2.1,1.3,4.1,2.2,5.9,2.7c1.8,0.5,3.5,1,5.1,1.5c0.8,0.2,1.8,0.4,2.8,0.7c1,0.2,2.1,0.4,3.2,0.6c1.1,0.2,2.1,0.3,3.1,0.4
					c1,0.1,1.9,0.1,2.6,0.2c0.6,0,0.9-0.1,0.8-0.4c-0.1-0.3-0.3-0.5-0.6-0.8c-0.7-0.5-1.5-1-2.4-1.5c-0.9-0.5-1.8-0.9-2.7-1.3
					c-0.9-0.4-1.8-0.8-2.7-1.1c-0.9-0.3-1.7-0.6-2.4-0.8c-2.6-0.7-5-1.2-7.1-1.6c-2.1-0.3-3.9-0.3-5.4,0c-0.3,0.1-0.5,0.2-0.8,0.5
					C618.9-113.9,619-113.6,619.5-113.3z M640-100.1c-1.8,0-3.6-0.1-5.4-0.3c-1.7-0.3-3.5-0.6-5.3-1.1c-1.4-0.4-3-0.9-4.7-1.4
					c-1.7-0.6-3.9-1.6-6.5-3c-0.4,2.2-0.8,4.1-1.2,5.9c-0.4,1.8-0.8,3.7-1.1,5.8c0,0.6-0.1,1.1,0,1.5c0,0.4,0.2,0.8,0.6,1.2
					c1.2,1.2,2.6,2.2,4.1,2.9c1.5,0.7,3,1.3,4.4,1.6c1.7,0.5,3.3,0.7,4.6,0.7c1.4,0,2.6-0.1,3.7-0.4c0.5-0.1,0.9-0.4,1.3-0.7
					c0.4-0.3,0.7-0.8,1-1.5c0.6-1.4,1.2-2.6,1.6-3.8c0.5-1.2,0.9-2.4,1.4-3.6L640-100.1z M643.6-105.1c-2.3,0-4.6-0.1-6.9-0.4
					c-2.3-0.3-4.5-0.7-6.6-1.3c-3-0.8-5.6-1.7-7.8-2.7c-2.1-1-4.1-2.1-5.8-3.2c-0.1,0.9-0.1,1.7-0.2,2.2c0,0.5,0.4,1.1,1.1,1.5
					c1.9,1.3,3.9,2.3,5.9,3c2,0.8,4,1.4,5.9,1.8s3.8,0.8,5.8,1.2c2,0.3,3.7,0.5,5.3,0.5c1,0,1.8-0.3,2.2-0.8
					C643-103.8,643.3-104.4,643.6-105.1z"/>
				<path class="st1" d="M634.4-92.8c-0.3,1-0.8,1.8-1.4,2.4c-0.7,0.6-1.5,1-2.3,1.3c-0.9,0.3-1.8,0.4-2.7,0.4c-1,0-1.9-0.2-2.7-0.4
					c-0.9-0.2-1.7-0.6-2.5-1.1c-0.8-0.5-1.5-1-2-1.7s-1-1.4-1.2-2.2c-0.2-0.8-0.2-1.6,0-2.5c0.3-1,0.7-1.8,1.4-2.4
					c0.7-0.6,1.4-1.1,2.3-1.5s1.8-0.5,2.8-0.5c1,0,2,0.1,2.8,0.3c2.3,0.6,3.9,1.6,4.8,3C634.6-96.3,634.9-94.6,634.4-92.8z
					 M622-97.7c0,0.1,0,0.2,0.2,0.3c-0.2,0.4-0.3,0.8-0.3,1.1c0,0.3,0.2,0.5,0.5,0.7c0.5,0.2,1,0.3,1.4,0.2c0.3,0,0.4-0.2,0.3-0.4
					c0-0.2-0.1-0.2-0.3-0.2c-0.2,0-0.4,0.1-0.6,0.1c-0.2,0-0.3,0-0.5-0.1c-0.2-0.2-0.3-0.3-0.3-0.5c0.3,0,0.5,0,0.7,0.1
					c0.2,0,0.4,0.1,0.7,0.2c0.2,0.1,0.4,0,0.4-0.1c0.1-0.2,0-0.3-0.3-0.4c-0.2-0.1-0.5-0.1-0.7-0.2c-0.2-0.1-0.5-0.1-0.7,0l0.1-0.4
					c0.2,0,0.5,0,0.8,0.1c0.3,0.1,0.5,0.1,0.6,0.2c0.2,0.1,0.4,0.1,0.4-0.1c0.1-0.2,0-0.4-0.3-0.5c-0.2-0.1-0.5-0.2-0.9-0.3
					c-0.4-0.1-0.7-0.1-1-0.1C622.2-97.9,622.1-97.8,622-97.7z M624.3-94.6c0-0.2-0.1-0.3-0.4-0.4l-2-0.4c-0.3-0.1-0.5,0-0.5,0.2
					c0,0.1,0.1,0.3,0.4,0.3l0.8,0.1l-0.2,0.7c-0.1,0.2,0,0.4,0.2,0.4c0.2,0.1,0.3,0,0.4-0.3l0.2-0.8l0.7,0.1
					C624.1-94.4,624.2-94.5,624.3-94.6z M626.4-95.6c-0.1-0.2-0.3-0.3-0.7-0.4c-0.2-0.1-0.4-0.1-0.5-0.1c-0.3,0-0.4,0.1-0.3,0.3
					c0,0.1,0.1,0.2,0.1,0.1c0.1,0,0.1,0,0.2,0l0.4,0.1c0.1,0,0.2,0.1,0.2,0.2c0,0.1,0,0.3-0.2,0.4c-0.2,0.2-0.4,0.4-0.7,0.5
					c-0.2,0-0.3,0.2-0.2,0.3c0.1,0.2,0.2,0.3,0.3,0.2c0.2,0,0.3-0.1,0.4-0.1c0.3-0.2,0.6-0.5,0.8-0.8
					C626.3-95.2,626.4-95.4,626.4-95.6z M627.6-94.9c0.1-0.4,0.2-0.8,0.2-1c0-0.3-0.1-0.4-0.3-0.5c-0.1,0-0.2,0.1-0.2,0.3l-0.2,0.9
					l-0.3-0.1c-0.2-0.1-0.4,0-0.4,0.1c0,0.1,0,0.2,0.2,0.2c0.2,0.1,0.3,0.1,0.4,0.2l-0.5,0.8c-0.1,0.2-0.1,0.4,0.1,0.5
					c0.2,0.1,0.4,0,0.5-0.2c0.2-0.2,0.3-0.4,0.3-0.6C627.5-94.4,627.6-94.6,627.6-94.9z M628.7-94.9c0.1-0.3,0.1-0.5,0.1-0.8
					c0-0.3-0.1-0.5-0.3-0.6c-0.1,0-0.2,0.1-0.2,0.3c0,0.3-0.1,0.6-0.2,1.1c-0.2,0.6-0.4,1.2-0.7,1.6c-0.2,0.2-0.1,0.4,0.1,0.6
					c0.2,0.2,0.4,0.2,0.6-0.2c0.2-0.5,0.4-0.9,0.5-1.4C628.6-94.4,628.6-94.6,628.7-94.9z M630.9-93c-0.1-0.2-0.2-0.3-0.4-0.3
					c-0.2,0-0.4,0.1-0.5,0c-0.3-0.1-0.4-0.3-0.4-0.6c0-0.1,0.1-0.2,0.1-0.3c0-0.1,0.1-0.2,0.2-0.3l0.6,0.2c0.1,0,0.2,0,0.3,0
					s0.1-0.1,0.2-0.2c0.1-0.2,0-0.3-0.3-0.4c-0.2-0.1-0.5-0.1-0.7-0.1c-0.2,0-0.4,0-0.5,0c-0.3,0-0.4,0.1-0.4,0.2
					c0,0.1,0,0.2,0.1,0.2c0.1,0.1,0.2,0.1,0.2,0.1c-0.1,0.2-0.2,0.4-0.3,0.6c-0.1,0.4-0.1,0.7,0,0.9c0.1,0.2,0.4,0.4,0.7,0.5
					c0.2,0.1,0.5,0.1,0.8,0C630.8-92.7,630.9-92.8,630.9-93z M632.6-93.6c0.1-0.5,0.1-0.8,0.1-1.1c0-0.4-0.1-0.5-0.3-0.5
					c-0.1,0-0.2,0.1-0.2,0.3c0,0.2,0,0.4-0.1,0.6c-0.1,0.2-0.1,0.3-0.1,0.4c-0.5-0.2-0.8-0.3-1.1-0.2c-0.3,0-0.3,0.1-0.2,0.3
					c0,0.1,0.2,0.1,0.4,0.1c0.2,0,0.5,0.1,0.8,0.3c0,0.1-0.1,0.3-0.2,0.5c-0.1,0.2-0.1,0.4-0.2,0.5c-0.1,0.4,0,0.6,0.2,0.7
					c0.1,0,0.2,0,0.3,0c0.1-0.1,0.2-0.2,0.3-0.5C632.4-92.7,632.5-93.2,632.6-93.6z"/>
			</g>
		</g>
		<g>
			<g>
				<path class="st1" d="M243.2-363c1.3,0.6,2.7,1.1,4.3,1.6c1.3,0.4,2.7,0.6,4,0.8c1.3,0.1,2.8,0,4.3-0.2c0.4-0.1,0.9-0.3,1.4-0.6
					c0.5-0.3,0.7-0.8,0.7-1.4c-0.1-0.6-0.4-1-0.8-1.1s-1-0.2-1.6-0.1c-0.9,0.2-2,0.2-3.2,0.1c-1.2-0.1-2.5-0.3-3.8-0.7
					c-1.5-0.4-2.9-0.9-4.2-1.5c-1.3-0.6-2.3-1.2-2.9-1.8c-0.3-0.3-0.7-0.5-1.1-0.6c-0.4-0.1-0.8,0.1-1.1,0.4
					c-0.3,0.3-0.4,0.8-0.3,1.3c0.1,0.5,0.4,1,0.9,1.5C240.7-364.3,241.9-363.6,243.2-363z"/>
				<path class="st1" d="M261.8-361.5c-0.5,2-1.1,3.6-1.7,4.8c-0.6,1.1-1.1,2.2-1.8,3.2c-0.5,0.8-1.1,1.6-1.8,2.2
					c-0.6,0.6-1.3,1.3-2.1,1.9c-0.4,0.3-0.9,0.5-1.5,0.8c-0.6,0.3-1.4,0.5-2.3,0.6c-0.9,0.1-1.9,0.2-2.9,0.2c-1.1,0-2.2-0.2-3.3-0.5
					c-2.9-0.8-5-1.7-6.5-2.8c-1.4-1.1-2.5-2.4-3.2-3.9c-0.6-1.2-1-2.6-1.3-4.1c-0.3-1.5-0.2-3.4,0.1-5.5c0.2-1.1,0.4-2.1,0.8-3.1
					s0.7-1.9,1.1-2.8c0.2-0.4,0.4-0.9,0.8-1.5c0.4-0.6,0.7-1.2,1.2-1.8s0.9-1.1,1.3-1.7c0.4-0.6,0.8-1,1.1-1.3
					c0.7-0.9,1.4-1.6,2-2.2c0.6-0.6,1.4-1.2,2.2-1.7c1-0.6,2.2-1,3.5-1.1c1.3-0.1,2.7-0.1,4.4,0c0.7-0.8,1.4-1.7,2-2.7
					c0.6-1,1.3-1.9,2-2.8c0.5-0.6,0.9-0.9,1.3-0.9c0.4,0,0.8,0.1,1.3,0.4c0.2,0.1,0.4,0.3,0.4,0.6c0,0.2,0,0.5-0.1,0.8
					s-0.2,0.6-0.4,0.9c-0.2,0.3-0.3,0.5-0.4,0.8c-0.4,0.7-0.9,1.3-1.4,2c-0.5,0.7-0.9,1.4-1.4,2c1.1,0.3,2.1,0.7,3,1.2
					c0.9,0.5,1.6,1,2,1.5c0.3,0.3,0.6,0.7,0.9,1.2c0.3,0.5,0.6,1,0.6,1.4c0.3,1.1,0.5,2.3,0.6,3.5c0.1,1.2,0.2,2.5,0.2,3.7
					c0,1.3-0.1,2.5-0.2,3.6C262.3-363.5,262.1-362.5,261.8-361.5z M245.8-377.9c0.3,0.3,0.7,0.6,1.2,0.9c0.7,0.4,1.4,0.7,2.2,1
					c0.8,0.3,1.6,0.5,2.4,0.6c0.4,0.1,0.9,0.2,1.5,0.3c0.5,0.1,1.1,0.1,1.6,0.2c0.5,0.1,1,0.1,1.5,0.1c0.5,0,0.9,0,1.2-0.1
					c0.7-0.1,1-0.4,0.9-0.9c-0.1-0.5-0.4-0.9-0.9-1.3c-0.2-0.1-0.4-0.3-0.8-0.4c-0.3-0.2-0.7-0.3-1.1-0.5c-0.4-0.2-0.7-0.3-1-0.4
					c-0.3-0.1-0.6-0.2-0.7-0.2c-0.5,0.6-1,1.1-1.5,1.4c-0.5,0.3-1,0.3-1.4,0c-0.5-0.2-0.7-0.6-0.7-1c0-0.4,0.1-0.9,0.4-1.4
					c-0.3-0.1-0.8-0.1-1.3-0.1c-0.5,0-1.1,0-1.6,0c-0.5,0.1-1,0.2-1.4,0.3c-0.4,0.1-0.7,0.3-0.8,0.6
					C245.4-378.6,245.5-378.3,245.8-377.9z M258.5-362c0.2-0.8,0.4-1.7,0.5-2.7c0.1-1,0.1-2,0.1-3c0-1,0-1.9-0.1-2.7
					c-0.1-0.8-0.2-1.4-0.4-1.8c-1.2,0.3-2.5,0.4-3.9,0.3c-1.4-0.1-2.7-0.3-3.9-0.5c-1.3-0.3-2.7-0.7-4-1.2c-1.3-0.5-2.4-1.2-3.3-2.1
					c-1.2,1.3-2.4,2.6-3.4,4c-1.1,1.4-1.9,2.9-2.4,4.6c-0.3,0.9-0.5,1.6-0.6,2.4c-0.2,1-0.3,1.9-0.3,2.9c0,0.9,0,1.9,0.2,2.9
					c0,0.6,0.2,1.1,0.3,1.5c0.2,0.5,0.4,0.9,0.6,1.3c0.5,0.9,1.3,1.8,2.2,2.6c1,0.8,2.4,1.5,4.5,2c1.9,0.5,4,0.5,6.1,0
					c0.8-0.2,1.4-0.6,2-1c0.5-0.5,1.1-0.9,1.6-1.5c1.1-1.2,2-2.4,2.6-3.7C257.6-359.1,258.1-360.5,258.5-362z"/>
			</g>
			<path class="st1" d="M339.6-279.4c-0.4,1.4-1,2.8-1.6,4.3c-0.5,1.2-1,2.4-1.6,3.7c-0.6,1.2-1.2,2.5-1.7,3.7
				c-0.7,1.6-1.5,2.8-2.5,3.8c-1,0.9-2.2,1.6-3.7,2.1c-0.5,1-0.9,2.1-1.4,3.2c-0.4,1.1-0.9,2.1-1.4,3c-0.4,1.1-0.9,2-1.5,2.7
				c-0.9,0.9-1.9,1.4-3.3,1.4c-0.5-0.1-1.1-0.4-1.6-0.7c-0.6-0.3-1-0.6-1.3-0.9c-0.2-0.1-0.3-0.3-0.5-0.6c-0.2-0.3-0.3-0.5-0.5-0.8
				c-0.1-0.3-0.2-0.6-0.3-0.9c0-0.3,0-0.5,0.1-0.7c0.7-1.7,1.3-3.1,1.9-4.3c0.6-1.2,1.3-2.5,2-4c-0.9-0.6-1.4-1-1.7-1.3
				s-0.6-0.6-0.8-1c-0.3-0.2-0.6-0.7-0.8-1.3s-0.1-1.3,0.2-2.1c0.2-0.4,0.5-1.1,0.9-2c0.4-0.9,0.9-2.1,1.6-3.7
				c0.7-1.8,1.4-3.6,1.9-5.4c0.5-1.8,1-3.8,1.4-6c0.1-0.5,0.4-1.2,0.8-1.9c0.7-1,1.6-1.8,2.5-2.4s1.8-1.1,2.5-1.5
				c1-0.6,1.9-0.8,2.7-0.4c0.5,0.2,1.1,0.6,1.7,0.9c0.6,0.4,1.2,0.8,1.8,1.2s1.1,0.8,1.6,1.2c0.5,0.4,0.9,0.8,1.2,1.1
				c1,1,1.7,2,1.9,2.9c0.2,0.9,0.3,1.9,0.1,3C340.3-282.1,340-280.7,339.6-279.4z M325.2-262.2l-1.7-1.1c-0.4,0.6-0.9,1.7-1.7,3.2
				c-0.8,1.5-1.6,3.1-2.4,4.9c0.3,0.3,0.6,0.5,0.9,0.7c0.3,0.1,0.6,0.3,0.9,0.5c0.3-0.5,0.6-1.1,1-1.9c0.4-0.8,0.8-1.6,1.2-2.4
				c0.4-0.8,0.8-1.6,1.1-2.3C324.9-261.3,325.2-261.8,325.2-262.2z M331.1-281.8c-0.2-0.2-0.5-0.5-0.9-0.7c-0.4-0.2-0.8-0.5-1.2-0.8
				c-0.4-0.2-0.8-0.5-1.3-0.7c-0.4-0.2-0.8-0.4-1.1-0.5c-0.6,2-1.3,4.1-2.1,6.1c-0.8,2-1.5,4-2.3,5.9c-0.3,0.6-0.5,1.2-0.8,1.6
				c-0.2,0.4-0.4,0.9-0.6,1.5c-0.1,0.3-0.1,0.5,0,0.8c0.1,0.3,0.2,0.5,0.4,0.7c0,0.1,0.2,0.2,0.6,0.5c0.4,0.3,0.8,0.6,1.2,0.9
				s0.8,0.6,1.1,0.8c0.4,0.2,0.5,0.3,0.6,0.2c0.6-1.5,1.2-2.9,1.7-4.1c0.5-1.2,0.9-2.3,1.4-3.5c0.4-1.2,0.9-2.5,1.4-3.8
				C329.8-278.2,330.4-279.8,331.1-281.8z M332.6-283.8c1.1-0.7,2.1-1.4,2.9-2c0.8-0.7,1.3-1.1,1.6-1.4c-0.7-0.7-1.5-1.3-2.2-1.9
				c-0.8-0.6-1.5-1.1-2.2-1.5c-0.7-0.4-1.2-0.5-1.7-0.4s-0.8,0.3-1.2,0.5c-0.5,0.5-1.1,1-1.7,1.4c-0.6,0.4-1.2,1-1.8,1.7
				c1.1,0.8,2.2,1.4,3.4,2C330.8-284.8,331.8-284.2,332.6-283.8z M338.6-284l-3.3,2.2c-1.5,3.5-2.8,6.8-4,9.7
				c-1.1,2.9-2.6,5.6-3.3,7.6c0.5-0.2,1.6-0.6,2-0.8c0.4-0.2,0.8-0.4,1.1-0.6c0.4-0.6,0.8-1.4,1.3-2.5c0.5-1,1.1-2.2,1.6-3.4
				c0.6-1.2,1.1-2.4,1.6-3.6c0.5-1.2,0.9-2.2,1.3-3.1c0.3-0.9,0.6-1.8,0.9-2.7C338.1-282.1,338.3-283.1,338.6-284z"/>
			<g>
				<path class="st1" d="M426.2-188c-0.2,0.4-0.4,0.8-0.7,1.3c-0.2,0.5-0.5,0.9-0.8,1.4c-0.3,0.4-0.6,0.8-1,1.1
					c-0.3,0.3-0.7,0.5-1.2,0.5c-0.3,0.7-0.5,1.3-0.7,1.7s-0.4,1-0.7,1.7c-0.7,1.7-1.3,3.2-1.9,4.7c-0.6,1.5-1.2,3-1.9,4.5
					c-0.4,0.9-0.8,1.6-1.3,2.1c-0.5,0.5-1.1,0.8-1.8,1c-1.4,0.4-3,0.5-4.8,0.4c-1.8-0.1-3.5-0.3-5-0.6c-1-0.3-2-0.6-3.1-1
					c-1.1-0.4-2.1-0.9-3-1.4c-1-0.5-1.8-1.1-2.6-1.7s-1.4-1.2-1.9-1.9c-0.5-0.8-0.7-1.6-0.8-2.3c0-1,0.1-2,0.4-3
					c0.2-0.9,0.4-1.9,0.6-2.9c0.2-0.8,0.3-1.6,0.5-2.4c0.2-0.8,0.3-1.6,0.4-2.5c0.1-0.6,0.2-1.2,0.3-1.9c0.1-0.7,0.2-1.3,0.3-1.9
					c-0.2-0.2-0.4-0.5-0.6-0.7c-0.2-0.3-0.3-0.6-0.5-1c-0.1-0.4-0.2-1-0.2-1.6c0-0.6,0.1-1.4,0.2-2.4c0.1-0.8,0.4-1.5,0.8-2.1
					c0.4-0.6,1-1.1,1.7-1.3c1.2-0.5,2.6-0.8,4-0.9c1.4-0.1,2.8-0.1,4.2,0.1c1.4,0.1,2.8,0.4,4.2,0.7c1.4,0.3,2.7,0.6,4,1
					c1.3,0.3,2.6,0.8,3.8,1.3c1.3,0.5,2.5,1.1,3.6,1.7c1.1,0.6,2.2,1.3,3.1,2.1c0.9,0.8,1.6,1.6,2.2,2.4c0.4,0.6,0.5,1.2,0.5,1.9
					S426.5-188.6,426.2-188z M399.5-197c2.1,1.3,4.1,2.2,5.9,2.7c1.8,0.5,3.5,1,5.1,1.5c0.8,0.2,1.8,0.4,2.8,0.7
					c1,0.2,2.1,0.4,3.2,0.6c1.1,0.2,2.1,0.3,3.1,0.4c1,0.1,1.9,0.1,2.6,0.2c0.6,0,0.9-0.1,0.8-0.4c-0.1-0.3-0.3-0.5-0.6-0.8
					c-0.7-0.5-1.5-1-2.4-1.5c-0.9-0.5-1.8-0.9-2.7-1.3c-0.9-0.4-1.8-0.8-2.7-1.1c-0.9-0.3-1.7-0.6-2.4-0.8c-2.6-0.7-5-1.2-7.1-1.6
					c-2.1-0.3-3.9-0.3-5.4,0c-0.3,0.1-0.5,0.2-0.8,0.5C398.9-197.6,399-197.4,399.5-197z M420-183.9c-1.8,0-3.6-0.1-5.4-0.3
					c-1.7-0.3-3.5-0.6-5.3-1.1c-1.4-0.4-3-0.9-4.7-1.4c-1.7-0.6-3.9-1.6-6.5-3c-0.4,2.2-0.8,4.1-1.2,5.9c-0.4,1.8-0.8,3.7-1.1,5.8
					c0,0.6-0.1,1.1,0,1.5c0,0.4,0.2,0.8,0.6,1.2c1.2,1.2,2.6,2.2,4.1,2.9c1.5,0.7,3,1.3,4.4,1.6c1.7,0.5,3.3,0.7,4.6,0.7
					c1.4,0,2.6-0.1,3.7-0.4c0.5-0.1,0.9-0.4,1.3-0.7c0.4-0.3,0.7-0.8,1-1.5c0.6-1.4,1.2-2.6,1.6-3.8c0.5-1.2,0.9-2.4,1.4-3.6
					L420-183.9z M423.6-188.8c-2.3,0-4.6-0.1-6.9-0.4s-4.5-0.7-6.6-1.3c-3-0.8-5.6-1.7-7.8-2.7c-2.1-1-4.1-2.1-5.8-3.2
					c-0.1,0.9-0.1,1.7-0.2,2.2c0,0.5,0.4,1.1,1.1,1.5c1.9,1.3,3.9,2.3,5.9,3c2,0.8,4,1.4,5.9,1.8c1.9,0.5,3.8,0.8,5.8,1.2
					c2,0.3,3.7,0.5,5.3,0.5c1,0,1.8-0.3,2.2-0.8C423-187.6,423.3-188.2,423.6-188.8z"/>
				<path class="st1" d="M414.4-176.6c-0.3,1-0.8,1.8-1.4,2.4c-0.7,0.6-1.5,1-2.3,1.3c-0.9,0.3-1.8,0.4-2.7,0.4
					c-1,0-1.9-0.2-2.7-0.4c-0.9-0.2-1.7-0.6-2.5-1.1c-0.8-0.5-1.5-1-2-1.7s-1-1.4-1.2-2.2s-0.2-1.6,0-2.5c0.3-1,0.7-1.8,1.4-2.4
					c0.7-0.6,1.4-1.1,2.3-1.5s1.8-0.5,2.8-0.5c1,0,2,0.1,2.8,0.3c2.3,0.6,3.9,1.6,4.8,3C414.6-180,414.9-178.4,414.4-176.6z
					 M402-181.5c0,0.1,0,0.2,0.2,0.3c-0.2,0.4-0.3,0.8-0.3,1.1c0,0.3,0.2,0.5,0.5,0.7c0.5,0.2,1,0.3,1.4,0.2c0.3,0,0.4-0.2,0.3-0.4
					c0-0.2-0.1-0.2-0.3-0.2c-0.2,0-0.4,0.1-0.6,0.1c-0.2,0-0.3,0-0.5-0.1c-0.2-0.2-0.3-0.3-0.3-0.5c0.3,0,0.5,0,0.7,0.1
					c0.2,0,0.4,0.1,0.7,0.2c0.2,0.1,0.4,0,0.4-0.1c0.1-0.2,0-0.3-0.3-0.4c-0.2-0.1-0.5-0.1-0.7-0.2c-0.2-0.1-0.5-0.1-0.7,0l0.1-0.4
					c0.2,0,0.5,0,0.8,0.1c0.3,0.1,0.5,0.1,0.6,0.2c0.2,0.1,0.4,0.1,0.4-0.1c0.1-0.2,0-0.4-0.3-0.5c-0.2-0.1-0.5-0.2-0.9-0.3
					c-0.4-0.1-0.7-0.1-1-0.1C402.2-181.6,402.1-181.6,402-181.5z M404.3-178.3c0-0.2-0.1-0.3-0.4-0.4l-2-0.4c-0.3-0.1-0.5,0-0.5,0.2
					c0,0.1,0.1,0.3,0.4,0.3l0.8,0.1l-0.2,0.7c-0.1,0.2,0,0.4,0.2,0.4c0.2,0.1,0.3,0,0.4-0.3l0.2-0.8l0.7,0.1
					C404.1-178.2,404.2-178.2,404.3-178.3z M406.4-179.4c-0.1-0.2-0.3-0.3-0.7-0.4c-0.2-0.1-0.4-0.1-0.5-0.1c-0.3,0-0.4,0.1-0.3,0.3
					c0,0.1,0.1,0.2,0.1,0.1c0.1,0,0.1,0,0.2,0l0.4,0.1c0.1,0,0.2,0.1,0.2,0.2c0,0.1,0,0.3-0.2,0.4c-0.2,0.2-0.4,0.4-0.7,0.5
					c-0.2,0-0.3,0.2-0.2,0.3c0.1,0.2,0.2,0.3,0.3,0.2s0.3-0.1,0.4-0.1c0.3-0.2,0.6-0.5,0.8-0.8C406.3-178.9,406.4-179.2,406.4-179.4
					z M407.6-178.6c0.1-0.4,0.2-0.8,0.2-1c0-0.3-0.1-0.4-0.3-0.5c-0.1,0-0.2,0.1-0.2,0.3l-0.2,0.9l-0.3-0.1c-0.2-0.1-0.4,0-0.4,0.1
					c0,0.1,0,0.2,0.2,0.2c0.2,0.1,0.3,0.1,0.4,0.2l-0.5,0.8c-0.1,0.2-0.1,0.4,0.1,0.5c0.2,0.1,0.4,0,0.5-0.2
					c0.2-0.2,0.3-0.4,0.3-0.6S407.6-178.4,407.6-178.6z M408.7-178.6c0.1-0.3,0.1-0.5,0.1-0.8c0-0.3-0.1-0.5-0.3-0.6
					c-0.1,0-0.2,0.1-0.2,0.3c0,0.3-0.1,0.6-0.2,1.1c-0.2,0.6-0.4,1.2-0.7,1.6c-0.2,0.2-0.1,0.4,0.1,0.6c0.2,0.2,0.4,0.2,0.6-0.2
					c0.2-0.5,0.4-0.9,0.5-1.4C408.6-178.1,408.6-178.3,408.7-178.6z M410.9-176.7c-0.1-0.2-0.2-0.3-0.4-0.3c-0.2,0-0.4,0.1-0.5,0
					c-0.3-0.1-0.4-0.3-0.4-0.6c0-0.1,0.1-0.2,0.1-0.3c0-0.1,0.1-0.2,0.2-0.3l0.6,0.2c0.1,0,0.2,0,0.3,0c0.1,0,0.1-0.1,0.2-0.2
					c0.1-0.2,0-0.3-0.3-0.4c-0.2-0.1-0.5-0.1-0.7-0.1c-0.2,0-0.4,0-0.5,0c-0.3,0-0.4,0.1-0.4,0.2s0,0.2,0.1,0.2
					c0.1,0.1,0.2,0.1,0.2,0.1c-0.1,0.2-0.2,0.4-0.3,0.6c-0.1,0.4-0.1,0.7,0,0.9c0.1,0.2,0.4,0.4,0.7,0.5c0.2,0.1,0.5,0.1,0.8,0
					C410.8-176.4,410.9-176.6,410.9-176.7z M412.6-177.4c0.1-0.5,0.1-0.8,0.1-1.1c0-0.4-0.1-0.5-0.3-0.5c-0.1,0-0.2,0.1-0.2,0.3
					c0,0.2,0,0.4-0.1,0.6c-0.1,0.2-0.1,0.3-0.1,0.4c-0.5-0.2-0.8-0.3-1.1-0.2c-0.3,0-0.3,0.1-0.2,0.3c0,0.1,0.2,0.1,0.4,0.1
					c0.2,0,0.5,0.1,0.8,0.3c0,0.1-0.1,0.3-0.2,0.5c-0.1,0.2-0.1,0.4-0.2,0.5c-0.1,0.4,0,0.6,0.2,0.7c0.1,0,0.2,0,0.3,0
					c0.1-0.1,0.2-0.2,0.3-0.5C412.4-176.4,412.5-176.9,412.6-177.4z"/>
			</g>
		</g>
		<g>
			<g>
				<path class="st1" d="M23.2-446.7c1.3,0.6,2.7,1.1,4.3,1.6c1.3,0.4,2.7,0.6,4,0.8c1.3,0.1,2.8,0,4.3-0.2c0.4-0.1,0.9-0.3,1.4-0.6
					c0.5-0.3,0.7-0.8,0.7-1.4s-0.4-1-0.8-1.1c-0.5-0.1-1-0.2-1.6-0.1c-0.9,0.2-2,0.2-3.2,0.1c-1.2-0.1-2.5-0.3-3.8-0.7
					c-1.5-0.4-2.9-0.9-4.2-1.5c-1.3-0.6-2.3-1.2-2.9-1.8c-0.3-0.3-0.7-0.5-1.1-0.6c-0.4-0.1-0.8,0.1-1.1,0.4
					c-0.3,0.3-0.4,0.8-0.3,1.3s0.4,1,0.9,1.5C20.7-448.1,21.9-447.3,23.2-446.7z"/>
				<path class="st1" d="M41.8-445.3c-0.5,2-1.1,3.6-1.7,4.8c-0.6,1.1-1.1,2.2-1.8,3.2c-0.5,0.8-1.1,1.6-1.8,2.2
					c-0.6,0.6-1.3,1.3-2.1,1.9c-0.4,0.3-0.9,0.5-1.5,0.8c-0.6,0.3-1.4,0.5-2.3,0.6c-0.9,0.1-1.9,0.2-2.9,0.2c-1.1,0-2.2-0.2-3.3-0.5
					c-2.9-0.8-5-1.7-6.5-2.8c-1.4-1.1-2.5-2.4-3.2-3.9c-0.6-1.2-1-2.6-1.3-4.1c-0.3-1.5-0.2-3.4,0.1-5.5c0.2-1.1,0.4-2.1,0.8-3.1
					c0.3-1,0.7-1.9,1.1-2.8c0.2-0.4,0.4-0.9,0.8-1.5c0.4-0.6,0.7-1.2,1.2-1.8c0.4-0.6,0.9-1.1,1.3-1.7c0.4-0.6,0.8-1,1.1-1.3
					c0.7-0.9,1.4-1.6,2-2.2c0.6-0.6,1.4-1.2,2.2-1.7c1-0.6,2.2-1,3.5-1.1c1.3-0.1,2.7-0.1,4.4,0c0.7-0.8,1.4-1.7,2-2.7
					c0.6-1,1.3-1.9,2-2.8c0.5-0.6,0.9-0.9,1.3-0.9c0.4,0,0.8,0.1,1.3,0.4c0.2,0.1,0.4,0.3,0.4,0.6c0,0.2,0,0.5-0.1,0.8
					c-0.1,0.3-0.2,0.6-0.4,0.9c-0.2,0.3-0.3,0.5-0.4,0.8c-0.4,0.7-0.9,1.3-1.4,2c-0.5,0.7-0.9,1.4-1.4,2c1.1,0.3,2.1,0.7,3,1.2
					c0.9,0.5,1.6,1,2,1.5c0.3,0.3,0.6,0.7,0.9,1.2c0.3,0.5,0.6,1,0.6,1.4c0.3,1.1,0.5,2.3,0.6,3.5c0.1,1.2,0.2,2.5,0.2,3.7
					c0,1.3-0.1,2.5-0.2,3.6C42.3-447.3,42.1-446.3,41.8-445.3z M25.8-461.7c0.3,0.3,0.7,0.6,1.2,0.9c0.7,0.4,1.4,0.7,2.2,1
					c0.8,0.3,1.6,0.5,2.4,0.6c0.4,0.1,0.9,0.2,1.5,0.3c0.5,0.1,1.1,0.1,1.6,0.2c0.5,0.1,1,0.1,1.5,0.1c0.5,0,0.9,0,1.2-0.1
					c0.7-0.1,1-0.4,0.9-0.9c-0.1-0.5-0.4-0.9-0.9-1.3c-0.2-0.1-0.4-0.3-0.8-0.4s-0.7-0.3-1.1-0.5c-0.4-0.2-0.7-0.3-1-0.4
					c-0.3-0.1-0.6-0.2-0.7-0.2c-0.5,0.6-1,1.1-1.5,1.4c-0.5,0.3-1,0.3-1.4,0c-0.5-0.2-0.7-0.6-0.7-1c0-0.4,0.1-0.9,0.4-1.4
					c-0.3-0.1-0.8-0.1-1.3-0.1c-0.5,0-1.1,0-1.6,0c-0.5,0.1-1,0.2-1.4,0.3c-0.4,0.1-0.7,0.3-0.8,0.6C25.4-462.4,25.5-462,25.8-461.7
					z M38.5-445.7c0.2-0.8,0.4-1.7,0.5-2.7c0.1-1,0.1-2,0.1-3c0-1,0-1.9-0.1-2.7c-0.1-0.8-0.2-1.4-0.4-1.8c-1.2,0.3-2.5,0.4-3.9,0.3
					c-1.4-0.1-2.7-0.3-3.9-0.5c-1.3-0.3-2.7-0.7-4-1.2c-1.3-0.5-2.4-1.2-3.3-2.1c-1.2,1.3-2.4,2.6-3.4,4c-1.1,1.4-1.9,2.9-2.4,4.6
					c-0.3,0.9-0.5,1.6-0.6,2.4c-0.2,1-0.3,1.9-0.3,2.9c0,0.9,0,1.9,0.2,2.9c0,0.6,0.2,1.1,0.3,1.5c0.2,0.5,0.4,0.9,0.6,1.3
					c0.5,0.9,1.3,1.8,2.2,2.6s2.4,1.5,4.5,2c1.9,0.5,4,0.5,6.1,0c0.8-0.2,1.4-0.6,2-1c0.5-0.5,1.1-0.9,1.6-1.5
					c1.1-1.2,2-2.4,2.6-3.7C37.6-442.8,38.1-444.2,38.5-445.7z"/>
			</g>
			<path class="st1" d="M119.6-363.1c-0.4,1.4-1,2.8-1.6,4.3c-0.5,1.2-1,2.4-1.6,3.7c-0.6,1.2-1.2,2.5-1.7,3.7
				c-0.7,1.6-1.5,2.8-2.5,3.8c-1,0.9-2.2,1.6-3.7,2.1c-0.5,1-0.9,2.1-1.4,3.2c-0.4,1.1-0.9,2.1-1.4,3c-0.4,1.1-0.9,2-1.5,2.7
				c-0.9,0.9-1.9,1.4-3.3,1.4c-0.5-0.1-1.1-0.4-1.6-0.7c-0.6-0.3-1-0.6-1.3-0.9c-0.2-0.1-0.3-0.3-0.5-0.6c-0.2-0.3-0.3-0.5-0.5-0.8
				c-0.1-0.3-0.2-0.6-0.3-0.9c0-0.3,0-0.5,0.1-0.7c0.7-1.7,1.3-3.1,1.9-4.3s1.3-2.5,2-4c-0.9-0.6-1.4-1-1.7-1.3
				c-0.3-0.3-0.6-0.6-0.8-1c-0.3-0.2-0.6-0.7-0.8-1.3c-0.2-0.6-0.1-1.3,0.2-2.1c0.2-0.4,0.5-1.1,0.9-2c0.4-0.9,0.9-2.1,1.6-3.7
				c0.7-1.8,1.4-3.6,1.9-5.4c0.5-1.8,1-3.8,1.4-6c0.1-0.5,0.4-1.2,0.8-1.9c0.7-1,1.6-1.8,2.5-2.4c1-0.6,1.8-1.1,2.5-1.5
				c1-0.6,1.9-0.8,2.7-0.4c0.5,0.2,1.1,0.6,1.7,0.9c0.6,0.4,1.2,0.8,1.8,1.2c0.6,0.4,1.1,0.8,1.6,1.2c0.5,0.4,0.9,0.8,1.2,1.1
				c1,1,1.7,2,1.9,2.9c0.2,0.9,0.3,1.9,0.1,3C120.3-365.8,120-364.5,119.6-363.1z M105.2-345.9l-1.7-1.1c-0.4,0.6-0.9,1.7-1.7,3.2
				c-0.8,1.5-1.6,3.1-2.4,4.9c0.3,0.3,0.6,0.5,0.9,0.7c0.3,0.1,0.6,0.3,0.9,0.5c0.3-0.5,0.6-1.1,1-1.9s0.8-1.6,1.2-2.4
				c0.4-0.8,0.8-1.6,1.1-2.3C104.9-345.1,105.2-345.6,105.2-345.9z M111.1-365.5c-0.2-0.2-0.5-0.5-0.9-0.7c-0.4-0.2-0.8-0.5-1.2-0.8
				c-0.4-0.2-0.8-0.5-1.3-0.7c-0.4-0.2-0.8-0.4-1.1-0.5c-0.6,2-1.3,4.1-2.1,6.1c-0.8,2-1.5,4-2.3,5.9c-0.3,0.6-0.5,1.2-0.8,1.6
				c-0.2,0.4-0.4,0.9-0.6,1.5c-0.1,0.3-0.1,0.5,0,0.8c0.1,0.3,0.2,0.5,0.4,0.7c0,0.1,0.2,0.2,0.6,0.5c0.4,0.3,0.8,0.6,1.2,0.9
				c0.4,0.3,0.8,0.6,1.1,0.8c0.4,0.2,0.5,0.3,0.6,0.2c0.6-1.5,1.2-2.9,1.7-4.1c0.5-1.2,0.9-2.3,1.4-3.5c0.4-1.2,0.9-2.5,1.4-3.8
				C109.8-361.9,110.4-363.6,111.1-365.5z M112.6-367.6c1.1-0.7,2.1-1.4,2.9-2c0.8-0.7,1.3-1.1,1.6-1.4c-0.7-0.7-1.5-1.3-2.2-1.9
				c-0.8-0.6-1.5-1.1-2.2-1.5c-0.7-0.4-1.2-0.5-1.7-0.4s-0.8,0.3-1.2,0.5c-0.5,0.5-1.1,1-1.7,1.4c-0.6,0.4-1.2,1-1.8,1.7
				c1.1,0.8,2.2,1.4,3.4,2C110.8-368.5,111.8-368,112.6-367.6z M118.6-367.7l-3.3,2.2c-1.5,3.5-2.8,6.8-4,9.7
				c-1.1,2.9-2.6,5.6-3.3,7.6c0.5-0.2,1.6-0.6,2-0.8c0.4-0.2,0.8-0.4,1.1-0.6c0.4-0.6,0.8-1.4,1.3-2.5c0.5-1,1.1-2.2,1.6-3.4
				c0.6-1.2,1.1-2.4,1.6-3.6c0.5-1.2,0.9-2.2,1.3-3.1c0.3-0.9,0.6-1.8,0.9-2.7C118.1-365.8,118.3-366.9,118.6-367.7z"/>
			<g>
				<path class="st1" d="M206.2-271.8c-0.2,0.4-0.4,0.8-0.7,1.3c-0.2,0.5-0.5,0.9-0.8,1.4c-0.3,0.4-0.6,0.8-1,1.1
					c-0.3,0.3-0.7,0.5-1.2,0.5c-0.3,0.7-0.5,1.3-0.7,1.7s-0.4,1-0.7,1.7c-0.7,1.7-1.3,3.2-1.9,4.7c-0.6,1.5-1.2,3-1.9,4.5
					c-0.4,0.9-0.8,1.6-1.3,2.1c-0.5,0.5-1.1,0.8-1.8,1c-1.4,0.4-3,0.5-4.8,0.4c-1.8-0.1-3.5-0.3-5-0.6c-1-0.3-2-0.6-3.1-1
					c-1.1-0.4-2.1-0.9-3-1.4c-1-0.5-1.8-1.1-2.6-1.7c-0.8-0.6-1.4-1.2-1.9-1.9c-0.5-0.8-0.7-1.6-0.8-2.3c0-1,0.1-2,0.4-3
					c0.2-0.9,0.4-1.9,0.6-2.9c0.2-0.8,0.3-1.6,0.5-2.4c0.2-0.8,0.3-1.6,0.4-2.5c0.1-0.6,0.2-1.2,0.3-1.9c0.1-0.7,0.2-1.3,0.3-1.9
					c-0.2-0.2-0.4-0.5-0.6-0.7c-0.2-0.3-0.3-0.6-0.5-1c-0.1-0.4-0.2-1-0.2-1.6s0.1-1.4,0.2-2.4c0.1-0.8,0.4-1.5,0.8-2.1
					c0.4-0.6,1-1.1,1.7-1.3c1.2-0.5,2.6-0.8,4-0.9s2.8-0.1,4.2,0.1c1.4,0.1,2.8,0.4,4.2,0.7c1.4,0.3,2.7,0.6,4,1
					c1.3,0.3,2.6,0.8,3.8,1.3c1.3,0.5,2.5,1.1,3.6,1.7c1.1,0.6,2.2,1.3,3.1,2.1c0.9,0.8,1.6,1.6,2.2,2.4c0.4,0.6,0.5,1.2,0.5,1.9
					C206.6-273,206.5-272.3,206.2-271.8z M179.5-280.8c2.1,1.3,4.1,2.2,5.9,2.7c1.8,0.5,3.5,1,5.1,1.5c0.8,0.2,1.8,0.4,2.8,0.7
					c1,0.2,2.1,0.4,3.2,0.6c1.1,0.2,2.1,0.3,3.1,0.4s1.9,0.1,2.6,0.2c0.6,0,0.9-0.1,0.8-0.4s-0.3-0.5-0.6-0.8
					c-0.7-0.5-1.5-1-2.4-1.5c-0.9-0.5-1.8-0.9-2.7-1.3c-0.9-0.4-1.8-0.8-2.7-1.1c-0.9-0.3-1.7-0.6-2.4-0.8c-2.6-0.7-5-1.2-7.1-1.6
					c-2.1-0.3-3.9-0.3-5.4,0c-0.3,0.1-0.5,0.2-0.8,0.5C178.9-281.4,179-281.1,179.5-280.8z M200-267.6c-1.8,0-3.6-0.1-5.4-0.3
					c-1.7-0.3-3.5-0.6-5.3-1.1c-1.4-0.4-3-0.9-4.7-1.4c-1.7-0.6-3.9-1.6-6.5-3c-0.4,2.2-0.8,4.1-1.2,5.9c-0.4,1.8-0.8,3.7-1.1,5.8
					c0,0.6-0.1,1.1,0,1.5c0,0.4,0.2,0.8,0.6,1.2c1.2,1.2,2.6,2.2,4.1,2.9c1.5,0.7,3,1.3,4.4,1.6c1.7,0.5,3.3,0.7,4.6,0.7
					c1.4,0,2.6-0.1,3.7-0.4c0.5-0.1,0.9-0.4,1.3-0.7c0.4-0.3,0.7-0.8,1-1.5c0.6-1.4,1.2-2.6,1.6-3.8c0.5-1.2,0.9-2.4,1.4-3.6
					L200-267.6z M203.6-272.6c-2.3,0-4.6-0.1-6.9-0.4c-2.3-0.3-4.5-0.7-6.6-1.3c-3-0.8-5.6-1.7-7.8-2.7c-2.1-1-4.1-2.1-5.8-3.2
					c-0.1,0.9-0.1,1.7-0.2,2.2s0.4,1.1,1.1,1.5c1.9,1.3,3.9,2.3,5.9,3s4,1.4,5.9,1.8c1.9,0.5,3.8,0.8,5.8,1.2c2,0.3,3.7,0.5,5.3,0.5
					c1,0,1.8-0.3,2.2-0.8C203-271.3,203.3-271.9,203.6-272.6z"/>
				<path class="st1" d="M194.4-260.3c-0.3,1-0.8,1.8-1.4,2.4c-0.7,0.6-1.5,1-2.3,1.3c-0.9,0.3-1.8,0.4-2.7,0.4
					c-1,0-1.9-0.2-2.7-0.4c-0.9-0.2-1.7-0.6-2.5-1.1c-0.8-0.5-1.5-1-2-1.7c-0.6-0.6-1-1.4-1.2-2.2c-0.2-0.8-0.2-1.6,0-2.5
					c0.3-1,0.7-1.8,1.4-2.4s1.4-1.1,2.3-1.5c0.9-0.3,1.8-0.5,2.8-0.5c1,0,2,0.1,2.8,0.3c2.3,0.6,3.9,1.6,4.8,3
					C194.6-263.7,194.9-262.1,194.4-260.3z M182-265.2c0,0.1,0,0.2,0.2,0.3c-0.2,0.4-0.3,0.8-0.3,1.1c0,0.3,0.2,0.5,0.5,0.7
					c0.5,0.2,1,0.3,1.4,0.2c0.3,0,0.4-0.2,0.3-0.4c0-0.2-0.1-0.2-0.3-0.2c-0.2,0-0.4,0.1-0.6,0.1c-0.2,0-0.3,0-0.5-0.1
					c-0.2-0.2-0.3-0.3-0.3-0.5c0.3,0,0.5,0,0.7,0.1c0.2,0,0.4,0.1,0.7,0.2c0.2,0.1,0.4,0,0.4-0.1c0.1-0.2,0-0.3-0.3-0.4
					c-0.2-0.1-0.5-0.1-0.7-0.2c-0.2-0.1-0.5-0.1-0.7,0l0.1-0.4c0.2,0,0.5,0,0.8,0.1c0.3,0.1,0.5,0.1,0.6,0.2
					c0.2,0.1,0.4,0.1,0.4-0.1c0.1-0.2,0-0.4-0.3-0.5c-0.2-0.1-0.5-0.2-0.9-0.3c-0.4-0.1-0.7-0.1-1-0.1
					C182.2-265.4,182.1-265.3,182-265.2z M184.3-262.1c0-0.2-0.1-0.3-0.4-0.4l-2-0.4c-0.3-0.1-0.5,0-0.5,0.2c0,0.1,0.1,0.3,0.4,0.3
					l0.8,0.1l-0.2,0.7c-0.1,0.2,0,0.4,0.2,0.4c0.2,0.1,0.3,0,0.4-0.3l0.2-0.8l0.7,0.1C184.1-261.9,184.2-261.9,184.3-262.1z
					 M186.4-263.1c-0.1-0.2-0.3-0.3-0.7-0.4c-0.2-0.1-0.4-0.1-0.5-0.1c-0.3,0-0.4,0.1-0.3,0.3c0,0.1,0.1,0.2,0.1,0.1s0.1,0,0.2,0
					l0.4,0.1c0.1,0,0.2,0.1,0.2,0.2c0,0.1,0,0.3-0.2,0.4c-0.2,0.2-0.4,0.4-0.7,0.5c-0.2,0-0.3,0.2-0.2,0.3c0.1,0.2,0.2,0.3,0.3,0.2
					c0.2,0,0.3-0.1,0.4-0.1c0.3-0.2,0.6-0.5,0.8-0.8C186.3-262.6,186.4-262.9,186.4-263.1z M187.6-262.4c0.1-0.4,0.2-0.8,0.2-1
					c0-0.3-0.1-0.4-0.3-0.5c-0.1,0-0.2,0.1-0.2,0.3l-0.2,0.9l-0.3-0.1c-0.2-0.1-0.4,0-0.4,0.1c0,0.1,0,0.2,0.2,0.2
					c0.2,0.1,0.3,0.1,0.4,0.2l-0.5,0.8c-0.1,0.2-0.1,0.4,0.1,0.5c0.2,0.1,0.4,0,0.5-0.2c0.2-0.2,0.3-0.4,0.3-0.6
					C187.5-261.9,187.6-262.1,187.6-262.4z M188.7-262.4c0.1-0.3,0.1-0.5,0.1-0.8c0-0.3-0.1-0.5-0.3-0.6c-0.1,0-0.2,0.1-0.2,0.3
					c0,0.3-0.1,0.6-0.2,1.1c-0.2,0.6-0.4,1.2-0.7,1.6c-0.2,0.2-0.1,0.4,0.1,0.6c0.2,0.2,0.4,0.2,0.6-0.2c0.2-0.5,0.4-0.9,0.5-1.4
					C188.6-261.9,188.6-262.1,188.7-262.4z M190.9-260.5c-0.1-0.2-0.2-0.3-0.4-0.3c-0.2,0-0.4,0.1-0.5,0c-0.3-0.1-0.4-0.3-0.4-0.6
					c0-0.1,0.1-0.2,0.1-0.3c0-0.1,0.1-0.2,0.2-0.3l0.6,0.2c0.1,0,0.2,0,0.3,0s0.1-0.1,0.2-0.2c0.1-0.2,0-0.3-0.3-0.4
					c-0.2-0.1-0.5-0.1-0.7-0.1c-0.2,0-0.4,0-0.5,0c-0.3,0-0.4,0.1-0.4,0.2s0,0.2,0.1,0.2c0.1,0.1,0.2,0.1,0.2,0.1
					c-0.1,0.2-0.2,0.4-0.3,0.6c-0.1,0.4-0.1,0.7,0,0.9c0.1,0.2,0.4,0.4,0.7,0.5c0.2,0.1,0.5,0.1,0.8,0
					C190.8-260.2,190.9-260.3,190.9-260.5z M192.6-261.1c0.1-0.5,0.1-0.8,0.1-1.1c0-0.4-0.1-0.5-0.3-0.5c-0.1,0-0.2,0.1-0.2,0.3
					c0,0.2,0,0.4-0.1,0.6c-0.1,0.2-0.1,0.3-0.1,0.4c-0.5-0.2-0.8-0.3-1.1-0.2c-0.3,0-0.3,0.1-0.2,0.3c0,0.1,0.2,0.1,0.4,0.1
					c0.2,0,0.5,0.1,0.8,0.3c0,0.1-0.1,0.3-0.2,0.5c-0.1,0.2-0.1,0.4-0.2,0.5c-0.1,0.4,0,0.6,0.2,0.7c0.1,0,0.2,0,0.3,0
					c0.1-0.1,0.2-0.2,0.3-0.5C192.4-260.2,192.5-260.6,192.6-261.1z"/>
			</g>
		</g>
		<g>
			<g>
				<path class="st1" d="M463.2-530.5c1.3,0.6,2.7,1.1,4.3,1.6c1.3,0.4,2.7,0.6,4,0.8c1.3,0.1,2.8,0,4.3-0.2
					c0.4-0.1,0.9-0.3,1.4-0.6c0.5-0.3,0.7-0.8,0.7-1.4c-0.1-0.6-0.4-1-0.8-1.1s-1-0.2-1.6-0.1c-0.9,0.2-2,0.2-3.2,0.1
					c-1.2-0.1-2.5-0.3-3.8-0.7c-1.5-0.4-2.9-0.9-4.2-1.5c-1.3-0.6-2.3-1.2-2.9-1.8c-0.3-0.3-0.7-0.5-1.1-0.6
					c-0.4-0.1-0.8,0.1-1.1,0.4c-0.3,0.3-0.4,0.8-0.3,1.3s0.4,1,0.9,1.5C460.7-531.8,461.9-531.1,463.2-530.5z"/>
				<path class="st1" d="M481.8-529c-0.5,2-1.1,3.6-1.7,4.8s-1.1,2.2-1.8,3.2c-0.5,0.8-1.1,1.6-1.8,2.2c-0.6,0.6-1.3,1.3-2.1,1.9
					c-0.4,0.3-0.9,0.5-1.5,0.8c-0.6,0.3-1.4,0.5-2.3,0.6c-0.9,0.1-1.9,0.2-2.9,0.2c-1.1,0-2.2-0.2-3.3-0.5c-2.9-0.8-5-1.7-6.5-2.8
					c-1.4-1.1-2.5-2.4-3.2-3.9c-0.6-1.2-1-2.6-1.3-4.1c-0.3-1.5-0.2-3.4,0.1-5.5c0.2-1.1,0.4-2.1,0.8-3.1c0.3-1,0.7-1.9,1.1-2.8
					c0.2-0.4,0.4-0.9,0.8-1.5c0.4-0.6,0.7-1.2,1.2-1.8c0.4-0.6,0.9-1.1,1.3-1.7c0.4-0.6,0.8-1,1.1-1.3c0.7-0.9,1.4-1.6,2-2.2
					c0.6-0.6,1.4-1.2,2.2-1.7c1-0.6,2.2-1,3.5-1.1c1.3-0.1,2.7-0.1,4.4,0c0.7-0.8,1.4-1.7,2-2.7c0.6-1,1.3-1.9,2-2.8
					c0.5-0.6,0.9-0.9,1.3-0.9c0.4,0,0.8,0.1,1.3,0.4c0.2,0.1,0.4,0.3,0.4,0.6c0,0.2,0,0.5-0.1,0.8s-0.2,0.6-0.4,0.9
					c-0.2,0.3-0.3,0.5-0.4,0.8c-0.4,0.7-0.9,1.3-1.4,2c-0.5,0.7-0.9,1.4-1.4,2c1.1,0.3,2.1,0.7,3,1.2c0.9,0.5,1.6,1,2,1.5
					c0.3,0.3,0.6,0.7,0.9,1.2s0.6,1,0.6,1.4c0.3,1.1,0.5,2.3,0.6,3.5c0.1,1.2,0.2,2.5,0.2,3.7c0,1.3-0.1,2.5-0.2,3.6
					C482.3-531,482.1-530,481.8-529z M465.8-545.4c0.3,0.3,0.7,0.6,1.2,0.9c0.7,0.4,1.4,0.7,2.2,1c0.8,0.3,1.6,0.5,2.4,0.6
					c0.4,0.1,0.9,0.2,1.5,0.3c0.5,0.1,1.1,0.1,1.6,0.2c0.5,0.1,1,0.1,1.5,0.1c0.5,0,0.9,0,1.2-0.1c0.7-0.1,1-0.4,0.9-0.9
					c-0.1-0.5-0.4-0.9-0.9-1.3c-0.2-0.1-0.4-0.3-0.8-0.4c-0.3-0.2-0.7-0.3-1.1-0.5c-0.4-0.2-0.7-0.3-1-0.4c-0.3-0.1-0.6-0.2-0.7-0.2
					c-0.5,0.6-1,1.1-1.5,1.4c-0.5,0.3-1,0.3-1.4,0c-0.5-0.2-0.7-0.6-0.7-1c0-0.4,0.1-0.9,0.4-1.4c-0.3-0.1-0.8-0.1-1.3-0.1
					c-0.5,0-1.1,0-1.6,0c-0.5,0.1-1,0.2-1.4,0.3c-0.4,0.1-0.7,0.3-0.8,0.6C465.4-546.1,465.5-545.8,465.8-545.4z M478.5-529.5
					c0.2-0.8,0.4-1.7,0.5-2.7c0.1-1,0.1-2,0.1-3c0-1,0-1.9-0.1-2.7c-0.1-0.8-0.2-1.4-0.4-1.8c-1.2,0.3-2.5,0.4-3.9,0.3
					c-1.4-0.1-2.7-0.3-3.9-0.5c-1.3-0.3-2.7-0.7-4-1.2s-2.4-1.2-3.3-2.1c-1.2,1.3-2.4,2.6-3.4,4c-1.1,1.4-1.9,2.9-2.4,4.6
					c-0.3,0.9-0.5,1.6-0.6,2.4c-0.2,1-0.3,1.9-0.3,2.9c0,0.9,0,1.9,0.2,2.9c0,0.6,0.2,1.1,0.3,1.5c0.2,0.5,0.4,0.9,0.6,1.3
					c0.5,0.9,1.3,1.8,2.2,2.6s2.4,1.5,4.5,2c1.9,0.5,4,0.5,6.1,0c0.8-0.2,1.4-0.6,2-1c0.5-0.5,1.1-0.9,1.6-1.5
					c1.1-1.2,2-2.4,2.6-3.7C477.6-526.6,478.1-528,478.5-529.5z"/>
			</g>
			<path class="st1" d="M559.6-446.8c-0.4,1.4-1,2.8-1.6,4.3c-0.5,1.2-1,2.4-1.6,3.7c-0.6,1.2-1.2,2.5-1.7,3.7
				c-0.7,1.6-1.5,2.8-2.5,3.8c-1,0.9-2.2,1.6-3.7,2.1c-0.5,1-0.9,2.1-1.4,3.2c-0.4,1.1-0.9,2.1-1.4,3c-0.4,1.1-0.9,2-1.5,2.7
				c-0.9,0.9-1.9,1.4-3.3,1.4c-0.5-0.1-1.1-0.4-1.6-0.7s-1-0.6-1.3-0.9c-0.2-0.1-0.3-0.3-0.5-0.6c-0.2-0.3-0.3-0.5-0.5-0.8
				c-0.1-0.3-0.2-0.6-0.3-0.9s0-0.5,0.1-0.7c0.7-1.7,1.3-3.1,1.9-4.3c0.6-1.2,1.3-2.5,2-4c-0.9-0.6-1.4-1-1.7-1.3
				c-0.3-0.3-0.6-0.6-0.8-1c-0.3-0.2-0.6-0.7-0.8-1.3s-0.1-1.3,0.2-2.1c0.2-0.4,0.5-1.1,0.9-2c0.4-0.9,0.9-2.1,1.6-3.7
				c0.7-1.8,1.4-3.6,1.9-5.4c0.5-1.8,1-3.8,1.4-6c0.1-0.5,0.4-1.2,0.8-1.9c0.7-1,1.6-1.8,2.5-2.4s1.8-1.1,2.5-1.5
				c1-0.6,1.9-0.8,2.7-0.4c0.5,0.2,1.1,0.6,1.7,0.9c0.6,0.4,1.2,0.8,1.8,1.2c0.6,0.4,1.1,0.8,1.6,1.2c0.5,0.4,0.9,0.8,1.2,1.1
				c1,1,1.7,2,1.9,2.9c0.2,0.9,0.3,1.9,0.1,3C560.3-449.6,560-448.2,559.6-446.8z M545.2-429.6l-1.7-1.1c-0.4,0.6-0.9,1.7-1.7,3.2
				c-0.8,1.5-1.6,3.1-2.4,4.9c0.3,0.3,0.6,0.5,0.9,0.7c0.3,0.1,0.6,0.3,0.9,0.5c0.3-0.5,0.6-1.1,1-1.9c0.4-0.8,0.8-1.6,1.2-2.4
				s0.8-1.6,1.1-2.3C544.9-428.8,545.2-429.3,545.2-429.6z M551.1-449.3c-0.2-0.2-0.5-0.5-0.9-0.7c-0.4-0.2-0.8-0.5-1.2-0.8
				c-0.4-0.2-0.8-0.5-1.3-0.7c-0.4-0.2-0.8-0.4-1.1-0.5c-0.6,2-1.3,4.1-2.1,6.1c-0.8,2-1.5,4-2.3,5.9c-0.3,0.6-0.5,1.2-0.8,1.6
				c-0.2,0.4-0.4,0.9-0.6,1.5c-0.1,0.3-0.1,0.5,0,0.8c0.1,0.3,0.2,0.5,0.4,0.7c0,0.1,0.2,0.2,0.6,0.5c0.4,0.3,0.8,0.6,1.2,0.9
				c0.4,0.3,0.8,0.6,1.1,0.8c0.4,0.2,0.5,0.3,0.6,0.2c0.6-1.5,1.2-2.9,1.7-4.1c0.5-1.2,0.9-2.3,1.4-3.5c0.4-1.2,0.9-2.5,1.4-3.8
				C549.8-445.7,550.4-447.3,551.1-449.3z M552.6-451.3c1.1-0.7,2.1-1.4,2.9-2c0.8-0.7,1.3-1.1,1.6-1.4c-0.7-0.7-1.5-1.3-2.2-1.9
				c-0.8-0.6-1.5-1.1-2.2-1.5c-0.7-0.4-1.2-0.5-1.7-0.4s-0.8,0.3-1.2,0.5c-0.5,0.5-1.1,1-1.7,1.4s-1.2,1-1.8,1.7
				c1.1,0.8,2.2,1.4,3.4,2C550.8-452.3,551.8-451.7,552.6-451.3z M558.6-451.5l-3.3,2.2c-1.5,3.5-2.8,6.8-4,9.7
				c-1.1,2.9-2.6,5.6-3.3,7.6c0.5-0.2,1.6-0.6,2-0.8c0.4-0.2,0.8-0.4,1.1-0.6c0.4-0.6,0.8-1.4,1.3-2.5c0.5-1,1.1-2.2,1.6-3.4
				c0.6-1.2,1.1-2.4,1.6-3.6c0.5-1.2,0.9-2.2,1.3-3.1c0.3-0.9,0.6-1.8,0.9-2.7C558.1-449.6,558.3-450.6,558.6-451.5z"/>
			<g>
				<path class="st1" d="M646.2-355.5c-0.2,0.4-0.4,0.8-0.7,1.3c-0.2,0.5-0.5,0.9-0.8,1.4s-0.6,0.8-1,1.1c-0.3,0.3-0.7,0.5-1.2,0.5
					c-0.3,0.7-0.5,1.3-0.7,1.7c-0.2,0.5-0.4,1-0.7,1.7c-0.7,1.7-1.3,3.2-1.9,4.7s-1.2,3-1.9,4.5c-0.4,0.9-0.8,1.6-1.3,2.1
					c-0.5,0.5-1.1,0.8-1.8,1c-1.4,0.4-3,0.5-4.8,0.4c-1.8-0.1-3.5-0.3-5-0.6c-1-0.3-2-0.6-3.1-1c-1.1-0.4-2.1-0.9-3-1.4
					c-1-0.5-1.8-1.1-2.6-1.7c-0.8-0.6-1.4-1.2-1.9-1.9c-0.5-0.8-0.7-1.6-0.8-2.3c0-1,0.1-2,0.4-3c0.2-0.9,0.4-1.9,0.6-2.9
					c0.2-0.8,0.3-1.6,0.5-2.4c0.2-0.8,0.3-1.6,0.4-2.5c0.1-0.6,0.2-1.2,0.3-1.9c0.1-0.7,0.2-1.3,0.3-1.9c-0.2-0.2-0.4-0.5-0.6-0.7
					s-0.3-0.6-0.5-1c-0.1-0.4-0.2-1-0.2-1.6s0.1-1.4,0.2-2.4c0.1-0.8,0.4-1.5,0.8-2.1c0.4-0.6,1-1.1,1.7-1.3c1.2-0.5,2.6-0.8,4-0.9
					c1.4-0.1,2.8-0.1,4.2,0.1c1.4,0.1,2.8,0.4,4.2,0.7s2.7,0.6,4,1c1.3,0.3,2.6,0.8,3.8,1.3c1.3,0.5,2.5,1.1,3.6,1.7
					c1.1,0.6,2.2,1.3,3.1,2.1c0.9,0.8,1.6,1.6,2.2,2.4c0.4,0.6,0.5,1.2,0.5,1.9C646.6-356.7,646.5-356.1,646.2-355.5z M619.5-364.5
					c2.1,1.3,4.1,2.2,5.9,2.7c1.8,0.5,3.5,1,5.1,1.5c0.8,0.2,1.8,0.4,2.8,0.7c1,0.2,2.1,0.4,3.2,0.6s2.1,0.3,3.1,0.4
					c1,0.1,1.9,0.1,2.6,0.2c0.6,0,0.9-0.1,0.8-0.4c-0.1-0.3-0.3-0.5-0.6-0.8c-0.7-0.5-1.5-1-2.4-1.5c-0.9-0.5-1.8-0.9-2.7-1.3
					c-0.9-0.4-1.8-0.8-2.7-1.1c-0.9-0.3-1.7-0.6-2.4-0.8c-2.6-0.7-5-1.2-7.1-1.6c-2.1-0.3-3.9-0.3-5.4,0c-0.3,0.1-0.5,0.2-0.8,0.5
					C618.9-365.1,619-364.8,619.5-364.5z M640-351.4c-1.8,0-3.6-0.1-5.4-0.3s-3.5-0.6-5.3-1.1c-1.4-0.4-3-0.9-4.7-1.4
					c-1.7-0.6-3.9-1.6-6.5-3c-0.4,2.2-0.8,4.1-1.2,5.9c-0.4,1.8-0.8,3.7-1.1,5.8c0,0.6-0.1,1.1,0,1.5c0,0.4,0.2,0.8,0.6,1.2
					c1.2,1.2,2.6,2.2,4.1,2.9c1.5,0.7,3,1.3,4.4,1.6c1.7,0.5,3.3,0.7,4.6,0.7c1.4,0,2.6-0.1,3.7-0.4c0.5-0.1,0.9-0.4,1.3-0.7
					c0.4-0.3,0.7-0.8,1-1.5c0.6-1.4,1.2-2.6,1.6-3.8c0.5-1.2,0.9-2.4,1.4-3.6L640-351.4z M643.6-356.3c-2.3,0-4.6-0.1-6.9-0.4
					c-2.3-0.3-4.5-0.7-6.6-1.3c-3-0.8-5.6-1.7-7.8-2.7c-2.1-1-4.1-2.1-5.8-3.2c-0.1,0.9-0.1,1.7-0.2,2.2c0,0.5,0.4,1.1,1.1,1.5
					c1.9,1.3,3.9,2.3,5.9,3c2,0.8,4,1.4,5.9,1.8s3.8,0.8,5.8,1.2c2,0.3,3.7,0.5,5.3,0.5c1,0,1.8-0.3,2.2-0.8
					C643-355,643.3-355.7,643.6-356.3z"/>
				<path class="st1" d="M634.4-344.1c-0.3,1-0.8,1.8-1.4,2.4c-0.7,0.6-1.5,1-2.3,1.3c-0.9,0.3-1.8,0.4-2.7,0.4
					c-1,0-1.9-0.2-2.7-0.4c-0.9-0.2-1.7-0.6-2.5-1.1c-0.8-0.5-1.5-1-2-1.7c-0.6-0.6-1-1.4-1.2-2.2c-0.2-0.8-0.2-1.6,0-2.5
					c0.3-1,0.7-1.8,1.4-2.4c0.7-0.6,1.4-1.1,2.3-1.5c0.9-0.3,1.8-0.5,2.8-0.5c1,0,2,0.1,2.8,0.3c2.3,0.6,3.9,1.6,4.8,3
					C634.6-347.5,634.9-345.9,634.4-344.1z M622-349c0,0.1,0,0.2,0.2,0.3c-0.2,0.4-0.3,0.8-0.3,1.1c0,0.3,0.2,0.5,0.5,0.7
					c0.5,0.2,1,0.3,1.4,0.2c0.3,0,0.4-0.2,0.3-0.4c0-0.2-0.1-0.2-0.3-0.2c-0.2,0-0.4,0.1-0.6,0.1c-0.2,0-0.3,0-0.5-0.1
					c-0.2-0.2-0.3-0.3-0.3-0.5c0.3,0,0.5,0,0.7,0.1c0.2,0,0.4,0.1,0.7,0.2c0.2,0.1,0.4,0,0.4-0.1c0.1-0.2,0-0.3-0.3-0.4
					s-0.5-0.1-0.7-0.2c-0.2-0.1-0.5-0.1-0.7,0l0.1-0.4c0.2,0,0.5,0,0.8,0.1c0.3,0.1,0.5,0.1,0.6,0.2c0.2,0.1,0.4,0.1,0.4-0.1
					c0.1-0.2,0-0.4-0.3-0.5c-0.2-0.1-0.5-0.2-0.9-0.3c-0.4-0.1-0.7-0.1-1-0.1C622.2-349.1,622.1-349.1,622-349z M624.3-345.8
					c0-0.2-0.1-0.3-0.4-0.4l-2-0.4c-0.3-0.1-0.5,0-0.5,0.2c0,0.1,0.1,0.3,0.4,0.3l0.8,0.1l-0.2,0.7c-0.1,0.2,0,0.4,0.2,0.4
					c0.2,0.1,0.3,0,0.4-0.3l0.2-0.8l0.7,0.1C624.1-345.7,624.2-345.7,624.3-345.8z M626.4-346.8c-0.1-0.2-0.3-0.3-0.7-0.4
					c-0.2-0.1-0.4-0.1-0.5-0.1c-0.3,0-0.4,0.1-0.3,0.3c0,0.1,0.1,0.2,0.1,0.1c0.1,0,0.1,0,0.2,0l0.4,0.1c0.1,0,0.2,0.1,0.2,0.2
					c0,0.1,0,0.3-0.2,0.4c-0.2,0.2-0.4,0.4-0.7,0.5c-0.2,0-0.3,0.2-0.2,0.3c0.1,0.2,0.2,0.3,0.3,0.2c0.2,0,0.3-0.1,0.4-0.1
					c0.3-0.2,0.6-0.5,0.8-0.8C626.3-346.4,626.4-346.6,626.4-346.8z M627.6-346.1c0.1-0.4,0.2-0.8,0.2-1c0-0.3-0.1-0.4-0.3-0.5
					c-0.1,0-0.2,0.1-0.2,0.3l-0.2,0.9l-0.3-0.1c-0.2-0.1-0.4,0-0.4,0.1c0,0.1,0,0.2,0.2,0.2c0.2,0.1,0.3,0.1,0.4,0.2l-0.5,0.8
					c-0.1,0.2-0.1,0.4,0.1,0.5c0.2,0.1,0.4,0,0.5-0.2c0.2-0.2,0.3-0.4,0.3-0.6C627.5-345.6,627.6-345.9,627.6-346.1z M628.7-346.1
					c0.1-0.3,0.1-0.5,0.1-0.8c0-0.3-0.1-0.5-0.3-0.6c-0.1,0-0.2,0.1-0.2,0.3c0,0.3-0.1,0.6-0.2,1.1c-0.2,0.6-0.4,1.2-0.7,1.6
					c-0.2,0.2-0.1,0.4,0.1,0.6c0.2,0.2,0.4,0.2,0.6-0.2c0.2-0.5,0.4-0.9,0.5-1.4C628.6-345.6,628.6-345.8,628.7-346.1z M630.9-344.2
					c-0.1-0.2-0.2-0.3-0.4-0.3c-0.2,0-0.4,0.1-0.5,0c-0.3-0.1-0.4-0.3-0.4-0.6c0-0.1,0.1-0.2,0.1-0.3c0-0.1,0.1-0.2,0.2-0.3l0.6,0.2
					c0.1,0,0.2,0,0.3,0c0.1,0,0.1-0.1,0.2-0.2c0.1-0.2,0-0.3-0.3-0.4c-0.2-0.1-0.5-0.1-0.7-0.1c-0.2,0-0.4,0-0.5,0
					c-0.3,0-0.4,0.1-0.4,0.2c0,0.1,0,0.2,0.1,0.2c0.1,0.1,0.2,0.1,0.2,0.1c-0.1,0.2-0.2,0.4-0.3,0.6c-0.1,0.4-0.1,0.7,0,0.9
					c0.1,0.2,0.4,0.4,0.7,0.5c0.2,0.1,0.5,0.1,0.8,0C630.8-343.9,630.9-344.1,630.9-344.2z M632.6-344.8c0.1-0.5,0.1-0.8,0.1-1.1
					c0-0.4-0.1-0.5-0.3-0.5c-0.1,0-0.2,0.1-0.2,0.3c0,0.2,0,0.4-0.1,0.6c-0.1,0.2-0.1,0.3-0.1,0.4c-0.5-0.2-0.8-0.3-1.1-0.2
					c-0.3,0-0.3,0.1-0.2,0.3c0,0.1,0.2,0.1,0.4,0.1c0.2,0,0.5,0.1,0.8,0.3c0,0.1-0.1,0.3-0.2,0.5c-0.1,0.2-0.1,0.4-0.2,0.5
					c-0.1,0.4,0,0.6,0.2,0.7c0.1,0,0.2,0,0.3,0c0.1-0.1,0.2-0.2,0.3-0.5C632.4-343.9,632.5-344.4,632.6-344.8z"/>
			</g>
		</g>
		<g>
			<path class="st1" d="M339.6-530.6c-0.4,1.4-1,2.8-1.6,4.3c-0.5,1.2-1,2.4-1.6,3.7c-0.6,1.2-1.2,2.5-1.7,3.7
				c-0.7,1.6-1.5,2.8-2.5,3.8c-1,0.9-2.2,1.6-3.7,2.1c-0.5,1-0.9,2.1-1.4,3.2c-0.4,1.1-0.9,2.1-1.4,3c-0.4,1.1-0.9,2-1.5,2.7
				c-0.9,0.9-1.9,1.4-3.3,1.4c-0.5-0.1-1.1-0.4-1.6-0.7c-0.6-0.3-1-0.6-1.3-0.9c-0.2-0.1-0.3-0.3-0.5-0.6c-0.2-0.3-0.3-0.5-0.5-0.8
				c-0.1-0.3-0.2-0.6-0.3-0.9c0-0.3,0-0.5,0.1-0.7c0.7-1.7,1.3-3.1,1.9-4.3c0.6-1.2,1.3-2.5,2-4c-0.9-0.6-1.4-1-1.7-1.3
				s-0.6-0.6-0.8-1c-0.3-0.2-0.6-0.7-0.8-1.3c-0.2-0.6-0.1-1.3,0.2-2.1c0.2-0.4,0.5-1.1,0.9-2c0.4-0.9,0.9-2.1,1.6-3.7
				c0.7-1.8,1.4-3.6,1.9-5.4c0.5-1.8,1-3.8,1.4-6c0.1-0.5,0.4-1.2,0.8-1.9c0.7-1,1.6-1.8,2.5-2.4c1-0.6,1.8-1.1,2.5-1.5
				c1-0.6,1.9-0.8,2.7-0.4c0.5,0.2,1.1,0.6,1.7,0.9c0.6,0.4,1.2,0.8,1.8,1.2c0.6,0.4,1.1,0.8,1.6,1.2c0.5,0.4,0.9,0.8,1.2,1.1
				c1,1,1.7,2,1.9,2.9c0.2,0.9,0.3,1.9,0.1,3C340.3-533.3,340-532,339.6-530.6z M325.2-513.4l-1.7-1.1c-0.4,0.6-0.9,1.7-1.7,3.2
				c-0.8,1.5-1.6,3.1-2.4,4.9c0.3,0.3,0.6,0.5,0.9,0.7c0.3,0.1,0.6,0.3,0.9,0.5c0.3-0.5,0.6-1.1,1-1.9s0.8-1.6,1.2-2.4
				c0.4-0.8,0.8-1.6,1.1-2.3C324.9-512.6,325.2-513.1,325.2-513.4z M331.1-533c-0.2-0.2-0.5-0.5-0.9-0.7c-0.4-0.2-0.8-0.5-1.2-0.8
				c-0.4-0.2-0.8-0.5-1.3-0.7s-0.8-0.4-1.1-0.5c-0.6,2-1.3,4.1-2.1,6.1c-0.8,2-1.5,4-2.3,5.9c-0.3,0.6-0.5,1.2-0.8,1.6
				c-0.2,0.4-0.4,0.9-0.6,1.5c-0.1,0.3-0.1,0.5,0,0.8c0.1,0.3,0.2,0.5,0.4,0.7c0,0.1,0.2,0.2,0.6,0.5c0.4,0.3,0.8,0.6,1.2,0.9
				c0.4,0.3,0.8,0.6,1.1,0.8c0.4,0.2,0.5,0.3,0.6,0.2c0.6-1.5,1.2-2.9,1.7-4.1c0.5-1.2,0.9-2.3,1.4-3.5c0.4-1.2,0.9-2.5,1.4-3.8
				C329.8-529.4,330.4-531.1,331.1-533z M332.6-535.1c1.1-0.7,2.1-1.4,2.9-2c0.8-0.7,1.3-1.1,1.6-1.4c-0.7-0.7-1.5-1.3-2.2-1.9
				c-0.8-0.6-1.5-1.1-2.2-1.5s-1.2-0.5-1.7-0.4c-0.4,0.1-0.8,0.3-1.2,0.5c-0.5,0.5-1.1,1-1.7,1.4c-0.6,0.4-1.2,1-1.8,1.7
				c1.1,0.8,2.2,1.4,3.4,2C330.8-536,331.8-535.5,332.6-535.1z M338.6-535.2l-3.3,2.2c-1.5,3.5-2.8,6.8-4,9.7
				c-1.1,2.9-2.6,5.6-3.3,7.6c0.5-0.2,1.6-0.6,2-0.8c0.4-0.2,0.8-0.4,1.1-0.6c0.4-0.6,0.8-1.4,1.3-2.5c0.5-1,1.1-2.2,1.6-3.4
				c0.6-1.2,1.1-2.4,1.6-3.6c0.5-1.2,0.9-2.2,1.3-3.1c0.3-0.9,0.6-1.8,0.9-2.7C338.1-533.3,338.3-534.4,338.6-535.2z"/>
			<g>
				<path class="st1" d="M426.2-439.2c-0.2,0.4-0.4,0.8-0.7,1.3c-0.2,0.5-0.5,0.9-0.8,1.4c-0.3,0.4-0.6,0.8-1,1.1
					c-0.3,0.3-0.7,0.5-1.2,0.5c-0.3,0.7-0.5,1.3-0.7,1.7c-0.2,0.5-0.4,1-0.7,1.7c-0.7,1.7-1.3,3.2-1.9,4.7c-0.6,1.5-1.2,3-1.9,4.5
					c-0.4,0.9-0.8,1.6-1.3,2.1c-0.5,0.5-1.1,0.8-1.8,1c-1.4,0.4-3,0.5-4.8,0.4c-1.8-0.1-3.5-0.3-5-0.6c-1-0.3-2-0.6-3.1-1
					c-1.1-0.4-2.1-0.9-3-1.4s-1.8-1.1-2.6-1.7c-0.8-0.6-1.4-1.2-1.9-1.9c-0.5-0.8-0.7-1.6-0.8-2.3c0-1,0.1-2,0.4-3
					c0.2-0.9,0.4-1.9,0.6-2.9c0.2-0.8,0.3-1.6,0.5-2.4c0.2-0.8,0.3-1.6,0.4-2.5c0.1-0.6,0.2-1.2,0.3-1.9c0.1-0.7,0.2-1.3,0.3-1.9
					c-0.2-0.2-0.4-0.5-0.6-0.7c-0.2-0.3-0.3-0.6-0.5-1c-0.1-0.4-0.2-1-0.2-1.6c0-0.6,0.1-1.4,0.2-2.4c0.1-0.8,0.4-1.5,0.8-2.1
					c0.4-0.6,1-1.1,1.7-1.3c1.2-0.5,2.6-0.8,4-0.9c1.4-0.1,2.8-0.1,4.2,0.1c1.4,0.1,2.8,0.4,4.2,0.7c1.4,0.3,2.7,0.6,4,1
					c1.3,0.3,2.6,0.8,3.8,1.3c1.3,0.5,2.5,1.1,3.6,1.7c1.1,0.6,2.2,1.3,3.1,2.1c0.9,0.8,1.6,1.6,2.2,2.4c0.4,0.6,0.5,1.2,0.5,1.9
					C426.6-440.5,426.5-439.8,426.2-439.2z M399.5-448.3c2.1,1.3,4.1,2.2,5.9,2.7c1.8,0.5,3.5,1,5.1,1.5c0.8,0.2,1.8,0.4,2.8,0.7
					s2.1,0.4,3.2,0.6c1.1,0.2,2.1,0.3,3.1,0.4s1.9,0.1,2.6,0.2c0.6,0,0.9-0.1,0.8-0.4c-0.1-0.3-0.3-0.5-0.6-0.8
					c-0.7-0.5-1.5-1-2.4-1.5c-0.9-0.5-1.8-0.9-2.7-1.3c-0.9-0.4-1.8-0.8-2.7-1.1c-0.9-0.3-1.7-0.6-2.4-0.8c-2.6-0.7-5-1.2-7.1-1.6
					c-2.1-0.3-3.9-0.3-5.4,0c-0.3,0.1-0.5,0.2-0.8,0.5C398.9-448.9,399-448.6,399.5-448.3z M420-435.1c-1.8,0-3.6-0.1-5.4-0.3
					c-1.7-0.3-3.5-0.6-5.3-1.1c-1.4-0.4-3-0.9-4.7-1.4c-1.7-0.6-3.9-1.6-6.5-3c-0.4,2.2-0.8,4.1-1.2,5.9c-0.4,1.8-0.8,3.7-1.1,5.8
					c0,0.6-0.1,1.1,0,1.5c0,0.4,0.2,0.8,0.6,1.2c1.2,1.2,2.6,2.2,4.1,2.9c1.5,0.7,3,1.3,4.4,1.6c1.7,0.5,3.3,0.7,4.6,0.7
					c1.4,0,2.6-0.1,3.7-0.4c0.5-0.1,0.9-0.4,1.3-0.7c0.4-0.3,0.7-0.8,1-1.5c0.6-1.4,1.2-2.6,1.6-3.8c0.5-1.2,0.9-2.4,1.4-3.6
					L420-435.1z M423.6-440.1c-2.3,0-4.6-0.1-6.9-0.4c-2.3-0.3-4.5-0.7-6.6-1.3c-3-0.8-5.6-1.7-7.8-2.7c-2.1-1-4.1-2.1-5.8-3.2
					c-0.1,0.9-0.1,1.7-0.2,2.2c0,0.5,0.4,1.1,1.1,1.5c1.9,1.3,3.9,2.3,5.9,3c2,0.8,4,1.4,5.9,1.8c1.9,0.5,3.8,0.8,5.8,1.2
					c2,0.3,3.7,0.5,5.3,0.5c1,0,1.8-0.3,2.2-0.8S423.3-439.4,423.6-440.1z"/>
				<path class="st1" d="M414.4-427.8c-0.3,1-0.8,1.8-1.4,2.4c-0.7,0.6-1.5,1-2.3,1.3c-0.9,0.3-1.8,0.4-2.7,0.4
					c-1,0-1.9-0.2-2.7-0.4c-0.9-0.2-1.7-0.6-2.5-1.1c-0.8-0.5-1.5-1-2-1.7c-0.6-0.6-1-1.4-1.2-2.2c-0.2-0.8-0.2-1.6,0-2.5
					c0.3-1,0.7-1.8,1.4-2.4c0.7-0.6,1.4-1.1,2.3-1.5c0.9-0.3,1.8-0.5,2.8-0.5c1,0,2,0.1,2.8,0.3c2.3,0.6,3.9,1.6,4.8,3
					C414.6-431.2,414.9-429.6,414.4-427.8z M402-432.7c0,0.1,0,0.2,0.2,0.3c-0.2,0.4-0.3,0.8-0.3,1.1c0,0.3,0.2,0.5,0.5,0.7
					c0.5,0.2,1,0.3,1.4,0.2c0.3,0,0.4-0.2,0.3-0.4c0-0.2-0.1-0.2-0.3-0.2c-0.2,0-0.4,0.1-0.6,0.1c-0.2,0-0.3,0-0.5-0.1
					c-0.2-0.2-0.3-0.3-0.3-0.5c0.3,0,0.5,0,0.7,0.1c0.2,0,0.4,0.1,0.7,0.2c0.2,0.1,0.4,0,0.4-0.1c0.1-0.2,0-0.3-0.3-0.4
					c-0.2-0.1-0.5-0.1-0.7-0.2c-0.2-0.1-0.5-0.1-0.7,0l0.1-0.4c0.2,0,0.5,0,0.8,0.1c0.3,0.1,0.5,0.1,0.6,0.2
					c0.2,0.1,0.4,0.1,0.4-0.1c0.1-0.2,0-0.4-0.3-0.5c-0.2-0.1-0.5-0.2-0.9-0.3c-0.4-0.1-0.7-0.1-1-0.1
					C402.2-432.9,402.1-432.8,402-432.7z M404.3-429.6c0-0.2-0.1-0.3-0.4-0.4l-2-0.4c-0.3-0.1-0.5,0-0.5,0.2c0,0.1,0.1,0.3,0.4,0.3
					l0.8,0.1l-0.2,0.7c-0.1,0.2,0,0.4,0.2,0.4c0.2,0.1,0.3,0,0.4-0.3l0.2-0.8l0.7,0.1C404.1-429.4,404.2-429.4,404.3-429.6z
					 M406.4-430.6c-0.1-0.2-0.3-0.3-0.7-0.4c-0.2-0.1-0.4-0.1-0.5-0.1c-0.3,0-0.4,0.1-0.3,0.3c0,0.1,0.1,0.2,0.1,0.1s0.1,0,0.2,0
					l0.4,0.1c0.1,0,0.2,0.1,0.2,0.2c0,0.1,0,0.3-0.2,0.4c-0.2,0.2-0.4,0.4-0.7,0.5c-0.2,0-0.3,0.2-0.2,0.3c0.1,0.2,0.2,0.3,0.3,0.2
					c0.2,0,0.3-0.1,0.4-0.1c0.3-0.2,0.6-0.5,0.8-0.8C406.3-430.1,406.4-430.4,406.4-430.6z M407.6-429.9c0.1-0.4,0.2-0.8,0.2-1
					c0-0.3-0.1-0.4-0.3-0.5c-0.1,0-0.2,0.1-0.2,0.3l-0.2,0.9l-0.3-0.1c-0.2-0.1-0.4,0-0.4,0.1c0,0.1,0,0.2,0.2,0.2
					c0.2,0.1,0.3,0.1,0.4,0.2l-0.5,0.8c-0.1,0.2-0.1,0.4,0.1,0.5c0.2,0.1,0.4,0,0.5-0.2c0.2-0.2,0.3-0.4,0.3-0.6
					S407.6-429.6,407.6-429.9z M408.7-429.9c0.1-0.3,0.1-0.5,0.1-0.8c0-0.3-0.1-0.5-0.3-0.6c-0.1,0-0.2,0.1-0.2,0.3
					c0,0.3-0.1,0.6-0.2,1.1c-0.2,0.6-0.4,1.2-0.7,1.6c-0.2,0.2-0.1,0.4,0.1,0.6c0.2,0.2,0.4,0.2,0.6-0.2c0.2-0.5,0.4-0.9,0.5-1.4
					C408.6-429.4,408.6-429.6,408.7-429.9z M410.9-427.9c-0.1-0.2-0.2-0.3-0.4-0.3c-0.2,0-0.4,0.1-0.5,0c-0.3-0.1-0.4-0.3-0.4-0.6
					c0-0.1,0.1-0.2,0.1-0.3c0-0.1,0.1-0.2,0.2-0.3l0.6,0.2c0.1,0,0.2,0,0.3,0c0.1,0,0.1-0.1,0.2-0.2c0.1-0.2,0-0.3-0.3-0.4
					c-0.2-0.1-0.5-0.1-0.7-0.1c-0.2,0-0.4,0-0.5,0c-0.3,0-0.4,0.1-0.4,0.2s0,0.2,0.1,0.2c0.1,0.1,0.2,0.1,0.2,0.1
					c-0.1,0.2-0.2,0.4-0.3,0.6c-0.1,0.4-0.1,0.7,0,0.9c0.1,0.2,0.4,0.4,0.7,0.5c0.2,0.1,0.5,0.1,0.8,0
					C410.8-427.7,410.9-427.8,410.9-427.9z M412.6-428.6c0.1-0.5,0.1-0.8,0.1-1.1c0-0.4-0.1-0.5-0.3-0.5c-0.1,0-0.2,0.1-0.2,0.3
					c0,0.2,0,0.4-0.1,0.6c-0.1,0.2-0.1,0.3-0.1,0.4c-0.5-0.2-0.8-0.3-1.1-0.2c-0.3,0-0.3,0.1-0.2,0.3c0,0.1,0.2,0.1,0.4,0.1
					c0.2,0,0.5,0.1,0.8,0.3c0,0.1-0.1,0.3-0.2,0.5c-0.1,0.2-0.1,0.4-0.2,0.5c-0.1,0.4,0,0.6,0.2,0.7c0.1,0,0.2,0,0.3,0
					c0.1-0.1,0.2-0.2,0.3-0.5C412.4-427.6,412.5-428.1,412.6-428.6z"/>
			</g>
		</g>
		<g>
			<g>
				<path class="st1" d="M206.2-523c-0.2,0.4-0.4,0.8-0.7,1.3c-0.2,0.5-0.5,0.9-0.8,1.4c-0.3,0.4-0.6,0.8-1,1.1
					c-0.3,0.3-0.7,0.5-1.2,0.5c-0.3,0.7-0.5,1.3-0.7,1.7c-0.2,0.5-0.4,1-0.7,1.7c-0.7,1.7-1.3,3.2-1.9,4.7c-0.6,1.5-1.2,3-1.9,4.5
					c-0.4,0.9-0.8,1.6-1.3,2.1c-0.5,0.5-1.1,0.8-1.8,1c-1.4,0.4-3,0.5-4.8,0.4c-1.8-0.1-3.5-0.3-5-0.6c-1-0.3-2-0.6-3.1-1
					s-2.1-0.9-3-1.4s-1.8-1.1-2.6-1.7c-0.8-0.6-1.4-1.2-1.9-1.9c-0.5-0.8-0.7-1.6-0.8-2.3c0-1,0.1-2,0.4-3c0.2-0.9,0.4-1.9,0.6-2.9
					c0.2-0.8,0.3-1.6,0.5-2.4c0.2-0.8,0.3-1.6,0.4-2.5c0.1-0.6,0.2-1.2,0.3-1.9c0.1-0.7,0.2-1.3,0.3-1.9c-0.2-0.2-0.4-0.5-0.6-0.7
					c-0.2-0.3-0.3-0.6-0.5-1c-0.1-0.4-0.2-1-0.2-1.6s0.1-1.4,0.2-2.4c0.1-0.8,0.4-1.5,0.8-2.1c0.4-0.6,1-1.1,1.7-1.3
					c1.2-0.5,2.6-0.8,4-0.9s2.8-0.1,4.2,0.1c1.4,0.1,2.8,0.4,4.2,0.7c1.4,0.3,2.7,0.6,4,1c1.3,0.3,2.6,0.8,3.8,1.3
					c1.3,0.5,2.5,1.1,3.6,1.7c1.1,0.6,2.2,1.3,3.1,2.1c0.9,0.8,1.6,1.6,2.2,2.4c0.4,0.6,0.5,1.2,0.5,1.9
					C206.6-524.2,206.5-523.6,206.2-523z M179.5-532c2.1,1.3,4.1,2.2,5.9,2.7c1.8,0.5,3.5,1,5.1,1.5c0.8,0.2,1.8,0.4,2.8,0.7
					c1,0.2,2.1,0.4,3.2,0.6c1.1,0.2,2.1,0.3,3.1,0.4s1.9,0.1,2.6,0.2c0.6,0,0.9-0.1,0.8-0.4s-0.3-0.5-0.6-0.8
					c-0.7-0.5-1.5-1-2.4-1.5c-0.9-0.5-1.8-0.9-2.7-1.3c-0.9-0.4-1.8-0.8-2.7-1.1c-0.9-0.3-1.7-0.6-2.4-0.8c-2.6-0.7-5-1.2-7.1-1.6
					c-2.1-0.3-3.9-0.3-5.4,0c-0.3,0.1-0.5,0.2-0.8,0.5C178.9-532.6,179-532.3,179.5-532z M200-518.9c-1.8,0-3.6-0.1-5.4-0.3
					c-1.7-0.3-3.5-0.6-5.3-1.1c-1.4-0.4-3-0.9-4.7-1.4c-1.7-0.6-3.9-1.6-6.5-3c-0.4,2.2-0.8,4.1-1.2,5.9c-0.4,1.8-0.8,3.7-1.1,5.8
					c0,0.6-0.1,1.1,0,1.5c0,0.4,0.2,0.8,0.6,1.2c1.2,1.2,2.6,2.2,4.1,2.9c1.5,0.7,3,1.3,4.4,1.6c1.7,0.5,3.3,0.7,4.6,0.7
					c1.4,0,2.6-0.1,3.7-0.4c0.5-0.1,0.9-0.4,1.3-0.7c0.4-0.3,0.7-0.8,1-1.5c0.6-1.4,1.2-2.6,1.6-3.8c0.5-1.2,0.9-2.4,1.4-3.6
					L200-518.9z M203.6-523.8c-2.3,0-4.6-0.1-6.9-0.4c-2.3-0.3-4.5-0.7-6.6-1.3c-3-0.8-5.6-1.7-7.8-2.7c-2.1-1-4.1-2.1-5.8-3.2
					c-0.1,0.9-0.1,1.7-0.2,2.2c0,0.5,0.4,1.1,1.1,1.5c1.9,1.3,3.9,2.3,5.9,3s4,1.4,5.9,1.8c1.9,0.5,3.8,0.8,5.8,1.2
					c2,0.3,3.7,0.5,5.3,0.5c1,0,1.8-0.3,2.2-0.8C203-522.5,203.3-523.2,203.6-523.8z"/>
				<path class="st1" d="M194.4-511.5c-0.3,1-0.8,1.8-1.4,2.4c-0.7,0.6-1.5,1-2.3,1.3c-0.9,0.3-1.8,0.4-2.7,0.4
					c-1,0-1.9-0.2-2.7-0.4c-0.9-0.2-1.7-0.6-2.5-1.1c-0.8-0.5-1.5-1-2-1.7c-0.6-0.6-1-1.4-1.2-2.2c-0.2-0.8-0.2-1.6,0-2.5
					c0.3-1,0.7-1.8,1.4-2.4c0.7-0.6,1.4-1.1,2.3-1.5c0.9-0.3,1.8-0.5,2.8-0.5c1,0,2,0.1,2.8,0.3c2.3,0.6,3.9,1.6,4.8,3
					C194.6-515,194.9-513.4,194.4-511.5z M182-516.5c0,0.1,0,0.2,0.2,0.3c-0.2,0.4-0.3,0.8-0.3,1.1c0,0.3,0.2,0.5,0.5,0.7
					c0.5,0.2,1,0.3,1.4,0.2c0.3,0,0.4-0.2,0.3-0.4c0-0.2-0.1-0.2-0.3-0.2c-0.2,0-0.4,0.1-0.6,0.1c-0.2,0-0.3,0-0.5-0.1
					c-0.2-0.2-0.3-0.3-0.3-0.5c0.3,0,0.5,0,0.7,0.1c0.2,0,0.4,0.1,0.7,0.2c0.2,0.1,0.4,0,0.4-0.1c0.1-0.2,0-0.3-0.3-0.4
					c-0.2-0.1-0.5-0.1-0.7-0.2c-0.2-0.1-0.5-0.1-0.7,0l0.1-0.4c0.2,0,0.5,0,0.8,0.1c0.3,0.1,0.5,0.1,0.6,0.2
					c0.2,0.1,0.4,0.1,0.4-0.1c0.1-0.2,0-0.4-0.3-0.5c-0.2-0.1-0.5-0.2-0.9-0.3c-0.4-0.1-0.7-0.1-1-0.1
					C182.2-516.6,182.1-516.6,182-516.5z M184.3-513.3c0-0.2-0.1-0.3-0.4-0.4l-2-0.4c-0.3-0.1-0.5,0-0.5,0.2c0,0.1,0.1,0.3,0.4,0.3
					l0.8,0.1l-0.2,0.7c-0.1,0.2,0,0.4,0.2,0.4c0.2,0.1,0.3,0,0.4-0.3l0.2-0.8l0.7,0.1C184.1-513.1,184.2-513.2,184.3-513.3z
					 M186.4-514.3c-0.1-0.2-0.3-0.3-0.7-0.4c-0.2-0.1-0.4-0.1-0.5-0.1c-0.3,0-0.4,0.1-0.3,0.3c0,0.1,0.1,0.2,0.1,0.1
					c0.1,0,0.1,0,0.2,0l0.4,0.1c0.1,0,0.2,0.1,0.2,0.2c0,0.1,0,0.3-0.2,0.4c-0.2,0.2-0.4,0.4-0.7,0.5c-0.2,0-0.3,0.2-0.2,0.3
					c0.1,0.2,0.2,0.3,0.3,0.2s0.3-0.1,0.4-0.1c0.3-0.2,0.6-0.5,0.8-0.8C186.3-513.9,186.4-514.1,186.4-514.3z M187.6-513.6
					c0.1-0.4,0.2-0.8,0.2-1c0-0.3-0.1-0.4-0.3-0.5c-0.1,0-0.2,0.1-0.2,0.3l-0.2,0.9l-0.3-0.1c-0.2-0.1-0.4,0-0.4,0.1
					c0,0.1,0,0.2,0.2,0.2c0.2,0.1,0.3,0.1,0.4,0.2l-0.5,0.8c-0.1,0.2-0.1,0.4,0.1,0.5c0.2,0.1,0.4,0,0.5-0.2
					c0.2-0.2,0.3-0.4,0.3-0.6C187.5-513.1,187.6-513.4,187.6-513.6z M188.7-513.6c0.1-0.3,0.1-0.5,0.1-0.8c0-0.3-0.1-0.5-0.3-0.6
					c-0.1,0-0.2,0.1-0.2,0.3c0,0.3-0.1,0.6-0.2,1.1c-0.2,0.6-0.4,1.2-0.7,1.6c-0.2,0.2-0.1,0.4,0.1,0.6c0.2,0.2,0.4,0.2,0.6-0.2
					c0.2-0.5,0.4-0.9,0.5-1.4C188.6-513.1,188.6-513.3,188.7-513.6z M190.9-511.7c-0.1-0.2-0.2-0.3-0.4-0.3c-0.2,0-0.4,0.1-0.5,0
					c-0.3-0.1-0.4-0.3-0.4-0.6c0-0.1,0.1-0.2,0.1-0.3c0-0.1,0.1-0.2,0.2-0.3l0.6,0.2c0.1,0,0.2,0,0.3,0s0.1-0.1,0.2-0.2
					c0.1-0.2,0-0.3-0.3-0.4c-0.2-0.1-0.5-0.1-0.7-0.1c-0.2,0-0.4,0-0.5,0c-0.3,0-0.4,0.1-0.4,0.2s0,0.2,0.1,0.2
					c0.1,0.1,0.2,0.1,0.2,0.1c-0.1,0.2-0.2,0.4-0.3,0.6c-0.1,0.4-0.1,0.7,0,0.9c0.1,0.2,0.4,0.4,0.7,0.5c0.2,0.1,0.5,0.1,0.8,0
					C190.8-511.4,190.9-511.5,190.9-511.7z M192.6-512.3c0.1-0.5,0.1-0.8,0.1-1.1c0-0.4-0.1-0.5-0.3-0.5c-0.1,0-0.2,0.1-0.2,0.3
					c0,0.2,0,0.4-0.1,0.6c-0.1,0.2-0.1,0.3-0.1,0.4c-0.5-0.2-0.8-0.3-1.1-0.2c-0.3,0-0.3,0.1-0.2,0.3c0,0.1,0.2,0.1,0.4,0.1
					c0.2,0,0.5,0.1,0.8,0.3c0,0.1-0.1,0.3-0.2,0.5c-0.1,0.2-0.1,0.4-0.2,0.5c-0.1,0.4,0,0.6,0.2,0.7c0.1,0,0.2,0,0.3,0
					c0.1-0.1,0.2-0.2,0.3-0.5C192.4-511.4,192.5-511.9,192.6-512.3z"/>
			</g>
		</g>
	</g>
</pattern>
<g>
	<path class="st1" d="M1139-404.3c-0.5-0.4-0.8-0.9-0.9-1.5c-0.1-0.5,0-1,0.3-1.3c0.3-0.3,0.7-0.5,1.1-0.4c0.4,0,0.8,0.2,1.1,0.6
		c0.6,0.6,1.6,1.2,2.9,1.8c1.3,0.6,2.7,1.1,4.2,1.5c1.3,0.4,2.6,0.6,3.8,0.7c1.2,0.1,2.3,0.1,3.2-0.1c0.6-0.1,1.2-0.1,1.6,0.1
		c0.5,0.1,0.8,0.5,0.8,1.1s-0.2,1.1-0.7,1.4s-1,0.6-1.4,0.6c-1.5,0.2-3,0.3-4.3,0.2c-1.3-0.1-2.7-0.4-4-0.8c-1.5-0.5-3-1-4.3-1.6
		C1141.3-402.6,1140.1-403.4,1139-404.3z"/>
	<path class="st1" d="M1161.9-403.7c0.1-1.2,0.2-2.4,0.2-3.6c0-1.3-0.1-2.5-0.2-3.7c-0.1-1.2-0.3-2.4-0.6-3.5
		c-0.1-0.4-0.3-0.8-0.6-1.4c-0.3-0.5-0.6-0.9-0.9-1.2c-0.5-0.4-1.1-0.9-2-1.5s-1.9-1-3-1.2c0.5-0.6,1-1.3,1.4-2
		c0.5-0.7,0.9-1.4,1.4-2c0.1-0.2,0.3-0.5,0.4-0.8c0.2-0.3,0.3-0.6,0.4-0.9c0.1-0.3,0.1-0.5,0.1-0.8c0-0.2-0.2-0.4-0.4-0.6
		c-0.4-0.3-0.8-0.5-1.3-0.4c-0.4,0-0.9,0.3-1.3,0.9c-0.7,0.9-1.4,1.8-2,2.8c-0.6,1-1.3,1.8-2,2.7c-1.7-0.2-3.1-0.2-4.4,0
		c-1.3,0.1-2.4,0.5-3.5,1.1c-0.9,0.5-1.6,1.1-2.2,1.7c-0.6,0.6-1.3,1.4-2,2.2c-0.3,0.3-0.6,0.8-1.1,1.3c-0.4,0.6-0.8,1.1-1.3,1.7
		s-0.8,1.2-1.2,1.8s-0.6,1.1-0.8,1.5c-0.4,0.9-0.8,1.8-1.1,2.8s-0.6,2-0.8,3.1c-0.3,2.1-0.4,3.9-0.1,5.5c0.3,1.5,0.7,2.9,1.3,4.1
		c0.7,1.5,1.8,2.8,3.2,3.9c1.4,1.1,3.6,2,6.5,2.8c1.2,0.3,2.3,0.5,3.3,0.5c1.1,0,2,0,2.9-0.2c0.9-0.1,1.7-0.3,2.3-0.6
		c0.7-0.3,1.2-0.5,1.5-0.8c0.7-0.6,1.4-1.2,2.1-1.9c0.6-0.6,1.2-1.4,1.8-2.2c0.6-1,1.2-2.1,1.8-3.2c0.6-1.1,1.1-2.7,1.7-4.8
		C1161.6-401.5,1161.8-402.6,1161.9-403.7z M1145-418c0.1-0.2,0.4-0.4,0.8-0.6c0.4-0.1,0.9-0.2,1.4-0.3c0.5-0.1,1-0.1,1.6,0
		c0.5,0,1,0.1,1.3,0.1c-0.3,0.5-0.4,0.9-0.4,1.4c0,0.4,0.3,0.8,0.7,1c0.4,0.2,0.9,0.2,1.4,0c0.5-0.3,1-0.7,1.5-1.4
		c0.2,0,0.4,0.1,0.7,0.2c0.3,0.1,0.7,0.2,1,0.4c0.4,0.2,0.7,0.3,1.1,0.5c0.3,0.2,0.6,0.3,0.8,0.4c0.6,0.4,0.9,0.8,0.9,1.3
		c0.1,0.5-0.3,0.8-0.9,0.9c-0.3,0.1-0.7,0.1-1.2,0.1c-0.5,0-1,0-1.5-0.1c-0.5-0.1-1.1-0.1-1.6-0.2s-1-0.2-1.5-0.3
		c-0.8-0.1-1.6-0.3-2.4-0.6c-0.8-0.3-1.5-0.6-2.2-1c-0.5-0.2-0.9-0.5-1.2-0.9C1144.9-417.3,1144.9-417.6,1145-418z M1156.4-396.8
		c-0.6,1.3-1.5,2.5-2.6,3.7c-0.5,0.5-1.1,1-1.6,1.5c-0.5,0.5-1.2,0.8-2,1c-2.2,0.5-4.2,0.6-6.1,0c-2-0.5-3.5-1.2-4.5-2
		c-1-0.8-1.7-1.7-2.2-2.6c-0.2-0.4-0.4-0.9-0.6-1.3c-0.2-0.5-0.3-1-0.3-1.5c-0.2-1-0.2-2-0.2-2.9c0-0.9,0.1-1.9,0.3-2.9
		c0.1-0.8,0.3-1.5,0.6-2.4c0.5-1.6,1.3-3.2,2.4-4.6c1.1-1.4,2.2-2.8,3.4-4c0.9,0.9,2,1.5,3.3,2.1c1.3,0.5,2.7,0.9,4,1.2
		c1.2,0.2,2.5,0.4,3.9,0.5s2.7,0,3.9-0.3c0.2,0.4,0.3,1,0.4,1.8c0.1,0.8,0.1,1.7,0.1,2.7c0,1,0,2-0.1,3s-0.3,1.9-0.5,2.7
		C1157.5-399.5,1157-398.1,1156.4-396.8z"/>
</g>
<path class="st1" d="M1239.9-322.4c0.1-1.1,0.1-2.1-0.1-3c-0.2-0.9-0.8-1.8-1.9-2.9c-0.3-0.3-0.7-0.6-1.2-1.1
	c-0.5-0.4-1-0.8-1.6-1.2s-1.2-0.8-1.8-1.2c-0.6-0.4-1.2-0.7-1.7-0.9c-0.8-0.4-1.7-0.2-2.7,0.4c-0.7,0.4-1.5,0.9-2.5,1.5
	c-1,0.6-1.8,1.4-2.5,2.4c-0.4,0.7-0.7,1.4-0.8,1.9c-0.4,2.2-0.8,4.2-1.4,6c-0.5,1.8-1.2,3.6-1.9,5.4c-0.7,1.6-1.2,2.8-1.6,3.7
	c-0.4,0.9-0.7,1.6-0.9,2c-0.4,0.8-0.4,1.5-0.2,2.1c0.2,0.6,0.5,1.1,0.8,1.3c0.3,0.3,0.6,0.6,0.8,1s0.9,0.8,1.7,1.3
	c-0.8,1.5-1.5,2.8-2,4c-0.6,1.2-1.2,2.6-1.9,4.3c-0.1,0.2-0.1,0.4-0.1,0.7c0,0.3,0.1,0.6,0.3,0.9c0.1,0.3,0.3,0.6,0.5,0.8
	c0.2,0.2,0.3,0.4,0.5,0.6c0.3,0.3,0.7,0.6,1.3,0.9c0.6,0.3,1.1,0.5,1.6,0.7c1.3,0,2.4-0.5,3.3-1.4c0.5-0.7,1-1.6,1.5-2.7
	c0.5-0.9,1-1.9,1.4-3c0.4-1.1,0.9-2.1,1.4-3.2c1.4-0.5,2.7-1.2,3.7-2.1c1-0.9,1.8-2.2,2.5-3.8c0.5-1.2,1.1-2.5,1.7-3.7
	c0.6-1.3,1.1-2.5,1.6-3.7c0.6-1.4,1.2-2.9,1.6-4.3C1239.5-319.8,1239.8-321.1,1239.9-322.4z M1224-299.7c-0.4,0.7-0.7,1.5-1.1,2.3
	c-0.4,0.8-0.8,1.6-1.2,2.4s-0.8,1.4-1,1.9c-0.3-0.2-0.6-0.4-0.9-0.5c-0.3-0.1-0.6-0.4-0.9-0.7c0.8-1.8,1.6-3.5,2.4-4.9
	c0.8-1.5,1.3-2.5,1.7-3.2l1.7,1.1C1224.6-300.9,1224.4-300.4,1224-299.7z M1228.7-315.8c-0.5,1.4-1,2.7-1.4,3.8
	c-0.4,1.2-0.9,2.4-1.4,3.5c-0.5,1.2-1,2.5-1.7,4.1c0,0.1-0.2,0-0.6-0.2c-0.4-0.2-0.7-0.5-1.1-0.8c-0.4-0.3-0.8-0.6-1.2-0.9
	s-0.6-0.5-0.6-0.5c-0.2-0.2-0.3-0.4-0.4-0.7c-0.1-0.3-0.1-0.6,0-0.8c0.2-0.6,0.4-1.1,0.6-1.5c0.2-0.4,0.5-0.9,0.8-1.6
	c0.8-1.9,1.6-3.8,2.3-5.9c0.8-2,1.4-4.1,2.1-6.1c0.3,0.1,0.6,0.3,1.1,0.5c0.4,0.2,0.8,0.4,1.3,0.7c0.4,0.3,0.8,0.5,1.2,0.8
	c0.4,0.2,0.7,0.5,0.9,0.7C1229.9-318.9,1229.2-317.2,1228.7-315.8z M1229.1-324.4c-1.2-0.6-2.3-1.3-3.4-2c0.6-0.7,1.3-1.2,1.8-1.7
	s1.1-0.9,1.7-1.4c0.4-0.3,0.8-0.5,1.2-0.5s1,0.1,1.7,0.4c0.7,0.4,1.4,0.9,2.2,1.5c0.8,0.6,1.5,1.2,2.2,1.9c-0.3,0.3-0.8,0.7-1.6,1.4
	c-0.8,0.7-1.8,1.4-2.9,2C1231.3-323.3,1230.3-323.8,1229.1-324.4z M1237.3-320.2c-0.3,0.9-0.6,1.8-0.9,2.7c-0.4,0.9-0.8,1.9-1.3,3.1
	c-0.5,1.2-1,2.4-1.6,3.6c-0.6,1.2-1.1,2.3-1.6,3.4c-0.5,1.1-1,1.9-1.3,2.5c-0.3,0.2-0.7,0.4-1.1,0.6c-0.4,0.2-1.5,0.6-2,0.8
	c0.7-2,2.2-4.7,3.3-7.6c1.1-2.9,2.4-6.2,4-9.7l3.3-2.2C1237.8-322.1,1237.6-321.1,1237.3-320.2z"/>
<g>
	<path class="st1" d="M1326.1-228.9c0-0.7-0.1-1.3-0.5-1.9c-0.6-0.8-1.3-1.6-2.2-2.4c-0.9-0.8-1.9-1.5-3.1-2.1
		c-1.1-0.6-2.4-1.2-3.6-1.7c-1.3-0.5-2.6-0.9-3.8-1.3c-1.3-0.3-2.6-0.7-4-1c-1.4-0.3-2.7-0.5-4.2-0.7c-1.4-0.1-2.8-0.2-4.2-0.1
		c-1.4,0.1-2.7,0.4-4,0.9c-0.7,0.3-1.3,0.7-1.7,1.3c-0.5,0.6-0.7,1.3-0.8,2.1c-0.2,1-0.2,1.8-0.2,2.4c0,0.6,0.1,1.2,0.2,1.6
		s0.3,0.8,0.5,1s0.4,0.5,0.6,0.7c0,0.6-0.1,1.2-0.3,1.9c-0.1,0.7-0.3,1.3-0.3,1.9c-0.1,0.9-0.3,1.7-0.4,2.5
		c-0.2,0.8-0.3,1.6-0.5,2.4c-0.2,1-0.4,2-0.6,2.9c-0.2,0.9-0.3,1.9-0.4,3c0.1,0.8,0.3,1.5,0.8,2.3c0.5,0.7,1.1,1.3,1.9,1.9
		c0.8,0.6,1.6,1.2,2.6,1.7s2,1,3,1.4c1.1,0.4,2.1,0.7,3.1,1c1.5,0.3,3.1,0.6,5,0.6c1.8,0.1,3.4-0.1,4.8-0.4c0.7-0.2,1.4-0.6,1.8-1
		c0.5-0.5,0.9-1.1,1.3-2.1c0.7-1.5,1.3-3,1.9-4.5c0.6-1.5,1.2-3.1,1.9-4.7c0.3-0.7,0.5-1.3,0.7-1.7c0.2-0.5,0.4-1,0.7-1.7
		c0.4,0,0.8-0.2,1.2-0.5c0.3-0.3,0.7-0.7,1-1.1c0.3-0.4,0.6-0.9,0.8-1.4c0.2-0.5,0.5-0.9,0.7-1.3
		C1325.9-227.6,1326.1-228.3,1326.1-228.9z M1298.6-236.9c0.2-0.2,0.5-0.4,0.8-0.5c1.5-0.3,3.3-0.3,5.4,0c2.1,0.3,4.5,0.9,7.1,1.6
		c0.7,0.2,1.5,0.4,2.4,0.8c0.9,0.3,1.8,0.7,2.7,1.1c0.9,0.4,1.8,0.8,2.7,1.3c0.9,0.5,1.7,1,2.4,1.5c0.3,0.2,0.6,0.5,0.6,0.8
		c0.1,0.3-0.2,0.4-0.8,0.4c-0.7,0-1.6-0.1-2.6-0.2c-1-0.1-2-0.2-3.1-0.4c-1.1-0.2-2.2-0.4-3.2-0.6c-1-0.2-2-0.5-2.8-0.7
		c-1.6-0.5-3.3-1-5.1-1.5c-1.8-0.5-3.8-1.4-5.9-2.7C1298.5-236.4,1298.3-236.6,1298.6-236.9z M1318-219c-0.5,1.2-1,2.5-1.4,3.6
		c-0.5,1.2-1,2.5-1.6,3.8c-0.3,0.7-0.6,1.1-1,1.5c-0.4,0.3-0.8,0.5-1.3,0.7c-1.1,0.3-2.3,0.4-3.7,0.4c-1.4,0-2.9-0.3-4.6-0.7
		c-1.4-0.4-2.9-0.9-4.4-1.6c-1.5-0.7-2.9-1.7-4.1-2.9c-0.4-0.4-0.6-0.8-0.6-1.2c0-0.4,0-0.9,0-1.5c0.4-2.1,0.7-4.1,1.1-5.8
		c0.4-1.8,0.8-3.8,1.2-5.9c2.6,1.4,4.8,2.4,6.5,3c1.7,0.6,3.3,1.1,4.7,1.4c1.8,0.5,3.5,0.8,5.3,1.1c1.7,0.3,3.5,0.4,5.4,0.3
		L1318-219z M1322-226c-0.4,0.6-1.1,0.9-2.2,0.8c-1.5,0-3.3-0.2-5.3-0.5c-2-0.3-3.9-0.7-5.8-1.2c-1.9-0.5-3.8-1.1-5.9-1.8
		c-2-0.8-4-1.8-5.9-3c-0.8-0.5-1.1-1-1.1-1.5c0-0.5,0.1-1.3,0.2-2.2c1.7,1.1,3.6,2.2,5.8,3.2c2.1,1,4.7,1.9,7.8,2.7
		c2.2,0.6,4.4,1,6.6,1.3c2.3,0.3,4.6,0.4,6.9,0.4C1322.8-227.2,1322.4-226.6,1322-226z"/>
	<path class="st1" d="M1313.1-220.4c-1-1.4-2.6-2.4-4.8-3c-0.9-0.2-1.8-0.3-2.8-0.3s-1.9,0.2-2.8,0.5c-0.9,0.3-1.7,0.8-2.3,1.5
		c-0.7,0.6-1.1,1.4-1.4,2.4c-0.2,0.9-0.2,1.7,0,2.5c0.2,0.8,0.6,1.5,1.2,2.2s1.2,1.2,2,1.7c0.8,0.5,1.6,0.8,2.5,1.1
		c0.8,0.2,1.7,0.3,2.7,0.4c1,0,1.9-0.1,2.7-0.4c0.9-0.3,1.6-0.7,2.3-1.3s1.2-1.4,1.4-2.4C1314.3-217.4,1314.1-219,1313.1-220.4z
		 M1301.8-220.7c0.3,0,0.6,0,1,0.1c0.4,0.1,0.7,0.2,0.9,0.3c0.2,0.1,0.3,0.2,0.3,0.5c-0.1,0.2-0.2,0.2-0.4,0.1
		c-0.1,0-0.3-0.1-0.6-0.2c-0.3-0.1-0.6-0.1-0.8-0.1l-0.1,0.4c0.3,0,0.5,0,0.7,0c0.2,0.1,0.5,0.1,0.7,0.2c0.2,0.1,0.3,0.2,0.3,0.4
		c0,0.1-0.2,0.2-0.4,0.1c-0.2-0.1-0.4-0.2-0.7-0.2c-0.2,0-0.4,0-0.7-0.1c0,0.1,0.1,0.3,0.3,0.5c0.2,0.1,0.4,0.1,0.5,0.1
		c0.2,0,0.4,0,0.6-0.1c0.2,0,0.3,0,0.3,0.2c0,0.2-0.1,0.3-0.3,0.4c-0.4,0.1-0.9,0-1.4-0.2c-0.4-0.2-0.5-0.4-0.5-0.7
		c0-0.3,0.1-0.7,0.3-1.1c-0.1,0-0.2-0.1-0.2-0.3C1301.5-220.6,1301.6-220.7,1301.8-220.7z M1303.2-217.3l-0.7-0.1l-0.2,0.8
		c-0.1,0.2-0.2,0.3-0.4,0.3c-0.2-0.1-0.3-0.2-0.2-0.4l0.2-0.7l-0.8-0.1c-0.3-0.1-0.4-0.2-0.4-0.3c0.1-0.2,0.2-0.3,0.5-0.2l2,0.4
		c0.3,0.1,0.4,0.2,0.4,0.4C1303.7-217.2,1303.5-217.2,1303.2-217.3z M1305.6-217.7c-0.2,0.4-0.5,0.6-0.8,0.8
		c-0.1,0.1-0.3,0.1-0.4,0.1s-0.3-0.1-0.3-0.2c-0.1-0.2,0-0.3,0.2-0.3c0.3-0.1,0.5-0.2,0.7-0.5c0.1-0.2,0.2-0.3,0.2-0.4
		c0-0.1,0-0.2-0.2-0.2l-0.4-0.1c-0.1,0-0.2,0-0.2,0c-0.1,0-0.1,0-0.1-0.1c-0.1-0.2,0-0.3,0.3-0.3c0.1,0,0.3,0,0.5,0.1
		c0.4,0.1,0.6,0.2,0.7,0.4C1305.8-218.2,1305.7-217.9,1305.6-217.7z M1306.9-217c-0.1,0.2-0.2,0.4-0.3,0.6c-0.2,0.3-0.4,0.4-0.5,0.2
		c-0.2-0.1-0.2-0.3-0.1-0.5l0.5-0.8c-0.1-0.1-0.2-0.1-0.4-0.2c-0.1,0-0.2-0.1-0.2-0.2c0-0.1,0.2-0.2,0.4-0.1l0.3,0.1l0.2-0.9
		c0.1-0.2,0.1-0.4,0.2-0.3c0.1,0,0.2,0.2,0.3,0.5c0,0.2-0.1,0.5-0.2,1C1307-217.4,1307-217.2,1306.9-217z M1308-217
		c-0.1,0.4-0.3,0.9-0.5,1.4c-0.2,0.3-0.4,0.4-0.6,0.2c-0.2-0.2-0.2-0.4-0.1-0.6c0.3-0.4,0.5-0.9,0.7-1.6c0.1-0.5,0.2-0.9,0.2-1.1
		c0.1-0.2,0.1-0.3,0.2-0.3c0.2,0.1,0.3,0.2,0.3,0.6c0,0.3,0,0.5-0.1,0.8C1308.1-217.4,1308-217.2,1308-217z M1310-215.3
		c-0.3,0.1-0.6,0.1-0.8,0c-0.3-0.1-0.6-0.3-0.7-0.5c-0.1-0.2-0.1-0.5,0-0.9c0.1-0.2,0.1-0.5,0.3-0.6c0,0-0.1,0-0.2-0.1
		c-0.1-0.1-0.1-0.1-0.1-0.2c0-0.1,0.2-0.2,0.4-0.2c0.1,0,0.3,0,0.5,0c0.2,0,0.5,0.1,0.7,0.1c0.2,0.1,0.3,0.2,0.3,0.4
		c0,0.1-0.1,0.2-0.2,0.2c-0.1,0-0.2,0-0.3,0l-0.6-0.2c-0.1,0.1-0.1,0.2-0.2,0.3c0,0.1-0.1,0.2-0.1,0.3c0,0.3,0.1,0.5,0.4,0.6
		c0.1,0,0.3,0,0.5,0c0.2,0,0.4,0,0.4,0.3C1310.3-215.6,1310.2-215.5,1310-215.3z M1311.7-214.9c-0.1,0.3-0.2,0.4-0.3,0.5
		c-0.1,0.1-0.2,0.1-0.3,0c-0.2-0.1-0.3-0.3-0.2-0.7c0-0.1,0.1-0.3,0.2-0.5c0.1-0.2,0.1-0.4,0.2-0.5c-0.3-0.2-0.6-0.3-0.8-0.3
		c-0.2,0-0.3,0-0.4-0.1c-0.1-0.2,0-0.3,0.2-0.3c0.2-0.1,0.6,0,1.1,0.2c0-0.1,0.1-0.2,0.1-0.4c0.1-0.2,0.1-0.4,0.1-0.6
		c0.1-0.2,0.1-0.3,0.2-0.3c0.2,0,0.3,0.1,0.3,0.5c0,0.3,0,0.6-0.1,1.1C1312-215.9,1311.9-215.4,1311.7-214.9z"/>
</g>
<rect y="0" class="st2" width="1920" height="1200"/>
</svg>
