<?xml version="1.0" encoding="utf-8"?>
<!-- Generator: Adobe Illustrator 26.3.1, SVG Export Plug-In . SVG Version: 6.00 Build 0)  -->
<svg version="1.1" id="Layer_1" xmlns="http://www.w3.org/2000/svg" xmlns:xlink="http://www.w3.org/1999/xlink" x="0px" y="0px"
	 viewBox="0 0 126.68 189.55" style="enable-background:new 0 0 126.68 189.55;" xml:space="preserve">
<style type="text/css">
	.st0{fill:#FFF33F;}
	.st1{fill:#00A95F;}
	.st2{fill:#EFEFEF;}
	.st3{fill:none;}
</style>
<g>
	<polygon class="st0" points="32.04,60.36 10.48,106.98 10.48,151.38 51.39,184.36 105.94,171.36 118.63,119.03 110.38,64.42 	"/>
	<ellipse class="st1" cx="63.34" cy="55.59" rx="32.59" ry="15.16"/>
	<path class="st2" d="M125.55,98.13c-0.76-5.2-1.89-10.53-3.4-15.99c-1.51-5.46-3.27-10.79-5.29-15.99
		c-2.01-5.2-4.28-10.07-6.8-14.61c-0.84-1.51-2.31-3.23-4.41-5.16c-2.1-1.93-3.9-3.31-5.42-4.16c-2.52-1.34-6-2.68-10.45-4.03
		c-4.45-1.34-9.28-1.93-14.48-1.76c1.34-3.36,2.6-6.8,3.78-10.33c1.17-3.53,2.35-6.97,3.53-10.33c0.33-1.17,0.67-2.48,1.01-3.9
		c0.33-1.42,0.54-2.81,0.63-4.16c0.08-1.34-0.09-2.52-0.5-3.52c-0.42-1.01-1.22-1.68-2.39-2.02c-2.18-0.84-4.16-0.96-5.92-0.38
		c-1.76,0.59-3.32,2.48-4.66,5.67c-2.18,4.7-4.07,9.49-5.67,14.36c-1.6,4.87-3.49,9.49-5.67,13.85c-7.39,1.18-13.73,2.81-19.02,4.91
		c-5.29,2.1-9.86,5.08-13.73,8.94c-3.19,3.19-5.75,6.51-7.68,9.95c-1.93,3.44-3.99,7.43-6.17,11.96C12,73.29,11,75.63,9.82,78.49
		c-1.18,2.86-2.35,5.79-3.53,8.82c-1.18,3.02-2.18,6.04-3.02,9.07c-0.84,3.02-1.35,5.54-1.51,7.56c-0.84,4.37-1.38,8.9-1.64,13.6
		c-0.25,4.7-0.13,9.49,0.38,14.35c1.01,9.57,3.02,17.55,6.04,23.93c3.02,6.38,6.46,11.84,10.33,16.37
		c4.87,5.71,11.04,10.03,18.51,12.97c7.47,2.94,17.92,4.41,31.36,4.41c5.37,0,10.37-0.59,14.99-1.76c4.62-1.17,8.77-2.56,12.47-4.16
		c3.69-1.59,6.8-3.35,9.32-5.29c2.52-1.93,4.45-3.65,5.79-5.16c2.52-3.52,4.79-7.05,6.8-10.58c2.01-3.53,3.69-7.39,5.04-11.59
		c1.51-5.04,2.81-10.36,3.9-15.99c1.09-5.62,1.64-13.13,1.64-22.54C126.68,108.12,126.3,103.34,125.55,98.13z M35.76,56.07
		c0.16-1.17,1.05-2.31,2.64-3.4c1.59-1.09,3.44-2.05,5.54-2.9c2.1-0.84,4.32-1.51,6.67-2.02c2.35-0.5,4.28-0.84,5.79-1.01
		c-0.67,2.35-0.72,4.49-0.13,6.42c0.59,1.93,2.05,3.15,4.41,3.65c2.18,0.5,4.24-0.13,6.17-1.89c1.93-1.76,3.57-4.32,4.91-7.68
		c0.67-0.16,1.76-0.21,3.27-0.13c1.51,0.09,3.15,0.3,4.91,0.63c1.76,0.34,3.48,0.67,5.16,1.01c1.68,0.34,2.94,0.67,3.78,1.01
		c2.85,1.01,4.7,2.52,5.54,4.53c0.84,2.01-0.17,3.69-3.02,5.04c-1.35,0.67-3.02,1.26-5.04,1.76c-2.01,0.5-4.2,0.97-6.55,1.39
		c-2.35,0.42-4.75,0.75-7.18,1.01c-2.44,0.25-4.66,0.46-6.67,0.63c-3.53,0.34-7.18,0.38-10.96,0.13c-3.78-0.25-7.35-0.8-10.7-1.64
		c-2.35-0.5-4.45-1.3-6.3-2.39C36.18,59.14,35.42,57.75,35.76,56.07z M109.81,134.65c-1.18,6.38-3.44,12.76-6.8,19.14
		c-1.68,2.86-3.44,5.58-5.29,8.19c-1.85,2.6-4.28,4.83-7.3,6.67c-8.73,4.87-17.55,7.3-26.44,7.3c-9.41,0-16.67-1.22-21.79-3.65
		c-5.12-2.43-9.36-5.33-12.72-8.69c-1.51-1.51-2.94-3.19-4.28-5.04c-1.35-1.85-2.44-3.94-3.27-6.29c-1.85-4.2-3.27-8.31-4.28-12.34
		c-1.01-4.03-1.68-8.31-2.01-12.84c-0.5-3.36-0.59-7.05-0.25-11.08c0.33-7.72,1.97-15.28,4.91-22.67
		c2.94-7.39,6.34-14.52,10.2-21.41c4.7,2.69,10.28,4.41,16.75,5.16c6.46,0.75,12.72,0.97,18.76,0.63
		c5.37-0.33,11.16-1.09,17.38-2.27c6.21-1.17,11.75-3.19,16.62-6.04c1.17,1.51,2.43,4.03,3.78,7.56c1.34,3.52,2.6,7.43,3.78,11.71
		c1.17,4.28,2.14,8.73,2.9,13.35c0.76,4.62,1.13,8.78,1.13,12.47C111.57,121.55,110.98,128.27,109.81,134.65z"/>
	<path id="SVGID_x5F_1_x5F_" class="st3" d="M22.21,124.9c0,0,32.95,19.19,81.79,0.16"/>
	<text>	<textPath  xlink:href="#SVGID_x5F_1_x5F_" startOffset="2.3438%">
<tspan  class="st1" style="font-family:'Binggrae-Bold'; font-size:29.8125px;">TOP</tspan>	</textPath>
</text>
</g>
</svg>
