<?xml version="1.0" encoding="utf-8"?>
<!-- Generator: Adobe Illustrator 26.3.1, SVG Export Plug-In . SVG Version: 6.00 Build 0)  -->
<svg version="1.1" id="Layer_1" xmlns="http://www.w3.org/2000/svg" xmlns:xlink="http://www.w3.org/1999/xlink" x="0px" y="0px"
	 viewBox="0 0 22 14" style="enable-background:new 0 0 22 14;" xml:space="preserve">
<style type="text/css">
	.st0{fill:#FFFFFF;}
</style>
<path class="st0" d="M21.5,2.2c-0.3-0.8-1-1.5-1.9-1.8C17.9,0,11,0,11,0S4.1,0,2.4,0.4C1.5,0.7,0.7,1.3,0.5,2.2C0,3.7,0,7,0,7
	s0,3.3,0.5,4.8c0.3,0.8,1,1.5,1.9,1.7C4.1,14,11,14,11,14s6.9,0,8.6-0.5c0.9-0.3,1.7-0.9,1.9-1.7C22,10.3,22,7,22,7
	S21.9,3.8,21.5,2.2z M8.6,10V4.1l5.7,2.9L8.6,10L8.6,10z"/>
</svg>
